<svg width="48" height="51" viewBox="0 0 48 51" fill="none" xmlns="http://www.w3.org/2000/svg">
<path d="M7.42027 7.42026C-2.47342 17.3139 -2.47342 33.3531 7.42027 43.2449C17.314 53.1385 33.3531 53.1385 43.2448 43.2449L41.9486 41.9486C32.7714 51.1258 17.8918 51.1258 8.71454 41.9486C-0.462691 32.7714 -0.462691 17.8918 8.71454 8.71457C13.3022 4.12497 19.3169 1.83115 25.3316 1.83115V0C18.8484 0 12.3652 2.47342 7.42027 7.42026Z" fill="white"/>
<path d="M17.2923 33.3687C21.7335 37.81 28.9351 37.81 33.3783 33.3687C37.8195 28.9275 37.8195 21.7259 33.3783 17.2827L32.0879 18.5731C35.8166 22.3018 35.8166 28.3477 32.0879 32.0783C28.3593 35.807 22.3133 35.807 18.5827 32.0783C16.7183 30.214 15.7853 27.7699 15.7853 25.3257H13.96C13.96 28.2364 15.0707 31.1472 17.2923 33.3687Z" fill="white"/>
<path d="M25.3326 10.4595C17.1198 10.4595 10.4648 17.1164 10.4648 25.3273C10.4648 33.5382 17.1217 40.1952 25.3326 40.1952V38.3621C18.133 38.3621 12.296 32.527 12.296 25.3254C12.296 18.1238 18.133 12.2887 25.3326 12.2887C28.9325 12.2887 32.1927 13.747 34.5509 16.1071L35.8472 14.8109C33.1571 12.1208 29.44 10.4556 25.3326 10.4556" fill="white"/>
<path d="M25.3307 43.6801C35.4645 43.6801 43.6813 35.4634 43.6813 25.3296C43.6813 15.1958 35.4645 6.979 25.3307 6.979V8.80625C34.4572 8.80625 41.8541 16.205 41.8541 25.3296C41.8541 34.4541 34.4572 41.8529 25.3307 41.8529C20.7665 41.8529 16.6357 40.0042 13.6469 37.0134L12.3545 38.3038C15.6752 41.6245 20.2628 43.6782 25.3307 43.6782" fill="#DE899A"/>
<path d="M25.3363 47.1709C37.3988 47.1709 47.1774 37.3924 47.1774 25.3298C47.1774 13.2673 37.3988 3.48682 25.3363 3.48682V5.31211C36.3915 5.31211 45.354 14.2746 45.354 25.3298C45.354 36.3851 36.3915 45.3476 25.3363 45.3476C19.8077 45.3476 14.8043 43.1065 11.181 39.4852L9.89062 40.7756C13.8438 44.7287 19.304 47.1729 25.3363 47.1729" fill="#DE899A"/>
</svg>
