<svg width="20" height="20" viewBox="0 0 20 20" fill="none" xmlns="http://www.w3.org/2000/svg">
<path d="M15.1228 3.61671C14.9578 3.55255 14.9578 3.28074 15.1228 3.21658L16.0913 2.84037C16.3042 2.75757 16.4976 2.61805 16.6563 2.43288C16.8149 2.24771 16.9344 2.02197 17.0053 1.77357L17.3278 0.64436C17.3828 0.451881 17.6158 0.451881 17.6708 0.64436L17.9933 1.77416C18.0643 2.02251 18.1839 2.24817 18.3426 2.43324C18.5013 2.61831 18.6948 2.7577 18.9078 2.84037L19.8758 3.21658C19.9119 3.23042 19.9434 3.25721 19.9657 3.29313C19.988 3.32906 20 3.37229 20 3.41665C20 3.461 19.988 3.50423 19.9657 3.54016C19.9434 3.57608 19.9119 3.60287 19.8758 3.61671L18.9073 3.99292C18.6944 4.07567 18.501 4.2151 18.3424 4.40016C18.1837 4.58523 18.0642 4.81084 17.9933 5.05914L17.6708 6.18893C17.6589 6.23108 17.636 6.26778 17.6052 6.2938C17.5744 6.31982 17.5373 6.33383 17.4993 6.33383C17.4612 6.33383 17.4242 6.31982 17.3934 6.2938C17.3626 6.26778 17.3396 6.23108 17.3278 6.18893L17.0053 5.05914C16.9343 4.81084 16.8148 4.58523 16.6562 4.40016C16.4975 4.2151 16.3041 4.07567 16.0913 3.99292L15.1228 3.61671ZM12.5733 5.86988C12.5516 5.86152 12.5328 5.84541 12.5194 5.82384C12.506 5.80227 12.4989 5.77634 12.4989 5.74973C12.4989 5.72312 12.506 5.69719 12.5194 5.67562C12.5328 5.65405 12.5516 5.63794 12.5733 5.62958L13.1543 5.40385C13.4133 5.30294 13.6163 5.06614 13.7028 4.764L13.8963 4.08624C13.9034 4.06098 13.9172 4.039 13.9357 4.02342C13.9542 4.00784 13.9765 3.99946 13.9993 3.99946C14.0221 3.99946 14.0443 4.00784 14.0628 4.02342C14.0813 4.039 14.0951 4.06098 14.1023 4.08624L14.2958 4.764C14.3383 4.91301 14.41 5.04841 14.5052 5.15947C14.6005 5.27053 14.7165 5.3542 14.8443 5.40385L15.4253 5.62958C15.4469 5.63794 15.4658 5.65405 15.4791 5.67562C15.4925 5.69719 15.4997 5.72312 15.4997 5.74973C15.4997 5.77634 15.4925 5.80227 15.4791 5.82384C15.4658 5.84541 15.4469 5.86152 15.4253 5.86988L14.8443 6.09561C14.7165 6.14525 14.6005 6.22892 14.5052 6.33998C14.41 6.45104 14.3383 6.58645 14.2958 6.73546L14.1023 7.41322C14.0951 7.43848 14.0813 7.46046 14.0628 7.47604C14.0443 7.49161 14.0221 7.5 13.9993 7.5C13.9765 7.5 13.9542 7.49161 13.9357 7.47604C13.9172 7.46046 13.9034 7.43848 13.8963 7.41322L13.7028 6.73546C13.6602 6.58645 13.5885 6.45104 13.4933 6.33998C13.3981 6.22892 13.282 6.14525 13.1543 6.09561L12.5733 5.86988ZM12.0488 1.74674C12.0345 1.74098 12.0222 1.73019 12.0134 1.71587C12.0047 1.70155 12 1.68441 12 1.66683C12 1.64926 12.0047 1.63212 12.0134 1.61779C12.0222 1.60347 12.0345 1.59268 12.0488 1.58693L12.4358 1.43644C12.6088 1.36937 12.7443 1.2113 12.8018 1.00949L12.9308 0.558037C12.9357 0.541429 12.9449 0.527027 12.9572 0.516835C12.9695 0.506642 12.9842 0.501166 12.9993 0.501166C13.0143 0.501166 13.029 0.506642 13.0413 0.516835C13.0536 0.527027 13.0628 0.541429 13.0678 0.558037L13.1968 1.00949C13.2251 1.10894 13.273 1.19931 13.3365 1.27343C13.4 1.34754 13.4775 1.40336 13.5628 1.43644L13.9498 1.58693C13.964 1.59268 13.9763 1.60347 13.9851 1.61779C13.9938 1.63212 13.9985 1.64926 13.9985 1.66683C13.9985 1.68441 13.9938 1.70155 13.9851 1.71587C13.9763 1.73019 13.964 1.74098 13.9498 1.74674L13.5628 1.89723C13.4775 1.93031 13.4 1.98613 13.3365 2.06024C13.273 2.13435 13.2251 2.22473 13.1968 2.32418L13.0678 2.77505C13.0628 2.79166 13.0536 2.80606 13.0413 2.81625C13.029 2.82644 13.0143 2.83192 12.9993 2.83192C12.9842 2.83192 12.9695 2.82644 12.9572 2.81625C12.9449 2.80606 12.9357 2.79166 12.9308 2.77505L12.8018 2.3236C12.7443 2.12179 12.6088 1.96372 12.4358 1.89664L12.0488 1.74674Z" fill="#646262"/>
<path d="M6.38281 0.549805H6.81348L6.92969 0.65625L6.94336 0.667969L6.96094 0.668945C6.98325 0.670375 7.00369 0.679657 7.01855 0.693359C7.02589 0.700155 7.03208 0.707605 7.03613 0.71582L7.04297 0.742188V0.8125L7.05078 0.825195C7.50498 1.54499 8.21713 2.3223 9.05566 3.09766V3.09863C9.79814 3.84473 10.5525 4.58614 11.1055 5.37891C11.6574 6.17027 12.0052 7.00786 11.9424 7.94531C11.8156 9.11543 10.9917 10.2356 9.32129 11.3047C9.19239 11.3642 9.07568 11.417 8.96191 11.417C8.77851 11.4169 8.60383 11.3604 8.4873 11.1992L8.48438 11.1953L8.4082 11.0898C8.34616 10.9825 8.3267 10.8735 8.34277 10.7744C8.36419 10.6427 8.44989 10.5205 8.59961 10.4375L8.60352 10.4355C9.24989 9.98744 9.77009 9.55237 10.1367 9.12305C10.5033 8.69379 10.7187 8.26555 10.752 7.83398C10.8497 7.1594 10.5347 6.49109 10.042 5.83398C9.79491 5.5045 9.50071 5.17548 9.18848 4.84668L8.22363 3.8623C8.06223 3.68308 7.90081 3.51873 7.74023 3.35547C7.579 3.19153 7.41814 3.02838 7.25781 2.85059L7.1709 2.75391V15.1025C7.1709 16.9792 5.58449 18.4502 3.61035 18.4502C1.63663 18.45 0.0498047 16.9202 0.0498047 15.1025C0.0498584 13.2262 1.63656 11.7549 3.61133 11.7549C4.50204 11.7549 5.26528 12.0494 5.90234 12.5205L5.98242 12.5791V0.857422C5.98242 0.851364 5.98217 0.849689 5.99805 0.834961C6.01133 0.822654 6.03394 0.800711 6.04199 0.763672L6.15918 0.65625L6.16113 0.654297C6.16255 0.653071 6.16514 0.651669 6.16797 0.649414C6.17385 0.644733 6.18236 0.638031 6.19238 0.631836C6.21378 0.618651 6.23658 0.609375 6.25488 0.609375H6.27441L6.28809 0.59668C6.32329 0.564131 6.33277 0.556002 6.33984 0.552734C6.34381 0.550908 6.34755 0.549811 6.38281 0.549805ZM3.5459 12.7881C2.23187 12.7882 1.1749 13.761 1.1748 15.043C1.1748 16.325 2.23182 17.2978 3.5459 17.2979C4.86036 17.2979 5.91699 16.3251 5.91699 15.043C5.9169 13.7609 4.86031 12.7881 3.5459 12.7881Z" fill="#646262" stroke="black" stroke-width="0.1"/>
</svg>
