<svg width="19" height="20" viewBox="0 0 19 20" fill="none" xmlns="http://www.w3.org/2000/svg">
<path d="M0.222656 10.8477H3.28789V11.5781H0.222656V10.8477ZM0.222656 13.7734H3.28789V14.5039H0.222656V13.7734ZM0.222656 15.2344H3.28789V15.9648H0.222656V15.2344ZM0.222656 6.45703H3.28789V7.1875H0.222656V6.45703ZM0.222656 7.92187H3.28789V8.65234H0.222656V7.92187ZM0.222656 9.38281H3.28789V10.1133H0.222656V9.38281ZM0.222656 12.3086H3.28789V13.0391H0.222656V12.3086ZM0.222656 16.6992H3.28789V17.4297H0.222656V16.6992ZM0.222656 18.1602H3.28789V18.9297H0.222656V18.1602Z" fill="#646262"/>
<path d="M4.09375 3.53125H7.15898V4.26172H4.09375V3.53125ZM4.09375 9.38281H7.15898V10.1133H4.09375V9.38281ZM4.09375 10.8477H7.15898V11.5781H4.09375V10.8477ZM4.09375 4.99609H7.15898V5.72656H4.09375V4.99609ZM4.09375 18.1602H7.15898V18.9297H4.09375V18.1602ZM4.09375 16.6992H7.15898V17.4297H4.09375V16.6992ZM4.09375 6.45703H7.15898V7.1875H4.09375V6.45703ZM4.09375 15.2344H7.15898V15.9648H4.09375V15.2344ZM4.09375 12.3086H7.15898V13.0391H4.09375V12.3086ZM4.09375 13.7734H7.15898V14.5039H4.09375V13.7734ZM4.09375 7.92187H7.15898V8.65234H4.09375V7.92187ZM4.09375 2.07031H7.15898V2.80078H4.09375V2.07031Z" fill="#646262"/>
<path d="M7.9668 13.8281H11.032V14.5039H7.9668V13.8281ZM7.9668 16.6992H11.032V17.4297H7.9668V16.6992ZM7.9668 15.2344H11.032V15.9648H7.9668V15.2344ZM7.9668 18.1602H11.032V18.9297H7.9668V18.1602Z" fill="#646262"/>
<path d="M11.8379 9.38281H14.9031V10.1133H11.8379V9.38281ZM11.8379 16.6992H14.9031V17.4297H11.8379V16.6992ZM11.8379 18.1602H14.9031V18.9297H11.8379V18.1602ZM11.8379 15.2344H14.9031V15.9648H11.8379V15.2344ZM11.8379 12.3086H14.9031V13.0391H11.8379V12.3086ZM11.8379 13.7734H14.9031V14.5039H11.8379V13.7734ZM11.8379 10.8477H14.9031V11.5781H11.8379V10.8477Z" fill="#646262"/>
<path d="M15.7129 10.8477H18.7781V11.5781H15.7129V10.8477ZM15.7129 9.38281H18.7781V10.1133H15.7129V9.38281ZM15.7129 7.92188H18.7781V8.65234H15.7129V7.92188ZM15.7129 4.99609H18.7781V5.72656H15.7129V4.99609ZM15.7129 3.53125H18.7781V4.26172H15.7129V3.53125ZM15.7129 6.45703H18.7781V7.1875H15.7129V6.45703ZM15.7129 18.1602H18.7781V18.9297H15.7129V18.1602ZM15.7129 13.7734H18.7781V14.5039H15.7129V13.7734ZM15.7129 15.2344H18.7781V15.9648H15.7129V15.2344ZM15.7129 16.6992H18.7781V17.4297H15.7129V16.6992ZM15.7129 12.3086H18.7781V13.0391H15.7129V12.3086Z" fill="#646262"/>
</svg>
