<svg width="30" height="30" viewBox="0 0 30 30" fill="none" xmlns="http://www.w3.org/2000/svg">
<g clip-path="url(#clip0_2014_333538)">
<g clip-path="url(#clip1_2014_333538)">
<path d="M18.5202 15.5499H17.7402V18.7599H18.5202V15.5499Z" fill="white"/>
<path d="M16.9499 15.5499H16.1699V21.3599H16.9499V15.5499Z" fill="white"/>
<path d="M15.3904 15.5499H14.6104V24.4199H15.3904V15.5499Z" fill="white"/>
<path d="M13.8298 15.5499H13.0498V19.6699H13.8298V15.5499Z" fill="white"/>
<path d="M12.26 15.5499H11.48V16.7299H12.26V15.5499Z" fill="white"/>
<path d="M7.57004 15.5499H6.79004V16.7299H7.57004V15.5499Z" fill="white"/>
<path d="M10.6999 15.5499H9.91992V18.0999H10.6999V15.5499Z" fill="white"/>
<path d="M9.14035 15.5499H8.36035V19.6699H9.14035V15.5499Z" fill="white"/>
<path d="M20.0798 15.5499H19.2998V17.1199H20.0798V15.5499Z" fill="white"/>
<path d="M21.6404 15.5499H20.8604V19.6699H21.6404V15.5499Z" fill="white"/>
<path d="M23.2097 15.5499H22.4297V16.7299H23.2097V15.5499Z" fill="white"/>
<path d="M25.75 14.77V13.99H23.21V12.8H22.43V13.99H21.64V9.86999H20.86V13.99H20.08V12.41H19.3V13.99H18.52V10.78H17.74V13.99H16.95V8.16999H16.17V13.99H15.39V5.10999H14.61V13.99H13.83V9.86999H13.05V13.99H12.26V12.8H11.48V13.99H10.7V11.43H9.92V13.99H9.14V9.86999H8.36V13.99H7.57V12.8H6.79V13.99H4.25V14.77H25.75Z" fill="white"/>
</g>
</g>
<defs>
<clipPath id="clip0_2014_333538">
<rect width="30" height="30" fill="white"/>
</clipPath>
<clipPath id="clip1_2014_333538">
<rect width="30" height="30" rx="15" fill="white"/>
</clipPath>
</defs>
</svg>
