<svg width="18" height="16" viewBox="0 0 18 16" fill="none" xmlns="http://www.w3.org/2000/svg">
<path d="M1.05882 7.38462H4.23529C4.81765 7.38462 5.29412 6.83077 5.29412 6.15385V1.23077C5.29412 0.553846 4.81765 0 4.23529 0H1.05882C0.476471 0 0 0.553846 0 1.23077V6.15385C0 6.83077 0.476471 7.38462 1.05882 7.38462ZM1.05882 16H4.23529C4.81765 16 5.29412 15.4462 5.29412 14.7692V9.84615C5.29412 9.16923 4.81765 8.61539 4.23529 8.61539H1.05882C0.476471 8.61539 0 9.16923 0 9.84615V14.7692C0 15.4462 0.476471 16 1.05882 16ZM7.41177 16H10.5882C11.1706 16 11.6471 15.4462 11.6471 14.7692V9.84615C11.6471 9.16923 11.1706 8.61539 10.5882 8.61539H7.41177C6.82941 8.61539 6.35294 9.16923 6.35294 9.84615V14.7692C6.35294 15.4462 6.82941 16 7.41177 16ZM13.7647 16H16.9412C17.5235 16 18 15.4462 18 14.7692V9.84615C18 9.16923 17.5235 8.61539 16.9412 8.61539H13.7647C13.1824 8.61539 12.7059 9.16923 12.7059 9.84615V14.7692C12.7059 15.4462 13.1824 16 13.7647 16ZM7.41177 7.38462H10.5882C11.1706 7.38462 11.6471 6.83077 11.6471 6.15385V1.23077C11.6471 0.553846 11.1706 0 10.5882 0H7.41177C6.82941 0 6.35294 0.553846 6.35294 1.23077V6.15385C6.35294 6.83077 6.82941 7.38462 7.41177 7.38462ZM12.7059 1.23077V6.15385C12.7059 6.83077 13.1824 7.38462 13.7647 7.38462H16.9412C17.5235 7.38462 18 6.83077 18 6.15385V1.23077C18 0.553846 17.5235 0 16.9412 0H13.7647C13.1824 0 12.7059 0.553846 12.7059 1.23077Z" fill="#666666"/>
</svg>
