<svg xmlns="http://www.w3.org/2000/svg" width="22.162" height="21.851" viewBox="0 0 22.162 21.851"><defs><style>.a{fill:#fff;stroke:#fff;}.a,.b{stroke-width:0.5px;}.b{stroke:#000;}.c{stroke:none;}.d{fill:none;}</style></defs><g transform="translate(-1234.127 -927.216)"><path class="a" d="M21235.4,3680.608c-2.74-2.448-9.289-9.289-9.289-9.289s-1.268-.938-1.1-3.685.262-6.2.826-6.713a.048.048,0,0,1,.031-.011.065.065,0,0,1,.012-.042,4.5,4.5,0,0,1,2.213-.629c1.59-.1,3.172-.128,4.58-.213,2.74-.176,3.631.672,3.631.672s6.912,6.49,9.354,9.23c1.152,1.29,1.2,2.639.379,3.631a36.235,36.235,0,0,1-3.85,3.754s-.566-.535-1.49-1.412c.863.928,1.389,1.5,1.389,1.5a42.529,42.529,0,0,1-3.408,3.21,2.689,2.689,0,0,1-1.662.739A2.452,2.452,0,0,1,21235.4,3680.608Z" transform="translate(-19990.617 -2732.53)"/><g class="b" transform="translate(1237 930)"><circle class="c" cx="2" cy="2" r="2"/><circle class="d" cx="2" cy="2" r="1.75"/></g></g></svg>