<svg width="19" height="22" viewBox="0 0 19 22" fill="none" xmlns="http://www.w3.org/2000/svg">
<path d="M16.7744 8.82081H4.56032L7.46678 7.79775L7.46801 7.79731L12.5889 5.99478C12.5898 5.99449 12.5906 5.99416 12.5915 5.99387L17.3339 4.32458C17.4598 4.28027 17.5754 4.21241 17.6742 4.12486C17.773 4.03732 17.853 3.93181 17.9097 3.81436C17.9663 3.69691 17.9984 3.56983 18.0043 3.44036C18.0101 3.3109 17.9895 3.18159 17.9436 3.05982L17.6011 2.14923C17.5083 1.90341 17.3184 1.70323 17.0731 1.59262C16.8279 1.482 16.5473 1.46998 16.2929 1.55919L6.98114 4.83705L6.98069 4.83721L1.50775 6.76377C1.38181 6.80807 1.26613 6.87592 1.16731 6.96346C1.06849 7.05099 0.988472 7.1565 0.931815 7.27394C0.875159 7.39139 0.842978 7.51848 0.83711 7.64795C0.831243 7.77743 0.851803 7.90675 0.897617 8.02854L1.07019 8.48722C0.967428 8.63568 0.896446 8.80253 0.861428 8.97795C0.84466 9.01307 0.835964 9.05129 0.835938 9.08998V18.5287C0.836353 18.8855 0.983101 19.2276 1.24399 19.4799C1.50487 19.7322 1.85859 19.8741 2.22754 19.8745H16.7744C17.1434 19.8741 17.4971 19.7322 17.758 19.4799C18.0189 19.2276 18.1656 18.8855 18.166 18.5287V10.1666C18.1656 9.80982 18.0189 9.46774 17.758 9.21544C17.4971 8.96313 17.1434 8.82121 16.7744 8.82081ZM13.4708 9.35914H15.6818L15.2577 11.0818H13.0467L13.4708 9.35914ZM10.6876 9.35914H12.8986L12.4745 11.0818H10.2635L10.6876 9.35914ZM7.9044 9.35914H10.1154L9.69131 11.0818H7.4803L7.9044 9.35914ZM5.1212 9.35914H7.33221L6.9081 11.0818H4.69709L5.1212 9.35914ZM16.4833 2.06503C16.599 2.02449 16.7266 2.02997 16.838 2.08027C16.9495 2.13057 17.0359 2.22159 17.078 2.33336L17.4206 3.24394C17.4414 3.29928 17.4508 3.35805 17.4482 3.4169C17.4455 3.47574 17.4309 3.5335 17.4052 3.58688C17.3794 3.64026 17.3431 3.68821 17.2982 3.728C17.2533 3.76778 17.2007 3.79862 17.1434 3.81874L15.155 4.51868L14.9293 2.61207L16.4833 2.06503ZM14.3914 2.8014L14.6171 4.708L12.7299 5.37229L12.4739 3.4764L14.3914 2.8014ZM11.938 3.66505L12.194 5.56092L10.2233 6.2546L10.0044 4.34572L11.938 3.66505ZM9.46607 4.53521L9.68498 6.44408L7.61233 7.17365L7.37273 5.2721L9.46607 4.53521ZM6.83579 5.46111L7.07539 7.36265L5.13779 8.04467L4.9123 6.13821L6.83579 5.46111ZM1.43621 7.50164C1.46186 7.44815 1.49822 7.4001 1.54319 7.36027C1.58815 7.32045 1.64083 7.28964 1.69819 7.26963L4.37443 6.32755L4.59991 8.234L3.47144 8.63122C3.38568 8.46523 3.26533 8.31821 3.11795 8.1994C2.97057 8.0806 2.79935 7.99259 2.61508 7.94091C2.43081 7.88922 2.23747 7.87499 2.04723 7.89911C1.85699 7.92322 1.67398 7.98516 1.5097 8.08103L1.42068 7.8444C1.39969 7.78912 1.39025 7.73036 1.39292 7.67152C1.39558 7.61268 1.4103 7.55494 1.43621 7.50164ZM2.22754 8.42604C2.41402 8.42628 2.59506 8.48679 2.74191 8.59795C2.88875 8.70912 2.99296 8.86455 3.03799 9.03957L3.03841 9.04133C3.07974 9.20448 3.06743 9.37603 3.0032 9.53209C2.93897 9.68815 2.82601 9.82096 2.68006 9.91201C2.5341 10.0031 2.36242 10.0478 2.18892 10.0401C2.01543 10.0323 1.84875 9.97241 1.71211 9.86872C1.57546 9.76504 1.47566 9.62272 1.42659 9.46159C1.37752 9.30047 1.38163 9.12855 1.43836 8.96979C1.49508 8.81103 1.60158 8.67333 1.74304 8.57586C1.88449 8.4784 2.05386 8.42603 2.22754 8.42604ZM1.39258 10.3095C1.59036 10.4533 1.82422 10.5434 2.07005 10.5706C2.31588 10.5978 2.56476 10.5611 2.79103 10.4643C3.01729 10.3675 3.21274 10.214 3.35721 10.0197C3.50168 9.82544 3.58994 9.59741 3.61287 9.35914H4.54901L4.1249 11.0818H1.39258V10.3095ZM1.39258 13.7734H5.04785V17.0034H1.39258V13.7734ZM17.6094 18.5287C17.6091 18.7428 17.5211 18.948 17.3645 19.0994C17.208 19.2508 16.9958 19.336 16.7744 19.3362H2.22754C2.00617 19.336 1.79394 19.2508 1.63741 19.0994C1.48087 18.948 1.39283 18.7428 1.39258 18.5287V17.5418H17.6094V18.5287ZM5.60449 17.0034V13.7734H9.22266V17.0034H5.60449ZM9.7793 17.0034V13.7734H13.3975V17.0034H9.7793ZM17.6094 17.0034H13.9541V13.7734H17.6094V17.0034ZM17.6094 13.2351H1.39258V11.6201H4.34373C4.34414 11.6201 4.34456 11.6202 4.34497 11.6202L4.34582 11.6201H7.12693C7.12734 11.6201 7.12776 11.6202 7.12817 11.6202L7.12902 11.6201H9.91013C9.91054 11.6201 9.91096 11.6202 9.91137 11.6202L9.91223 11.6201H12.6933C12.6937 11.6201 12.6942 11.6202 12.6946 11.6202L12.6954 11.6201H15.4765C15.4769 11.6201 15.4774 11.6202 15.4778 11.6202L15.4786 11.6201H17.6094V13.2351ZM17.6094 11.0818H15.8299L16.254 9.35914H16.7744C16.9958 9.35938 17.208 9.44453 17.3645 9.59592C17.5211 9.7473 17.6091 9.95255 17.6094 10.1666V11.0818Z" fill="white"/>
</svg>
