<svg width="198" height="185" viewBox="0 0 198 185" fill="none" xmlns="http://www.w3.org/2000/svg">
<path d="M1.07996 85.7399C1.07996 139.88 44.97 183.77 99.11 183.77C153.25 183.77 197.14 139.88 197.14 85.7399H190.05C190.05 135.97 149.33 176.68 99.11 176.68C48.89 176.68 8.16995 135.97 8.16995 85.7399C8.16995 60.6299 18.35 37.8899 34.81 21.4299L29.8 16.4199C12.06 34.1599 1.08995 58.6699 1.08995 85.7399" fill="white"/>
<path d="M130.24 54.61C113.05 37.42 85.18 37.42 67.99 54.61C50.8 71.8 50.8 99.67 67.99 116.86L72.98 111.87C58.55 97.44 58.55 74.04 72.98 59.61C87.41 45.18 110.81 45.18 125.24 59.61C132.46 66.83 136.06 76.28 136.06 85.74H143.12C143.12 74.48 138.82 63.21 130.23 54.62" fill="white"/>
<path d="M58.43 126.43C80.9 148.9 117.33 148.9 139.8 126.43C162.27 103.96 162.27 67.5301 139.8 45.0601L134.79 50.0701C154.49 69.7701 154.49 101.71 134.79 121.42C115.09 141.12 83.15 141.12 63.44 121.42C53.59 111.57 48.67 98.6601 48.67 85.7501H41.58C41.58 100.48 47.2 115.2 58.43 126.44" fill="white"/>
<path d="M170.13 85.74C170.13 46.52 138.33 14.73 99.11 14.73C59.89 14.73 28.1 46.53 28.1 85.74H35.17C35.17 50.42 63.8 21.8 99.11 21.8C134.42 21.8 163.06 50.43 163.06 85.74C163.06 103.4 155.91 119.39 144.33 130.96L149.33 135.96C162.18 123.11 170.13 105.36 170.13 85.74Z" fill="white"/>
<path d="M39.34 25.97C6.33002 58.98 6.33002 112.5 39.34 145.51C72.35 178.52 125.87 178.52 158.88 145.51L153.89 140.52C123.64 170.77 74.59 170.77 44.34 140.52C14.09 110.27 14.09 61.22 44.34 30.97C59.47 15.85 79.29 8.27997 99.12 8.27997V1.21997C77.49 1.21997 55.85 9.46997 39.35 25.98" fill="white"/>
</svg>
