<svg width="21" height="20" viewBox="0 0 21 20" fill="none" xmlns="http://www.w3.org/2000/svg">
<path d="M10.0152 8.24357C12.0598 8.24357 13.7173 9.90103 13.7173 11.9456C13.7173 13.9902 12.0598 15.6477 10.0152 15.6477C7.97063 15.6477 6.31317 13.9902 6.31317 11.9456C6.31317 9.90103 7.97063 8.24357 10.0152 8.24357ZM10.0152 9.63183C8.73735 9.63183 7.70144 10.6677 7.70144 11.9456C7.70144 13.2235 8.73735 14.2594 10.0152 14.2594C11.2931 14.2594 12.329 13.2235 12.329 11.9456C12.329 10.6677 11.2931 9.63183 10.0152 9.63183ZM10.0152 5C14.2851 5 17.971 7.91537 18.9937 12.0009C19.0868 12.3728 18.8608 12.7497 18.4889 12.8428C18.117 12.9359 17.7401 12.7099 17.647 12.338C16.778 8.86675 13.6445 6.38827 10.0152 6.38827C6.38437 6.38827 3.24982 8.86888 2.3824 12.3422C2.28951 12.7142 1.9127 12.9404 1.54076 12.8475C1.16882 12.7546 0.942609 12.3778 1.0355 12.0058C2.05642 7.91788 5.7435 5 10.0152 5Z" fill="white"/>
</svg>
