<svg width="18" height="18" viewBox="0 0 18 18" fill="none" xmlns="http://www.w3.org/2000/svg">
<path d="M4.88938 0.49477C4.69448 0.29914 4.3779 0.298543 4.18227 0.493437L0.9943 3.66942C0.79867 3.86431 0.798073 4.18089 0.992967 4.37652C1.18786 4.57215 1.50444 4.57275 1.70007 4.37785L4.53382 1.55476L7.35692 4.38851C7.55181 4.58414 7.86839 4.58474 8.06402 4.38985C8.25965 4.19495 8.26025 3.87837 8.06535 3.68274L4.88938 0.49477ZM13.1508 17.2175C13.3457 17.4131 13.6623 17.4137 13.8579 17.2188L17.0459 14.0428C17.2415 13.8479 17.2421 13.5313 17.0472 13.3357C16.8523 13.1401 16.5357 13.1395 16.3401 13.3344L13.5063 16.1575L10.6832 13.3237C10.4883 13.1281 10.1718 13.1275 9.97613 13.3224C9.7805 13.5173 9.7799 13.8339 9.9748 14.0295L13.1508 17.2175ZM4.50501 16.8476L5.00501 16.8486L5.03516 0.848598L4.53516 0.847656L4.03516 0.846714L4.00501 16.8467L4.50501 16.8476ZM13.5351 0.864613L13.0351 0.863671L13.005 16.8636L13.505 16.8646L14.005 16.8655L14.0351 0.865555L13.5351 0.864613Z" fill="#C4C4C4"/>
</svg>
