<svg width="20" height="21" viewBox="0 0 20 21" fill="none" xmlns="http://www.w3.org/2000/svg">
<path fill-rule="evenodd" clip-rule="evenodd" d="M3.20831 4.04102C3.20831 2.93639 4.10368 2.04102 5.20831 2.04102H10.625C10.8239 2.04102 11.0147 2.12003 11.1553 2.26069L16.572 7.67735C16.7126 7.818 16.7916 8.00877 16.7916 8.20768V16.9577C16.7916 18.0623 15.8963 18.9577 14.7916 18.9577H5.20831C4.10368 18.9577 3.20831 18.0623 3.20831 16.9577V4.04102ZM5.20831 3.54102C4.93211 3.54102 4.70831 3.76481 4.70831 4.04102V16.9577C4.70831 17.2339 4.93211 17.4577 5.20831 17.4577H14.7916C15.0678 17.4577 15.2916 17.2339 15.2916 16.9577V8.95768H11.875C10.7703 8.95768 9.87498 8.06231 9.87498 6.95768V3.54102H5.20831ZM11.375 4.60168L14.231 7.45768H11.875C11.5988 7.45768 11.375 7.23389 11.375 6.95768V4.60168ZM9.99998 10.3743C10.4142 10.3743 10.75 10.7101 10.75 11.1243V12.4577H12.0833C12.4975 12.4577 12.8333 12.7935 12.8333 13.2077C12.8333 13.6219 12.4975 13.9577 12.0833 13.9577H10.75V15.291C10.75 15.7052 10.4142 16.041 9.99998 16.041C9.58577 16.041 9.24998 15.7052 9.24998 15.291V13.9577H7.91665C7.50243 13.9577 7.16665 13.6219 7.16665 13.2077C7.16665 12.7935 7.50243 12.4577 7.91665 12.4577H9.24998V11.1243C9.24998 10.7101 9.58577 10.3743 9.99998 10.3743Z" fill="white"/>
</svg>
