<svg width="28" height="28" viewBox="0 0 31 31" fill="none" xmlns="http://www.w3.org/2000/svg">
<g clip-path="url(#clip0_2482_118948)">
<path d="M11.0501 24.0241C12.8064 24.0241 14.2301 22.6003 14.2301 20.8441C14.2301 19.0878 12.8064 17.6641 11.0501 17.6641C9.29385 17.6641 7.87012 19.0878 7.87012 20.8441C7.87012 22.6003 9.29385 24.0241 11.0501 24.0241Z" stroke="#003de4" stroke-width="1.5" stroke-miterlimit="10"/>
<path d="M14.2402 20.8444V6.52441C14.2402 6.52441 18.6202 7.59441 19.0102 11.2944C19.2802 13.8444 17.9602 14.5044 17.9602 14.5044" stroke="#003de4" stroke-width="1.5" stroke-linecap="round" stroke-linejoin="round"/>
<path d="M19.2999 18.6147C19.1399 18.5547 19.1399 18.2747 19.2999 18.2147L20.2699 17.8347C20.4799 17.7547 20.6799 17.6147 20.8299 17.4247C20.9799 17.2347 21.1099 17.0147 21.1799 16.7647L21.4999 15.6347C21.5499 15.4447 21.7899 15.4447 21.8399 15.6347L22.1599 16.7647C22.2299 17.0147 22.3499 17.2347 22.5099 17.4247C22.6699 17.6147 22.8599 17.7447 23.0799 17.8347L24.0499 18.2147C24.0499 18.2147 24.1199 18.2547 24.1399 18.2947C24.1599 18.3347 24.1699 18.3747 24.1699 18.4147C24.1699 18.4547 24.1599 18.5047 24.1399 18.5347C24.1199 18.5747 24.0899 18.5947 24.0499 18.6147L23.0799 18.9947C22.8699 19.0747 22.6699 19.2147 22.5199 19.4047C22.3599 19.5947 22.2399 19.8147 22.1699 20.0647L21.8499 21.1947C21.8499 21.1947 21.8199 21.2747 21.7799 21.2947C21.7499 21.3247 21.7099 21.3347 21.6699 21.3347C21.6299 21.3347 21.5899 21.3247 21.5599 21.2947C21.5299 21.2647 21.5099 21.2347 21.4899 21.1947L21.1699 20.0647C21.0999 19.8147 20.9799 19.5947 20.8199 19.4047C20.6599 19.2147 20.4699 19.0847 20.2599 18.9947L19.2899 18.6147H19.2999ZM16.7499 20.8747C16.7499 20.8747 16.7099 20.8547 16.6999 20.8247C16.6899 20.8047 16.6799 20.7747 16.6799 20.7547C16.6799 20.7347 16.6799 20.7047 16.6999 20.6847C16.7099 20.6647 16.7299 20.6447 16.7499 20.6347L17.3299 20.4047C17.5899 20.3047 17.7899 20.0647 17.8799 19.7647L18.0699 19.0847C18.0699 19.0847 18.0899 19.0347 18.1099 19.0247C18.1299 19.0047 18.1499 19.0047 18.1699 19.0047C18.1899 19.0047 18.2199 19.0047 18.2299 19.0247C18.2499 19.0447 18.2599 19.0647 18.2699 19.0847L18.4599 19.7647C18.4999 19.9147 18.5699 20.0447 18.6699 20.1647C18.7699 20.2747 18.8799 20.3547 19.0099 20.4047L19.5899 20.6347C19.5899 20.6347 19.6299 20.6547 19.6399 20.6847C19.6499 20.7047 19.6599 20.7347 19.6599 20.7547C19.6599 20.7747 19.6599 20.8047 19.6399 20.8247C19.6299 20.8447 19.6099 20.8647 19.5899 20.8747L19.0099 21.1047C18.8799 21.1547 18.7699 21.2347 18.6699 21.3447C18.5699 21.4547 18.4999 21.5947 18.4599 21.7447L18.2699 22.4247C18.2699 22.4247 18.2499 22.4747 18.2299 22.4847C18.2099 22.5047 18.1899 22.5047 18.1699 22.5047C18.1499 22.5047 18.1199 22.5047 18.1099 22.4847C18.0899 22.4647 18.0799 22.4447 18.0699 22.4247L17.8799 21.7447C17.8399 21.5947 17.7699 21.4647 17.6699 21.3447C17.5699 21.2347 17.4599 21.1547 17.3299 21.1047L16.7499 20.8747ZM16.2199 16.7447C16.2199 16.7447 16.1899 16.7247 16.1799 16.7147C16.1799 16.7047 16.1699 16.6847 16.1699 16.6647C16.1699 16.6447 16.1699 16.6347 16.1799 16.6147C16.1799 16.6047 16.1999 16.5847 16.2199 16.5847L16.6099 16.4347C16.7799 16.3647 16.9199 16.2047 16.9799 16.0047L17.1099 15.5547C17.1099 15.5547 17.1199 15.5247 17.1399 15.5147C17.1499 15.5047 17.1699 15.4947 17.1799 15.4947C17.1899 15.4947 17.2099 15.4947 17.2199 15.5147C17.2299 15.5247 17.2399 15.5347 17.2499 15.5547L17.3799 16.0047C17.4099 16.1047 17.4599 16.1947 17.5199 16.2647C17.5799 16.3347 17.6599 16.3947 17.7499 16.4247L18.1399 16.5747C18.1399 16.5747 18.1699 16.5947 18.1799 16.6047C18.1799 16.6147 18.1899 16.6347 18.1899 16.6547C18.1899 16.6747 18.1899 16.6847 18.1799 16.7047C18.1699 16.7247 18.1599 16.7347 18.1399 16.7347L17.7499 16.8847C17.6599 16.9147 17.5899 16.9747 17.5199 17.0447C17.4599 17.1147 17.4099 17.2047 17.3799 17.3047L17.2499 17.7547C17.2499 17.7547 17.2399 17.7847 17.2199 17.7947C17.2099 17.8047 17.1899 17.8147 17.1799 17.8147C17.1699 17.8147 17.1499 17.8147 17.1399 17.7947C17.1299 17.7847 17.1199 17.7747 17.1099 17.7547L16.9799 17.3047C16.9199 17.1047 16.7899 16.9447 16.6099 16.8747L16.2199 16.7247V16.7447Z" fill="#003de4"/>
</g>
<defs>
<clipPath id="clip0_2482_118948">
<rect width="30.21" height="30.21" fill="white" transform="translate(0.370117 0.394531)"/>
</clipPath>
</defs>
</svg>
