<svg width="31" height="32" viewBox="0 0 31 32" fill="none" xmlns="http://www.w3.org/2000/svg">
<g clip-path="url(#clip0_10898_84126)">
<path d="M11.0501 24.5241C12.8064 24.5241 14.2301 23.1003 14.2301 21.3441C14.2301 19.5878 12.8064 18.1641 11.0501 18.1641C9.29385 18.1641 7.87012 19.5878 7.87012 21.3441C7.87012 23.1003 9.29385 24.5241 11.0501 24.5241Z" stroke="white" stroke-width="0.75" stroke-miterlimit="10"/>
<path d="M14.2402 21.3444V7.02441C14.2402 7.02441 18.6202 8.09441 19.0102 11.7944C19.2802 14.3444 17.9602 15.0044 17.9602 15.0044" stroke="white" stroke-width="0.75" stroke-linecap="round" stroke-linejoin="round"/>
<path d="M19.2999 19.1147C19.1399 19.0547 19.1399 18.7747 19.2999 18.7147L20.2699 18.3347C20.4799 18.2547 20.6799 18.1147 20.8299 17.9247C20.9799 17.7347 21.1099 17.5147 21.1799 17.2647L21.4999 16.1347C21.5499 15.9447 21.7899 15.9447 21.8399 16.1347L22.1599 17.2647C22.2299 17.5147 22.3499 17.7347 22.5099 17.9247C22.6699 18.1147 22.8599 18.2447 23.0799 18.3347L24.0499 18.7147C24.0499 18.7147 24.1199 18.7547 24.1399 18.7947C24.1599 18.8347 24.1699 18.8747 24.1699 18.9147C24.1699 18.9547 24.1599 19.0047 24.1399 19.0347C24.1199 19.0747 24.0899 19.0947 24.0499 19.1147L23.0799 19.4947C22.8699 19.5747 22.6699 19.7147 22.5199 19.9047C22.3599 20.0947 22.2399 20.3147 22.1699 20.5647L21.8499 21.6947C21.8499 21.6947 21.8199 21.7747 21.7799 21.7947C21.7499 21.8247 21.7099 21.8347 21.6699 21.8347C21.6299 21.8347 21.5899 21.8247 21.5599 21.7947C21.5299 21.7647 21.5099 21.7347 21.4899 21.6947L21.1699 20.5647C21.0999 20.3147 20.9799 20.0947 20.8199 19.9047C20.6599 19.7147 20.4699 19.5847 20.2599 19.4947L19.2899 19.1147H19.2999ZM16.7499 21.3747C16.7499 21.3747 16.7099 21.3547 16.6999 21.3247C16.6899 21.3047 16.6799 21.2747 16.6799 21.2547C16.6799 21.2347 16.6799 21.2047 16.6999 21.1847C16.7099 21.1647 16.7299 21.1447 16.7499 21.1347L17.3299 20.9047C17.5899 20.8047 17.7899 20.5647 17.8799 20.2647L18.0699 19.5847C18.0699 19.5847 18.0899 19.5347 18.1099 19.5247C18.1299 19.5047 18.1499 19.5047 18.1699 19.5047C18.1899 19.5047 18.2199 19.5047 18.2299 19.5247C18.2499 19.5447 18.2599 19.5647 18.2699 19.5847L18.4599 20.2647C18.4999 20.4147 18.5699 20.5447 18.6699 20.6647C18.7699 20.7747 18.8799 20.8547 19.0099 20.9047L19.5899 21.1347C19.5899 21.1347 19.6299 21.1547 19.6399 21.1847C19.6499 21.2047 19.6599 21.2347 19.6599 21.2547C19.6599 21.2747 19.6599 21.3047 19.6399 21.3247C19.6299 21.3447 19.6099 21.3647 19.5899 21.3747L19.0099 21.6047C18.8799 21.6547 18.7699 21.7347 18.6699 21.8447C18.5699 21.9547 18.4999 22.0947 18.4599 22.2447L18.2699 22.9247C18.2699 22.9247 18.2499 22.9747 18.2299 22.9847C18.2099 23.0047 18.1899 23.0047 18.1699 23.0047C18.1499 23.0047 18.1199 23.0047 18.1099 22.9847C18.0899 22.9647 18.0799 22.9447 18.0699 22.9247L17.8799 22.2447C17.8399 22.0947 17.7699 21.9647 17.6699 21.8447C17.5699 21.7347 17.4599 21.6547 17.3299 21.6047L16.7499 21.3747ZM16.2199 17.2447C16.2199 17.2447 16.1899 17.2247 16.1799 17.2147C16.1799 17.2047 16.1699 17.1847 16.1699 17.1647C16.1699 17.1447 16.1699 17.1347 16.1799 17.1147C16.1799 17.1047 16.1999 17.0847 16.2199 17.0847L16.6099 16.9347C16.7799 16.8647 16.9199 16.7047 16.9799 16.5047L17.1099 16.0547C17.1099 16.0547 17.1199 16.0247 17.1399 16.0147C17.1499 16.0047 17.1699 15.9947 17.1799 15.9947C17.1899 15.9947 17.2099 15.9947 17.2199 16.0147C17.2299 16.0247 17.2399 16.0347 17.2499 16.0547L17.3799 16.5047C17.4099 16.6047 17.4599 16.6947 17.5199 16.7647C17.5799 16.8347 17.6599 16.8947 17.7499 16.9247L18.1399 17.0747C18.1399 17.0747 18.1699 17.0947 18.1799 17.1047C18.1799 17.1147 18.1899 17.1347 18.1899 17.1547C18.1899 17.1747 18.1899 17.1847 18.1799 17.2047C18.1699 17.2247 18.1599 17.2347 18.1399 17.2347L17.7499 17.3847C17.6599 17.4147 17.5899 17.4747 17.5199 17.5447C17.4599 17.6147 17.4099 17.7047 17.3799 17.8047L17.2499 18.2547C17.2499 18.2547 17.2399 18.2847 17.2199 18.2947C17.2099 18.3047 17.1899 18.3147 17.1799 18.3147C17.1699 18.3147 17.1499 18.3147 17.1399 18.2947C17.1299 18.2847 17.1199 18.2747 17.1099 18.2547L16.9799 17.8047C16.9199 17.6047 16.7899 17.4447 16.6099 17.3747L16.2199 17.2247V17.2447Z" fill="white"/>
</g>
<defs>
<clipPath id="clip0_10898_84126">
<rect width="30.21" height="30.21" fill="white" transform="translate(0.370117 0.894531)"/>
</clipPath>
</defs>
</svg>
