<svg width="65" height="65" viewBox="0 0 65 65" fill="none" xmlns="http://www.w3.org/2000/svg">
<g clip-path="url(#clip0_3523_56080)">
<path d="M32.4997 65.2423C50.5806 65.2423 65.238 50.5848 65.238 32.504C65.238 14.4231 50.5806 -0.234375 32.4997 -0.234375C14.4188 -0.234375 -0.238647 14.4231 -0.238647 32.504C-0.238647 50.5848 14.4188 65.2423 32.4997 65.2423Z" />
<path d="M37.466 15.1641L27.5344 15.1641C20.704 15.1641 15.1669 20.7012 15.1669 27.5316L15.1669 37.4632C15.1669 44.2936 20.704 49.8307 27.5344 49.8307L37.466 49.8307C44.2964 49.8307 49.8335 44.2936 49.8335 37.4632L49.8335 27.5316C49.8335 20.7012 44.2964 15.1641 37.466 15.1641Z" stroke="#FFA1B4" stroke-width="1.625" stroke-miterlimit="10"/>
<path d="M23.8324 40.6683L23.8324 29.6617C23.8324 27.6467 25.4791 26 27.4941 26C29.5091 26 31.1557 27.6467 31.1557 29.6617L31.1557 40.6683" stroke="#FFA1B4" stroke-width="2.16667" stroke-miterlimit="10"/>
<path d="M23.8324 34.5547L31.1557 34.5547" stroke="#FFA1B4" stroke-width="2.16667" stroke-miterlimit="10"/>
<path d="M34.8326 26L42.156 26" stroke="#FFA1B4" stroke-width="2.16667" stroke-miterlimit="10"/>
<path d="M34.8326 39.4531L42.156 39.4531" stroke="#FFA1B4" stroke-width="2.16667" stroke-miterlimit="10"/>
<path d="M38.4994 26L38.4994 39.455" stroke="#FFA1B4" stroke-width="2.16667" stroke-miterlimit="10"/>
<path d="M9.52808 32.4995C9.52808 32.0208 9.9161 31.6328 10.3947 31.6328L15.1614 31.6328L15.1614 33.3661L10.3947 33.3661C9.9161 33.3661 9.52808 32.9781 9.52808 32.4995Z" fill="#FFA1B4"/>
<path d="M9.52808 39.8667C9.52808 39.388 9.9161 39 10.3947 39L15.1614 39L15.1614 40.7333L10.3947 40.7333C9.9161 40.7333 9.52808 40.3453 9.52808 39.8667Z" fill="#FFA1B4"/>
<path d="M9.52808 24.7026C9.52808 24.224 9.9161 23.8359 10.3947 23.8359L15.1614 23.8359L15.1614 25.5693L10.3947 25.5693C9.9161 25.5693 9.52808 25.1813 9.52808 24.7026Z" fill="#FFA1B4"/>
<path d="M49.8336 31.6328L54.6003 31.6328C55.0789 31.6328 55.467 32.0208 55.467 32.4995C55.467 32.9781 55.0789 33.3661 54.6003 33.3661L49.8336 33.3661L49.8336 31.6328Z" fill="#FFA1B4"/>
<path d="M49.8336 39L54.6003 39C55.0789 39 55.467 39.388 55.467 39.8667C55.467 40.3453 55.0789 40.7333 54.6003 40.7333L49.8336 40.7333L49.8336 39Z" fill="#FFA1B4"/>
<path d="M49.8336 23.8359L54.6003 23.8359C55.0789 23.8359 55.467 24.224 55.467 24.7026C55.467 25.1813 55.0789 25.5693 54.6003 25.5693L49.8336 25.5693L49.8336 23.8359Z" fill="#FFA1B4"/>
<path d="M32.4934 9.53125C32.9721 9.53125 33.3601 9.91927 33.3601 10.3979L33.3601 15.1645L31.6268 15.1645L31.6268 10.3979C31.6268 9.91927 32.0148 9.53125 32.4934 9.53125Z" fill="#FFA1B4"/>
<path d="M25.1309 9.53125C25.6095 9.53125 25.9976 9.91927 25.9976 10.3979L25.9976 15.1645L24.2642 15.1645L24.2642 10.3979C24.2642 9.91927 24.6522 9.53125 25.1309 9.53125Z" fill="#FFA1B4"/>
<path d="M40.2978 9.53125C40.7764 9.53125 41.1644 9.91927 41.1644 10.3979L41.1644 15.1645L39.4311 15.1645L39.4311 10.3979C39.4311 9.91927 39.8191 9.53125 40.2978 9.53125Z" fill="#FFA1B4"/>
<path d="M33.3601 49.8281L33.3601 54.5948C33.3601 55.0734 32.9721 55.4615 32.4934 55.4615C32.0148 55.4615 31.6268 55.0734 31.6268 54.5948L31.6268 49.8281L33.3601 49.8281Z" fill="#FFA1B4"/>
<path d="M25.9976 49.8281L25.9976 54.5948C25.9976 55.0734 25.6095 55.4615 25.1309 55.4615C24.6522 55.4615 24.2642 55.0734 24.2642 54.5948L24.2642 49.8281L25.9976 49.8281Z" fill="#FFA1B4"/>
<path d="M41.1644 49.8281L41.1644 54.5948C41.1644 55.0734 40.7764 55.4615 40.2978 55.4615C39.8191 55.4615 39.4311 55.0734 39.4311 54.5948L39.4311 49.8281L41.1644 49.8281Z" fill="#FFA1B4"/>
</g>
<defs>
<clipPath id="clip0_3523_56080">
<rect width="65" height="65" fill="white"/>
</clipPath>
</defs>
</svg>
