<svg width="31" height="31" viewBox="0 0 31 31" fill="none" xmlns="http://www.w3.org/2000/svg">
<g clip-path="url(#clip0_7798_99844)">
<path d="M15.369 30.6106C23.7141 30.6106 30.479 23.8456 30.479 15.5006C30.479 7.1556 23.7141 0.390625 15.369 0.390625C7.02401 0.390625 0.259033 7.1556 0.259033 15.5006C0.259033 23.8456 7.02401 30.6106 15.369 30.6106Z" fill="#222529"/>
<path d="M17.6609 7.5H13.0771C9.92463 7.5 7.36902 10.0556 7.36902 13.2081V17.7919C7.36902 20.9444 9.92463 23.5 13.0771 23.5H17.6609C20.8134 23.5 23.369 20.9444 23.369 17.7919V13.2081C23.369 10.0556 20.8134 7.5 17.6609 7.5Z" stroke="#DD8797" stroke-width="0.75" stroke-miterlimit="10"/>
<path d="M11.369 19.27V14.19C11.369 13.26 12.129 12.5 13.059 12.5C13.989 12.5 14.749 13.26 14.749 14.19V19.27" stroke="#DD8797" stroke-miterlimit="10"/>
<path d="M11.369 16.4492H14.749" stroke="#DD8797" stroke-miterlimit="10"/>
<path d="M16.449 12.5H19.829" stroke="#DD8797" stroke-miterlimit="10"/>
<path d="M16.449 18.7109H19.829" stroke="#DD8797" stroke-miterlimit="10"/>
<path d="M18.139 12.5V18.71" stroke="#DD8797" stroke-miterlimit="10"/>
<path d="M4.76904 15.4996C4.76904 15.2787 4.94813 15.0996 5.16904 15.0996H7.36904V15.8996H5.16904C4.94813 15.8996 4.76904 15.7205 4.76904 15.4996Z" fill="#DD8797"/>
<path d="M4.76904 18.9C4.76904 18.6791 4.94813 18.5 5.16904 18.5H7.36904V19.3H5.16904C4.94813 19.3 4.76904 19.1209 4.76904 18.9Z" fill="#DD8797"/>
<path d="M4.76904 11.9C4.76904 11.6791 4.94813 11.5 5.16904 11.5H7.36904V12.3H5.16904C4.94813 12.3 4.76904 12.1209 4.76904 11.9Z" fill="#DD8797"/>
<path d="M23.369 15.0996H25.569C25.7899 15.0996 25.969 15.2787 25.969 15.4996C25.969 15.7205 25.7899 15.8996 25.569 15.8996H23.369V15.0996Z" fill="#DD8797"/>
<path d="M23.369 18.5H25.569C25.7899 18.5 25.969 18.6791 25.969 18.9C25.969 19.1209 25.7899 19.3 25.569 19.3H23.369V18.5Z" fill="#DD8797"/>
<path d="M23.369 11.5H25.569C25.7899 11.5 25.969 11.6791 25.969 11.9C25.969 12.1209 25.7899 12.3 25.569 12.3H23.369V11.5Z" fill="#DD8797"/>
<path d="M15.3689 4.90039C15.5898 4.90039 15.7689 5.07948 15.7689 5.30039L15.7689 7.50037L14.9689 7.50037L14.9689 5.30039C14.9689 5.07948 15.148 4.90039 15.3689 4.90039Z" fill="#DD8797"/>
<path d="M11.969 4.90039C12.1899 4.90039 12.369 5.07948 12.369 5.30039L12.369 7.50037L11.569 7.50037L11.569 5.30039C11.569 5.07948 11.7481 4.90039 11.969 4.90039Z" fill="#DD8797"/>
<path d="M18.969 4.90039C19.1899 4.90039 19.369 5.07948 19.369 5.30039L19.369 7.50037L18.569 7.50037L18.569 5.30039C18.569 5.07948 18.7481 4.90039 18.969 4.90039Z" fill="#DD8797"/>
<path d="M15.769 23.5L15.769 25.7C15.769 25.9209 15.59 26.1 15.369 26.1C15.1481 26.1 14.969 25.9209 14.969 25.7L14.969 23.5L15.769 23.5Z" fill="#DD8797"/>
<path d="M12.369 23.5L12.369 25.7C12.369 25.9209 12.1899 26.1 11.969 26.1C11.7481 26.1 11.569 25.9209 11.569 25.7L11.569 23.5L12.369 23.5Z" fill="#DD8797"/>
<path d="M19.369 23.5L19.369 25.7C19.369 25.9209 19.1899 26.1 18.969 26.1C18.7481 26.1 18.569 25.9209 18.569 25.7L18.569 23.5L19.369 23.5Z" fill="#DD8797"/>
</g>
<defs>
<clipPath id="clip0_7798_99844">
<rect width="30" height="30" fill="white" transform="translate(0.369019 0.5)"/>
</clipPath>
</defs>
</svg>
