<svg width="14" height="8" viewBox="0 0 14 8" fill="none" xmlns="http://www.w3.org/2000/svg">
<path id="Vector" fill-rule="evenodd" clip-rule="evenodd" d="M13.7955 0.324807C13.9268 0.46623 14 0.653819 14 0.848852C14 1.04388 13.9268 1.23147 13.7955 1.3729L8.01067 7.50323C7.88315 7.64045 7.72968 7.74972 7.55958 7.82439C7.38949 7.89905 7.20632 7.93755 7.02122 7.93755C6.83611 7.93755 6.65295 7.89905 6.48285 7.82439C6.31275 7.74972 6.15928 7.64045 6.03177 7.50323L0.204265 1.32851C-0.0652354 1.04215 -0.0687354 0.578239 0.197264 0.28758C0.260636 0.21721 0.337476 0.160914 0.423012 0.122188C0.508548 0.0834619 0.600955 0.0631319 0.694495 0.062461C0.788035 0.0617896 0.880712 0.0807906 0.966771 0.118285C1.05283 0.15578 1.13043 0.210967 1.19477 0.280421L6.52667 5.93109C6.59043 5.99976 6.66718 6.05444 6.75227 6.09181C6.83735 6.12917 6.92897 6.14844 7.02157 6.14844C7.11416 6.14844 7.20579 6.12917 7.29087 6.09181C7.37595 6.05444 7.4527 5.99976 7.51647 5.93109L12.8064 0.325522C12.8701 0.256874 12.9468 0.202206 13.0318 0.164848C13.1168 0.12749 13.2084 0.108224 13.3009 0.108224C13.3935 0.108224 13.485 0.12749 13.57 0.164848C13.6551 0.202206 13.7318 0.256158 13.7955 0.324807Z" fill="white"/>
</svg>
