<svg width="8" height="15" viewBox="0 0 8 15" fill="none" xmlns="http://www.w3.org/2000/svg">
<path d="M7.69062 12.7032C7.88882 12.9012 8 13.1686 8 13.4472C8 13.7259 7.88882 13.9933 7.69062 14.1913C7.59329 14.2891 7.47728 14.3667 7.34934 14.4197C7.2214 14.4727 7.08408 14.5 6.94537 14.5C6.80667 14.5 6.66935 14.4727 6.5414 14.4197C6.41346 14.3667 6.29745 14.2891 6.20012 14.1913L0.308891 8.24483C0.110968 8.04637 -3.18166e-07 7.77879 -3.0598e-07 7.5C-2.93793e-07 7.22121 0.110968 6.95363 0.308891 6.75517L6.20012 0.80868C6.29745 0.710916 6.41346 0.633278 6.5414 0.580284C6.66935 0.527291 6.80667 0.5 6.94537 0.5C7.08408 0.5 7.2214 0.527291 7.34934 0.580284C7.47728 0.633278 7.59329 0.710916 7.69062 0.80868C7.88882 1.00669 8 1.27409 8 1.55275C8 1.83141 7.88882 2.09881 7.69062 2.29682L2.85919 7.50228L7.69062 12.7032Z" fill="var(--color-white)"/>
</svg>
