<svg width="31" height="31" viewBox="0 0 31 31" fill="none" xmlns="http://www.w3.org/2000/svg">
<g clip-path="url(#clip0_7798_99722)">
<path d="M15.369 30.6106C23.7141 30.6106 30.479 23.8456 30.479 15.5006C30.479 7.1556 23.7141 0.390625 15.369 0.390625C7.02401 0.390625 0.259033 7.1556 0.259033 15.5006C0.259033 23.8456 7.02401 30.6106 15.369 30.6106Z" fill="#222529"/>
<path d="M18.889 9.34938C18.329 8.86938 17.679 8.49937 16.979 8.24937C16.289 8.00937 15.559 7.87937 14.819 7.87937C13.999 7.87937 13.189 8.02937 12.419 8.32937C11.649 8.62937 10.949 9.08938 10.369 9.66937L10.299 9.73937C9.03896 10.9994 8.32896 12.7094 8.32896 14.4894C8.32896 16.2694 9.03896 17.9794 10.299 19.2394L12.039 20.9794C12.359 21.2994 12.799 21.4794 13.259 21.4794C13.719 21.4794 14.159 21.2994 14.479 20.9794C14.799 20.6494 14.979 20.2194 14.979 19.7594C14.979 19.2994 14.799 18.8694 14.479 18.5394L12.719 16.7794C12.109 16.1694 11.769 15.3494 11.769 14.4894C11.769 13.6294 12.109 12.8094 12.719 12.1994C13.329 11.5894 14.149 11.2494 15.019 11.2494C15.889 11.2494 16.699 11.5894 17.309 12.1994L19.189 14.0794C20.689 15.5894 21.539 17.6294 21.539 19.7594C21.539 20.5794 21.419 21.3994 21.169 22.1794C21.109 22.3694 20.979 22.5294 20.799 22.6294C20.619 22.7194 20.409 22.7394 20.219 22.6794C20.029 22.6194 19.869 22.4894 19.779 22.3094C19.689 22.1294 19.669 21.9194 19.729 21.7294C19.929 21.0994 20.029 20.4294 20.029 19.7694C20.029 18.0394 19.339 16.3794 18.119 15.1594L16.239 13.2794C15.919 12.9594 15.479 12.7794 15.019 12.7794C14.559 12.7794 14.119 12.9594 13.799 13.2794C13.479 13.6094 13.299 14.0394 13.299 14.4994C13.299 14.9594 13.479 15.3894 13.799 15.7094L15.559 17.4694C16.169 18.0794 16.509 18.9094 16.509 19.7694C16.509 20.6294 16.169 21.4594 15.559 22.0694C14.949 22.6794 14.129 23.0194 13.259 23.0194C12.389 23.0194 11.569 22.6794 10.959 22.0694L9.21896 20.3294C7.66896 18.7894 6.80896 16.6894 6.80896 14.4994C6.80896 12.3094 7.67896 10.2194 9.21896 8.66937L9.28896 8.59938C10.019 7.86938 10.899 7.29937 11.859 6.91937C12.799 6.54937 13.799 6.35938 14.819 6.35938C15.719 6.35938 16.629 6.50937 17.479 6.80937C18.349 7.11937 19.159 7.57937 19.869 8.18937L20.869 9.04938C21.029 9.17938 21.119 9.36937 21.129 9.56937C21.149 9.76937 21.079 9.96937 20.949 10.1194C20.819 10.2694 20.629 10.3694 20.429 10.3794C20.229 10.3994 20.029 10.3294 19.879 10.1994L18.879 9.33938L18.889 9.34938Z" fill="#DD8797"/>
<path d="M21.5289 15.7788C21.0589 14.8388 20.4289 13.9788 19.6789 13.2388L17.9189 11.5088C17.1389 10.7388 16.089 10.3088 14.999 10.3088C13.9089 10.3088 12.8489 10.7388 12.0689 11.5188C11.2789 12.3088 10.8289 13.3888 10.8289 14.5088C10.8289 15.6288 11.2689 16.7088 12.0689 17.5088L13.8089 19.2488C13.9489 19.3888 14.0289 19.5788 14.0289 19.7888C14.0289 19.9988 13.9489 20.1888 13.8089 20.3288C13.6689 20.4688 13.4789 20.5488 13.2689 20.5488C13.0589 20.5488 12.8689 20.4688 12.7289 20.3288L10.9889 18.5888C9.90895 17.5088 9.29895 16.0488 9.29895 14.5188C9.29895 12.9888 9.90895 11.5288 10.9889 10.4488C12.0589 9.38883 13.499 8.79883 14.999 8.79883C16.499 8.79883 17.929 9.38883 18.989 10.4288L20.7489 12.1688C21.6189 13.0288 22.349 14.0188 22.889 15.1088C23.409 16.1488 23.749 17.2688 23.909 18.4288C23.939 18.6288 23.8789 18.8288 23.7589 18.9888C23.6389 19.1488 23.4589 19.2588 23.2489 19.2888C23.0489 19.3088 22.8489 19.2588 22.6889 19.1388C22.5289 19.0188 22.429 18.8388 22.399 18.6288C22.269 17.6388 21.9689 16.6788 21.5289 15.7888V15.7788Z" fill="#DD8797"/>
<path d="M16.3089 22.6802C17.0589 21.9202 17.4889 20.8902 17.4889 19.8202C17.4889 18.6802 17.0289 17.5902 16.2189 16.7802L14.4789 15.0402C14.3389 14.9002 14.2589 14.7002 14.2589 14.5002C14.2589 14.3002 14.3389 14.1002 14.4789 13.9602C14.6189 13.8202 14.8089 13.7402 15.0189 13.7402C15.2289 13.7402 15.4089 13.8202 15.5589 13.9602L17.2989 15.7002C18.3889 16.7902 19.0089 18.2702 19.0089 19.8102C19.0089 21.2802 18.4289 22.7002 17.3889 23.7502C17.1089 24.0402 16.7889 24.2902 16.4489 24.5102C16.2789 24.6202 16.0689 24.6502 15.8789 24.6102C15.6789 24.5602 15.5089 24.4502 15.3989 24.2702C15.2889 24.1002 15.2589 23.9002 15.2989 23.7002C15.3389 23.5002 15.4589 23.3302 15.6289 23.2302C15.8789 23.0702 16.0989 22.8902 16.3089 22.6902V22.6802Z" fill="#DD8797"/>
</g>
<defs>
<clipPath id="clip0_7798_99722">
<rect width="30" height="30" fill="white" transform="translate(0.369019 0.5)"/>
</clipPath>
</defs>
</svg>
