<svg width="38" height="40" viewBox="0 0 38 40" fill="none" xmlns="http://www.w3.org/2000/svg">
<path d="M26.1733 6.47833C24.96 5.43833 23.5517 4.63667 22.035 4.095C20.54 3.575 18.9583 3.29333 17.355 3.29333C15.5783 3.29333 13.8233 3.61833 12.155 4.26833C10.4867 4.91833 8.97 5.915 7.71333 7.17167L7.56167 7.32333C4.83167 10.0533 3.29333 13.7583 3.29333 17.615C3.29333 21.4717 4.83167 25.1767 7.56167 27.9067L11.3317 31.6767C12.025 32.37 12.9783 32.76 13.975 32.76C14.9717 32.76 15.925 32.37 16.6183 31.6767C17.3117 30.9617 17.7017 30.03 17.7017 29.0333C17.7017 28.0367 17.3117 27.105 16.6183 26.39L12.805 22.5767C11.4833 21.255 10.7467 19.4783 10.7467 17.615C10.7467 15.7517 11.4833 13.975 12.805 12.6533C14.1267 11.3317 15.9033 10.595 17.7883 10.595C19.6733 10.595 21.4283 11.3317 22.75 12.6533L26.8233 16.7267C30.0733 19.9983 31.915 24.4183 31.915 29.0333C31.915 30.81 31.655 32.5867 31.1133 34.2767C30.9833 34.6883 30.7017 35.035 30.3117 35.2517C29.9217 35.4467 29.4667 35.49 29.055 35.36C28.6433 35.23 28.2967 34.9483 28.1017 34.5583C27.9067 34.1683 27.8633 33.7133 27.9933 33.3017C28.4267 31.9367 28.6433 30.485 28.6433 29.055C28.6433 25.3067 27.1483 21.71 24.505 19.0667L20.4317 14.9933C19.7383 14.3 18.785 13.91 17.7883 13.91C16.7917 13.91 15.8383 14.3 15.145 14.9933C14.4517 15.7083 14.0617 16.64 14.0617 17.6367C14.0617 18.6333 14.4517 19.565 15.145 20.2583L18.9583 24.0717C20.28 25.3933 21.0167 27.1917 21.0167 29.055C21.0167 30.9183 20.28 32.7167 18.9583 34.0383C17.6367 35.36 15.86 36.0967 13.975 36.0967C12.09 36.0967 10.3133 35.36 8.99167 34.0383L5.22167 30.2683C1.86333 26.9317 2.62189e-09 22.3817 2.06604e-09 17.6367C1.51019e-09 12.8917 1.885 8.36333 5.22167 5.005L5.37333 4.85333C6.955 3.27167 8.86167 2.03667 10.9417 1.21333C12.9783 0.411667 15.145 2.56232e-09 17.355 2.30343e-09C19.305 2.075e-09 21.2767 0.325 23.1183 0.975C25.0033 1.64667 26.7583 2.64333 28.2967 3.965L30.4633 5.82833C30.81 6.11 31.005 6.52167 31.0267 6.955C31.07 7.38833 30.9183 7.82167 30.6367 8.14667C30.355 8.47167 29.9433 8.68833 29.51 8.71C29.0767 8.75333 28.6433 8.60167 28.3183 8.32L26.1517 6.45667L26.1733 6.47833Z" fill="#FFA1B4"/>
<path d="M31.894 20.4124C30.8756 18.3757 29.5106 16.5124 27.8856 14.9091L24.0723 11.1607C22.3823 9.4924 20.1073 8.56073 17.7456 8.56073C15.384 8.56073 13.0873 9.4924 11.3973 11.1824C9.68563 12.8941 8.71063 15.2341 8.71063 17.6607C8.71063 20.0874 9.66396 22.4274 11.3973 24.1607L15.1673 27.9307C15.4706 28.2341 15.644 28.6457 15.644 29.1007C15.644 29.5557 15.4706 29.9674 15.1673 30.2707C14.864 30.5741 14.4523 30.7474 13.9973 30.7474C13.5423 30.7474 13.1306 30.5741 12.8273 30.2707L9.0573 26.5007C6.7173 24.1607 5.39563 20.9974 5.39563 17.6824C5.39563 14.3674 6.7173 11.2041 9.0573 8.86406C11.3756 6.5674 14.4956 5.28906 17.7456 5.28906C20.9956 5.28906 24.094 6.5674 26.3906 8.82073L30.204 12.5907C32.089 14.4541 33.6706 16.5991 34.8406 18.9607C35.9673 21.2141 36.704 23.6407 37.0506 26.1541C37.1156 26.5874 36.9856 27.0207 36.7256 27.3674C36.4656 27.7141 36.0756 27.9524 35.6206 28.0174C35.1873 28.0607 34.754 27.9524 34.4073 27.6924C34.0606 27.4324 33.844 27.0424 33.779 26.5874C33.4973 24.4424 32.8473 22.3624 31.894 20.4341L31.894 20.4124Z" fill="#FFA1B4"/>
<path d="M20.5839 35.3622C22.2089 33.7155 23.1405 31.4839 23.1405 29.1655C23.1405 26.6955 22.1439 24.3339 20.3889 22.5789L16.6189 18.8089C16.3155 18.5055 16.1422 18.0722 16.1422 17.6389C16.1422 17.2055 16.3155 16.7722 16.6189 16.4689C16.9222 16.1655 17.3339 15.9922 17.7889 15.9922C18.2439 15.9922 18.6339 16.1655 18.9589 16.4689L22.7289 20.2389C25.0905 22.6005 26.4339 25.8072 26.4339 29.1439C26.4339 32.3289 25.1772 35.4055 22.9239 37.6805C22.3172 38.3089 21.6239 38.8505 20.8872 39.3272C20.5189 39.5655 20.0639 39.6305 19.6522 39.5439C19.2189 39.4355 18.8505 39.1972 18.6122 38.8072C18.3739 38.4389 18.3089 38.0055 18.3955 37.5722C18.4822 37.1389 18.7422 36.7705 19.1105 36.5539C19.6522 36.2072 20.1289 35.8172 20.5839 35.3839L20.5839 35.3622Z" fill="#FFA1B4"/>
</svg>
