<svg width="21" height="20" viewBox="0 0 21 20" fill="none" xmlns="http://www.w3.org/2000/svg">
<path d="M8.37168 9.79167C8.36947 10.367 7.90131 10.8333 7.32602 10.8333C6.75073 10.8333 6.28615 10.367 6.28836 9.79167C6.29057 9.21638 6.75874 8.75001 7.33403 8.75001C7.90932 8.75001 8.3739 9.21638 8.37168 9.79167Z" fill="white"/>
<path d="M10.868 10.8333C11.4433 10.8333 11.9114 10.367 11.9137 9.79167C11.9159 9.21638 11.4513 8.75001 10.876 8.75001C10.3007 8.75001 9.83255 9.21638 9.83034 9.79167C9.82812 10.367 10.2927 10.8333 10.868 10.8333Z" fill="white"/>
<path d="M8.35727 13.5417C8.35506 14.117 7.8869 14.5833 7.3116 14.5833C6.73631 14.5833 6.27173 14.117 6.27395 13.5417C6.27616 12.9664 6.74432 12.5 7.31961 12.5C7.89491 12.5 8.35948 12.9664 8.35727 13.5417Z" fill="white"/>
<path d="M10.8536 14.5833C11.4289 14.5833 11.897 14.117 11.8992 13.5417C11.9015 12.9664 11.4369 12.5 10.8616 12.5C10.2863 12.5 9.81813 12.9664 9.81592 13.5417C9.81371 14.117 10.2783 14.5833 10.8536 14.5833Z" fill="white"/>
<path d="M15.4551 9.79167C15.4529 10.367 14.9848 10.8333 14.4095 10.8333C13.8342 10.8333 13.3696 10.367 13.3718 9.79167C13.374 9.21638 13.8422 8.75001 14.4175 8.75001C14.9928 8.75001 15.4574 9.21638 15.4551 9.79167Z" fill="white"/>
<path fill-rule="evenodd" clip-rule="evenodd" d="M3.2645 5.20834C3.27051 3.6437 4.54409 2.375 6.10871 2.375H15.692C17.2566 2.375 18.5204 3.6437 18.5144 5.20834L18.4776 14.7917C18.4716 16.3563 17.198 17.625 15.6334 17.625H6.05008C4.48546 17.625 3.22164 16.3563 3.22765 14.7917L3.2645 5.20834ZM6.10294 3.875C5.36674 3.875 4.76732 4.47213 4.76449 5.20834L4.76257 5.7085H17.0125L17.0144 5.20834C17.0173 4.47213 16.4224 3.875 15.6862 3.875H6.10294ZM4.72764 14.7917L4.7568 7.2085H17.0067L16.9776 14.7917C16.9747 15.5279 16.3753 16.125 15.6391 16.125H6.05584C5.31965 16.125 4.72481 15.5279 4.72764 14.7917Z" fill="white"/>
</svg>
