<svg id="chat" xmlns="http://www.w3.org/2000/svg" width="27.13" height="26" viewBox="0 0 27.13 26">
  <g id="chat-2" data-name="chat" transform="translate(-20.5 -5)">
    <g id="Ellipse_42" data-name="Ellipse 42" transform="translate(20.5 5)" fill="none"  stroke-width="3">
      <circle cx="13" cy="13" r="13" stroke="none"/>
      <circle cx="13" cy="13" r="11" fill="none"/>
    </g>
    <g id="Path_96" data-name="Path 96" transform="translate(37.168 18.578) rotate(17)" >
      <path d="M 9.436115264892578 7.291059970855713 L 6.566721439361572 7.291059970855713 L 6.628345012664795 7.210760116577148 L 6.707545280456543 6.989280223846436 L 7.823589324951172 3.868357181549072 L 9.832785606384277 6.486680030822754 C 9.997475624084473 6.701300144195557 9.935905456542969 6.908060073852539 9.884554862976074 7.012200355529785 C 9.833195686340332 7.116350173950195 9.706645011901855 7.291059970855713 9.436115264892578 7.291059970855713 Z" stroke="none"/>
      <path d="M 7.745075702667236 1.632748603820801 C 7.910580635070801 1.632748603820801 8.096534729003906 1.760103225708008 8.332585334777832 2.06771993637085 L 11.02279472351074 5.57351016998291 C 12.03230476379395 6.8890700340271 11.09437561035156 8.791060447692871 9.436115264892578 8.791060447692871 L 4.055705070495605 8.791060447692871 C 2.397445678710938 8.791060447692871 4.285625457763672 7.799770355224609 5.295135498046875 6.484200477600098 L 6.506275177001953 3.097350120544434 C 7.070781230926514 2.361706733703613 7.349281311035156 1.632748603820801 7.745075702667236 1.632748603820801 Z" stroke="none" />
    </g>
    <g id="Group_534" data-name="Group 534" transform="translate(-1824.281 -306.5)">
      <path id="Line_35" data-name="Line 35" d="M8.561,1H0A1,1,0,0,1-1,0,1,1,0,0,1,0-1H8.561a1,1,0,0,1,1,1A1,1,0,0,1,8.561,1Z" transform="translate(1853.5 320.5)" />
      <path id="Line_36" data-name="Line 36" d="M8.561,1H0A1,1,0,0,1-1,0,1,1,0,0,1,0-1H8.561a1,1,0,0,1,1,1A1,1,0,0,1,8.561,1Z" transform="translate(1853.5 324.383)" />
      <path id="Line_37" data-name="Line 37" d="M6,1H0A1,1,0,0,1-1,0,1,1,0,0,1,0-1H6A1,1,0,0,1,7,0,1,1,0,0,1,6,1Z" transform="translate(1853.5 328.5)" />
    </g>
  </g>
</svg>
