<svg width="30" height="30" viewBox="0 0 30 30" fill="none" xmlns="http://www.w3.org/2000/svg">
<path d="M15 6C10.0374 6 6 10.0374 6 15C6 19.9626 10.0374 24 15 24C19.9626 24 24 19.9626 24 15C24 10.0374 19.9626 6 15 6ZM15 14.5C16.3784 14.5 17.5 15.6216 17.5 17C17.5 18.2072 16.6396 19.2171 15.5 19.4495V20.5H14.5V19.4495C13.3604 19.2171 12.5 18.2072 12.5 17H13.5C13.5 17.8271 14.1729 18.5 15 18.5C15.8271 18.5 16.5 17.8271 16.5 17C16.5 16.1729 15.8271 15.5 15 15.5C13.6216 15.5 12.5 14.3784 12.5 13C12.5 11.7928 13.3604 10.7829 14.5 10.5505V9.5H15.5V10.5505C16.6396 10.7829 17.5 11.7928 17.5 13H16.5C16.5 12.1729 15.8271 11.5 15 11.5C14.1729 11.5 13.5 12.1729 13.5 13C13.5 13.8271 14.1729 14.5 15 14.5Z" fill="var(--color-white)"/>
<path d="M15 3C8.38501 3 3 8.38498 3 15C3 21.615 8.38501 27 15 27C21.615 27 27 21.615 27 15C27 8.38498 21.615 3 15 3ZM15 25C9.48608 25 5 20.5139 5 15C5 9.48608 9.48608 5 15 5C20.5139 5 25 9.48608 25 15C25 20.5139 20.5139 25 15 25Z" fill="var(--color-white)"/>
</svg>
