<svg width="13" height="12" viewBox="0 0 13 12" fill="none" xmlns="http://www.w3.org/2000/svg">
<path d="M5.01087 5.99996L0.207108 10.7949C-0.069095 11.0706 -0.0689768 11.5175 0.207108 11.7932C0.483311 12.0689 0.931067 12.0689 1.20726 11.7932L6.01103 6.99827L10.8148 11.7932C11.091 12.0689 11.5388 12.0689 11.8149 11.7932C12.0911 11.5175 12.0911 11.0706 11.8149 10.7949L7.01118 5.99996L11.8149 1.205C12.091 0.929307 12.091 0.482371 11.8149 0.206684C11.5387 -0.0688944 11.091 -0.0688944 10.8148 0.206684L6.01103 5.00164L1.20726 0.206684C0.931058 -0.0688944 0.483302 -0.0688944 0.207108 0.206684C-0.0689768 0.48238 -0.0689768 0.929316 0.207108 1.205L5.01087 5.99996Z" fill="#EA8A82"/>
</svg>
