<svg width="51" height="36" viewBox="0 0 51 36" fill="none" xmlns="http://www.w3.org/2000/svg">
<path d="M45.9983 28.8594L4.54993 28.8594L4.54993 30.2027L45.9983 30.2027L45.9983 28.8594Z" fill="#FFA1B4"/>
<path d="M45.9983 4.9375L4.54993 4.9375L4.54993 6.28083L45.9983 6.28083L45.9983 4.9375Z" fill="#FFA1B4"/>
<path d="M45.9983 33.7969L4.54993 33.7969L4.54993 35.1402L45.9983 35.1402L45.9983 33.7969Z" fill="#FFA1B4"/>
<path d="M45.9983 1.11084e-09L4.54993 5.96629e-09L4.54993 1.34333L45.9983 1.34333L45.9983 1.11084e-09Z" fill="#FFA1B4"/>
<path d="M9.57661 29.5313L8.23328 29.5313L8.23328 34.4712L9.57661 34.4712L9.57661 29.5313Z" fill="#FFA1B4"/>
<path d="M16.1199 29.5313L14.7766 29.5313L14.7766 34.4712L16.1199 34.4712L16.1199 29.5313Z" fill="#FFA1B4"/>
<path d="M22.6633 29.5313L21.3199 29.5313L21.3199 34.4712L22.6633 34.4712L22.6633 29.5313Z" fill="#FFA1B4"/>
<path d="M29.2066 29.5313L27.8633 29.5313L27.8633 34.4712L29.2066 34.4712L29.2066 29.5313Z" fill="#FFA1B4"/>
<path d="M35.7717 29.5313L34.4283 29.5313L34.4283 34.4712L35.7717 34.4712L35.7717 29.5313Z" fill="#FFA1B4"/>
<path d="M42.315 29.5313L40.9717 29.5313L40.9717 34.4712L42.315 34.4712L42.315 29.5313Z" fill="#FFA1B4"/>
<path d="M9.57661 0.671875L8.23328 0.671875L8.23328 5.61187L9.57661 5.61187L9.57661 0.671875Z" fill="#FFA1B4"/>
<path d="M16.1199 0.671875L14.7766 0.671875L14.7766 5.61187L16.1199 5.61187L16.1199 0.671875Z" fill="#FFA1B4"/>
<path d="M22.6633 0.671875L21.3199 0.671875L21.3199 5.61187L22.6633 5.61187L22.6633 0.671875Z" fill="#FFA1B4"/>
<path d="M29.2066 0.671875L27.8633 0.671875L27.8633 5.61187L29.2066 5.61187L29.2066 0.671875Z" fill="#FFA1B4"/>
<path d="M35.7717 0.671875L34.4283 0.671875L34.4283 5.61187L35.7717 5.61187L35.7717 0.671875Z" fill="#FFA1B4"/>
<path d="M42.315 0.671875L40.9717 0.671875L40.9717 5.61187L42.315 5.61187L42.315 0.671875Z" fill="#FFA1B4"/>
<path d="M45.9983 26.9128L40.5383 26.9128C38.9567 26.9128 37.6783 25.8728 37.6783 24.5945L37.6783 10.5761C37.6783 9.29781 38.9567 8.25781 40.5383 8.25781L45.9983 8.25781L45.9983 9.60115L40.5383 9.60115C39.7367 9.60115 39.0217 10.0561 39.0217 10.5761L39.0217 24.5945C39.0217 25.1145 39.7367 25.5695 40.5383 25.5695L45.9983 25.5695L45.9983 26.9128Z" fill="#FFA1B4"/>
<path d="M9.98832 26.9128L4.52832 26.9128L4.52832 25.5695L9.98832 25.5695C10.79 25.5695 11.505 25.1145 11.505 24.5945L11.505 10.5761C11.505 10.0561 10.79 9.60115 9.98832 9.60115L4.52832 9.60115L4.52832 8.25781L9.98832 8.25781C11.57 8.25781 12.8483 9.29781 12.8483 10.5761L12.8483 24.5945C12.8483 25.8728 11.57 26.9128 9.98832 26.9128Z" fill="#FFA1B4"/>
<path d="M31.8067 26.9128L18.72 26.9128C17.1383 26.9128 15.86 25.8728 15.86 24.5945L15.86 10.5761C15.86 9.29781 17.1383 8.25781 18.72 8.25781L31.8067 8.25781C33.3883 8.25781 34.6667 9.29781 34.6667 10.5761L34.6667 24.5945C34.6667 25.8728 33.3883 26.9128 31.8067 26.9128ZM18.72 9.57948C17.9183 9.57948 17.2033 10.0345 17.2033 10.5545L17.2033 24.5728C17.2033 25.0928 17.9183 25.5478 18.72 25.5478L31.8067 25.5478C32.6083 25.5478 33.3233 25.0928 33.3233 24.5728L33.3233 10.5545C33.3233 10.0345 32.6083 9.57948 31.8067 9.57948L18.72 9.57948Z" fill="#FFA1B4"/>
<path d="M21.3633 23.6148C22.4683 23.6148 23.3783 22.7048 23.3783 21.5998L23.3783 17.4398L29.4233 15.7065L29.4233 18.8481C29.12 18.6748 28.795 18.5665 28.405 18.5665C27.3 18.5665 26.39 19.4765 26.39 20.5815C26.39 21.6865 27.3 22.5965 28.405 22.5965C29.51 22.5965 30.42 21.6865 30.42 20.5815L30.42 12.0231C30.42 11.8715 30.355 11.7198 30.225 11.6115C30.095 11.5248 29.9433 11.4815 29.7917 11.5248L22.7283 13.5398C22.5117 13.6048 22.36 13.7998 22.36 14.0165L22.36 19.8448C22.0567 19.6715 21.7317 19.5631 21.3417 19.5631C20.2367 19.5631 19.3267 20.4731 19.3267 21.5781C19.3267 22.6831 20.2367 23.5931 21.3417 23.5931L21.3633 23.6148ZM28.4267 21.5998C27.8633 21.5998 27.4083 21.1448 27.4083 20.5815C27.4083 20.0181 27.8633 19.5631 28.4267 19.5631C28.99 19.5631 29.445 20.0181 29.445 20.5815C29.445 21.1448 28.99 21.5998 28.4267 21.5998ZM29.4233 12.6948L29.4233 14.6665L23.3783 16.3998L23.3783 14.4281L29.4233 12.6948ZM21.3633 20.6031C21.9267 20.6031 22.3817 21.0581 22.3817 21.6215C22.3817 22.1848 21.9267 22.6398 21.3633 22.6398C20.8 22.6398 20.345 22.1848 20.345 21.6215C20.345 21.0581 20.8 20.6031 21.3633 20.6031Z" fill="#FFA1B4"/>
<path d="M45.4133 11.5078C45.0883 11.5078 44.8066 11.7895 44.8066 12.1145L44.8066 19.1128C44.4383 18.8961 44.0483 18.7661 43.5933 18.7661C42.25 18.7661 41.1666 19.8495 41.1666 21.1928C41.1666 22.5361 42.25 23.6195 43.5933 23.6195C44.9366 23.6195 46.02 22.5361 46.02 21.1928L46.02 12.7428C48.7283 12.9811 49.6816 14.7361 49.725 14.8011C49.8766 15.1045 50.245 15.2128 50.5483 15.0828C50.8516 14.9311 50.96 14.5628 50.83 14.2595C50.765 14.1511 49.4 11.5078 45.435 11.5078L45.4133 11.5078ZM43.5933 22.4278C42.9216 22.4278 42.38 21.8861 42.38 21.2145C42.38 20.5428 42.9216 20.0011 43.5933 20.0011C44.265 20.0011 44.8066 20.5428 44.8066 21.2145C44.8066 21.8861 44.265 22.4278 43.5933 22.4278Z" fill="#FFA1B4"/>
<path d="M4.24667 11.5078C3.92167 11.5078 3.64 11.7895 3.64 12.1145L3.64 19.1128C3.27167 18.8961 2.88167 18.7661 2.42667 18.7661C1.08333 18.7661 9.7718e-10 19.8495 1.13454e-09 21.1928C1.29191e-09 22.5361 1.08333 23.6195 2.42667 23.6195C3.77 23.6195 4.85333 22.5361 4.85333 21.1928L4.85333 12.7428C7.56167 12.9811 8.515 14.7361 8.55833 14.8011C8.71 15.1045 9.07833 15.2128 9.38167 15.0828C9.685 14.9311 9.79333 14.5628 9.66333 14.2595C9.59833 14.1511 8.23333 11.5078 4.26833 11.5078L4.24667 11.5078ZM2.42667 22.4278C1.755 22.4278 1.21333 21.8861 1.21333 21.2145C1.21333 20.5428 1.755 20.0011 2.42667 20.0011C3.09833 20.0011 3.64 20.5428 3.64 21.2145C3.64 21.8861 3.09833 22.4278 2.42667 22.4278Z" fill="#FFA1B4"/>
</svg>
