<svg width="29" height="29" viewBox="0 0 29 29" fill="none" xmlns="http://www.w3.org/2000/svg">
<g clip-path="url(#clip0_7632_179161)">
<path d="M21.5268 4.71387C17.336 4.71387 14.053 6.45354 14.053 8.67436V9.35303C13.1396 9.40723 12.2698 9.62606 11.473 9.98052C10.3232 9.6012 8.95532 9.38359 7.47356 9.38359C3.28279 9.38359 0 11.1232 0 13.3439V15.6565V18.0135V20.3263C0 22.5471 3.28279 24.2867 7.47365 24.2867C8.98019 24.2867 10.3693 24.0619 11.5309 23.6708C12.4416 24.0667 13.4457 24.2867 14.5004 24.2867C15.555 24.2867 16.5591 24.0667 17.4698 23.6708C18.6313 24.0619 20.0205 24.2867 21.5269 24.2867C25.7175 24.2867 29.0001 22.5471 29.0001 20.3263V18.0135V15.6565V13.3439V10.987V8.67436C29 6.45354 25.7174 4.71387 21.5268 4.71387ZM16.7582 6.5899C18.0244 5.95689 19.718 5.60821 21.5268 5.60821C23.3356 5.60821 25.0289 5.95689 26.295 6.5899C27.4458 7.16529 28.1057 7.92507 28.1057 8.67436C28.1057 9.4234 27.4458 10.1831 26.295 10.7585C25.0288 11.3917 23.3355 11.7403 21.5268 11.7403C20.9676 11.7403 20.4194 11.7069 19.8914 11.6421C18.6672 10.3663 16.9957 9.52286 15.1318 9.36612C15.0107 9.13826 14.9474 8.90578 14.9474 8.67427C14.9474 7.92498 15.6074 7.16529 16.7582 6.5899ZM14.5003 23.3923C13.8945 23.3923 13.3077 23.3096 12.7504 23.1557C12.3403 23.0424 11.9463 22.8903 11.5723 22.7037C11.0476 22.4418 10.5625 22.1119 10.1288 21.7255C9.85974 21.486 9.6106 21.2247 9.38389 20.9446C9.04698 20.5281 8.75973 20.0699 8.53139 19.5791C8.40041 19.2974 8.28876 19.0051 8.19815 18.7037C8.06269 18.253 7.97412 17.7822 7.93869 17.2968C7.92707 17.137 7.9209 16.9757 7.9209 16.8129C7.9209 16.675 7.92569 16.5381 7.93406 16.4023C8.08146 14.0201 9.50196 11.977 11.5221 10.9471C11.894 10.7575 12.2861 10.6022 12.6945 10.4855C13.1307 10.3608 13.5853 10.2805 14.0531 10.249C14.201 10.2391 14.35 10.2336 14.5004 10.2336C14.5456 10.2336 14.5907 10.2344 14.6358 10.2353C14.7403 10.2374 14.8442 10.2421 14.9475 10.2491C15.3931 10.2791 15.8267 10.3537 16.2439 10.4685C16.8764 10.6425 17.4712 10.9087 18.0126 11.2519C18.5502 11.5926 19.0352 12.0089 19.4525 12.4861C19.8524 12.9432 20.1901 13.456 20.4525 14.0111C20.5919 14.306 20.7099 14.6129 20.8048 14.9298C20.9458 15.4008 21.0351 15.8938 21.0667 16.4024C21.075 16.5383 21.0799 16.675 21.0799 16.813C21.0799 16.9759 21.0737 17.1372 21.062 17.297C21.0265 17.7824 20.938 18.2532 20.8025 18.7038C20.712 19.0053 20.6003 19.2977 20.4692 19.5793C20.2408 20.0701 19.9537 20.5283 19.6168 20.9447C19.3901 21.2248 19.1409 21.4862 18.8719 21.7257C18.4382 22.1121 17.9531 22.4419 17.4284 22.7038C17.0544 22.8905 16.6603 23.0426 16.2503 23.1559C15.6927 23.3097 15.106 23.3923 14.5003 23.3923ZM2.70512 11.2595C3.9713 10.6265 5.66482 10.2779 7.47365 10.2779C8.48938 10.2779 9.4688 10.3879 10.3566 10.5963C8.45696 11.8667 7.16941 13.9834 7.03793 16.4031C5.39422 16.3516 3.86923 16.0102 2.70528 15.4282C1.55449 14.8527 0.894419 14.093 0.894419 13.344C0.894338 12.5946 1.55441 11.8349 2.70512 11.2595ZM7.04265 17.298C7.07418 17.7865 7.15259 18.2624 7.27383 18.7212C5.54049 18.6965 3.92473 18.3506 2.7052 17.7409C1.55441 17.1654 0.894338 16.4057 0.894338 15.6566V15.2515C2.08397 16.4222 4.35281 17.2206 7.04265 17.298ZM7.47365 19.6171C7.5068 19.6171 7.53971 19.6166 7.5727 19.6165C7.77934 20.1251 8.04035 20.606 8.34856 21.0519C8.0609 21.0703 7.76886 21.0797 7.47365 21.0797C5.66498 21.0797 3.97146 20.7309 2.7052 20.0978C1.55441 19.5224 0.894338 18.7626 0.894338 18.0135V17.5641C2.14703 18.7969 4.59626 19.6171 7.47365 19.6171ZM7.47365 23.3923C5.66498 23.3923 3.97146 23.0437 2.7052 22.4104C1.55441 21.835 0.894338 21.0753 0.894338 20.3263V19.9211C2.14703 21.154 4.59626 21.9741 7.47365 21.9741C8.00654 21.9741 8.52457 21.9458 9.02309 21.8921C9.43435 22.3354 9.8985 22.7287 10.4056 23.062C9.5048 23.2781 8.50815 23.3923 7.47365 23.3923ZM28.1057 20.3263C28.1057 21.0754 27.4458 21.835 26.295 22.4104C25.0288 23.0437 23.3355 23.3923 21.5268 23.3923C20.4924 23.3923 19.4957 23.2781 18.595 23.062C19.102 22.7286 19.5661 22.3354 19.9776 21.8921C20.4761 21.9458 20.9941 21.9741 21.5268 21.9741C24.4041 21.9741 26.8531 21.154 28.1057 19.9211V20.3263ZM28.1057 18.0135C28.1057 18.7627 27.4458 19.5224 26.295 20.0978C25.0288 20.7309 23.3355 21.0797 21.5268 21.0797C21.2317 21.0797 20.9397 21.0703 20.652 21.0519C20.9602 20.606 21.2213 20.1251 21.4279 19.6165C21.4609 19.6166 21.4938 19.6171 21.5268 19.6171C24.4041 19.6171 26.8531 18.797 28.1057 17.5641V18.0135ZM28.1057 15.6565C28.1057 16.4058 27.4458 17.1654 26.295 17.7408C25.0756 18.3506 23.4599 18.6965 21.7268 18.7212C21.8481 18.2624 21.9265 17.7864 21.9579 17.2979C24.6474 17.2205 26.9162 16.4222 28.1057 15.2513V15.6565ZM28.1057 13.3439C28.1057 14.093 27.4458 14.8526 26.295 15.4281C25.1312 16.0101 23.6061 16.3516 21.9627 16.403C21.9356 15.9028 21.8593 15.4154 21.738 14.9458C24.5235 14.9068 26.8839 14.097 28.1057 12.8945V13.3439ZM28.1057 10.987C28.1057 11.7361 27.4458 12.4957 26.295 13.0712C25.0288 13.7044 23.3355 14.0531 21.5268 14.0531C21.4997 14.0531 21.4726 14.0527 21.4455 14.0526C21.2418 13.5418 20.9833 13.0587 20.6772 12.6103C20.9557 12.6262 21.239 12.6348 21.5268 12.6348C24.4041 12.6348 26.8531 11.8147 28.1057 10.5818V10.987Z" fill="white"/>
<path d="M17.4529 18.8172C17.4529 18.5207 17.3891 18.2363 17.2725 17.9729C16.9335 17.2074 16.147 16.6206 15.178 16.4307C15.1021 16.4158 15.0255 16.4027 14.9474 16.3928V15.6566V15.2514V13.344V13.2883C15.8679 13.4432 16.5585 14.0656 16.5585 14.8082C16.5585 15.0552 16.7587 15.2554 17.0056 15.2554C17.2526 15.2554 17.4528 15.0552 17.4528 14.8082C17.4528 14.6354 17.4309 14.4667 17.3897 14.3038C17.1389 13.3119 16.1643 12.5387 14.9474 12.3846V11.8017C14.9474 11.5547 14.7473 11.3545 14.5003 11.3545C14.3555 11.3545 14.2272 11.4236 14.1455 11.5303C14.139 11.5387 14.1328 11.5471 14.1269 11.5558C14.0804 11.6264 14.0531 11.7107 14.0531 11.8016V12.3845C13.9462 12.398 13.8413 12.4167 13.7384 12.4396C12.4785 12.7193 11.5479 13.675 11.5479 14.8082C11.5479 15.1071 11.6129 15.3936 11.7314 15.6587C11.8549 15.9347 12.037 16.1871 12.2646 16.406C12.5468 16.6777 12.8992 16.8974 13.2985 17.0458C13.5354 17.1338 13.7883 17.1972 14.0532 17.2307V17.564V18.0134V19.921V20.2546V20.3262V20.3358H14.0529C13.9252 20.3142 13.8017 20.2839 13.6842 20.2454C13.352 20.1363 13.0648 19.9632 12.8506 19.7464C12.5942 19.4869 12.4423 19.1651 12.4423 18.8169C12.4423 18.759 12.4308 18.7037 12.4107 18.6529C12.3452 18.4872 12.184 18.3698 11.995 18.3698C11.7481 18.3698 11.5479 18.57 11.5479 18.8169C11.5479 18.876 11.5513 18.9342 11.5563 18.9922C11.5941 19.4329 11.7719 19.8418 12.0543 20.1878C12.2546 20.4332 12.5074 20.6465 12.7986 20.8176C13.0871 20.9872 13.4132 21.1155 13.7652 21.1906C13.8594 21.2107 13.9556 21.2271 14.0532 21.2395V21.8237C14.0532 21.9369 14.0956 22.04 14.165 22.1188C14.247 22.2119 14.3666 22.2708 14.5005 22.2708C14.6342 22.2708 14.7539 22.2118 14.8358 22.1188C14.9052 22.04 14.9476 21.9369 14.9476 21.8237V21.2395C15.0453 21.2272 15.1414 21.2108 15.2357 21.1906C15.5876 21.1155 15.9138 20.9872 16.2024 20.8176C16.4936 20.6465 16.7464 20.4333 16.9466 20.1878C17.229 19.8418 17.4068 19.4329 17.4446 18.9923C17.4495 18.9347 17.4529 18.8763 17.4529 18.8172ZM13.8957 16.2962C13.6057 16.2286 13.3428 16.1138 13.1228 15.9637C12.8522 15.779 12.6466 15.541 12.5353 15.2717C12.4748 15.1252 12.4423 14.9696 12.4423 14.8084C12.4423 14.0663 13.132 13.4442 14.0518 13.2887C14.0523 13.2886 14.0527 13.2885 14.0532 13.2885V13.3441V15.2516V15.6568V16.3274C13.9999 16.3184 13.9474 16.3083 13.8957 16.2962ZM16.5585 18.8172C16.5585 19.1654 16.4065 19.4872 16.1502 19.7468C15.9359 19.9636 15.6488 20.1367 15.3167 20.2457C15.1989 20.2843 15.0756 20.3147 14.9478 20.3361C14.9478 20.3361 14.9477 20.3361 14.9475 20.3361V20.3265V20.2549V19.9213V18.0138V17.5643V17.2966C15.7901 17.4386 16.4393 17.9723 16.5434 18.6315C16.553 18.6924 16.5585 18.7544 16.5585 18.8172Z" fill="white"/>
</g>
<defs>
<clipPath id="clip0_7632_179161">
<rect width="29" height="29" fill="var(--color-white)"/>
</clipPath>
</defs>
</svg>
