<svg width="22" height="22" viewBox="0 0 22 22" fill="none" xmlns="http://www.w3.org/2000/svg">
<path d="M15.6665 6.49999C15.1142 6.49999 14.6665 6.94771 14.6665 7.49999C14.6665 8.05228 15.1142 8.49999 15.6665 8.49999V6.49999ZM6.33317 8.49999C6.88546 8.49999 7.33317 8.05228 7.33317 7.49999C7.33317 6.94771 6.88546 6.49999 6.33317 6.49999V8.49999ZM2.92423 20.0706L2.46325 20.958H2.46326L2.92423 20.0706ZM1.92921 19.0756L2.81662 18.6146L2.81662 18.6146L1.92921 19.0756ZM20.0705 19.0756L20.9579 19.5366V19.5366L20.0705 19.0756ZM19.0754 20.0706L19.5364 20.958H19.5364L19.0754 20.0706ZM20.0705 8.75772L20.9579 8.29674V8.29674L20.0705 8.75772ZM19.0754 7.76269L18.6145 8.65011L18.6145 8.65011L19.0754 7.76269ZM1.92921 8.75772L1.04179 8.29674L1.92921 8.75772ZM2.92423 7.76269L2.46326 6.87528L2.92423 7.76269ZM11.9998 1.66666C11.9998 1.11437 11.5521 0.666656 10.9998 0.666656C10.4476 0.666656 9.99984 1.11437 9.99984 1.66666H11.9998ZM10.9998 13.3333L10.2927 14.0404C10.6833 14.431 11.3164 14.431 11.7069 14.0404L10.9998 13.3333ZM8.79028 9.70955C8.39975 9.31903 7.76659 9.31903 7.37606 9.70955C6.98554 10.1001 6.98554 10.7332 7.37606 11.1238L8.79028 9.70955ZM14.6236 11.1238C15.0141 10.7332 15.0141 10.1001 14.6236 9.70955C14.2331 9.31903 13.5999 9.31903 13.2094 9.70955L14.6236 11.1238ZM19.3332 11.2567V16.5767H21.3332V11.2567H19.3332ZM16.5765 19.3333H5.42317V21.3333H16.5765V19.3333ZM2.6665 16.5767V11.2567H0.666504V16.5767H2.6665ZM15.6665 8.49999H16.5765V6.49999H15.6665V8.49999ZM5.42317 8.49999H6.33317V6.49999H5.42317V8.49999ZM5.42317 19.3333C4.74198 19.3333 4.29224 19.3325 3.9478 19.3039C3.61534 19.2763 3.47154 19.2281 3.3852 19.1832L2.46326 20.958C2.88265 21.1759 3.32391 21.259 3.78228 21.2971C4.22869 21.3341 4.77555 21.3333 5.42317 21.3333V19.3333ZM0.666504 16.5767C0.666504 17.2243 0.6657 17.7711 0.702772 18.2175C0.740838 18.6759 0.823937 19.1172 1.04179 19.5366L2.81662 18.6146C2.77177 18.5283 2.72352 18.3845 2.69591 18.052C2.66731 17.7076 2.6665 17.2578 2.6665 16.5767H0.666504ZM3.38521 19.1832C3.14168 19.0567 2.94312 18.8581 2.81662 18.6146L1.04179 19.5366C1.35804 20.1454 1.85445 20.6418 2.46325 20.958L3.38521 19.1832ZM19.3332 16.5767C19.3332 17.2578 19.3324 17.7076 19.3038 18.052C19.2762 18.3845 19.2279 18.5283 19.1831 18.6146L20.9579 19.5366C21.1757 19.1172 21.2588 18.6759 21.2969 18.2175C21.334 17.7711 21.3332 17.2243 21.3332 16.5767H19.3332ZM16.5765 21.3333C17.2241 21.3333 17.771 21.3341 18.2174 21.2971C18.6758 21.259 19.117 21.1759 19.5364 20.958L18.6145 19.1832C18.5281 19.2281 18.3843 19.2763 18.0519 19.3039C17.7074 19.3325 17.2577 19.3333 16.5765 19.3333V21.3333ZM19.1831 18.6146C19.0566 18.8581 18.858 19.0567 18.6145 19.1832L19.5364 20.958C20.1452 20.6418 20.6416 20.1454 20.9579 19.5366L19.1831 18.6146ZM21.3332 11.2567C21.3332 10.609 21.334 10.0622 21.2969 9.61577C21.2588 9.15739 21.1757 8.71613 20.9579 8.29674L19.1831 9.21869C19.2279 9.30502 19.2762 9.44883 19.3038 9.78129C19.3324 10.1257 19.3332 10.5755 19.3332 11.2567H21.3332ZM16.5765 8.49999C17.2577 8.49999 17.7074 8.50079 18.0519 8.5294C18.3843 8.55701 18.5281 8.60526 18.6145 8.65011L19.5364 6.87528C19.117 6.65742 18.6758 6.57432 18.2174 6.53626C17.771 6.49919 17.2241 6.49999 16.5765 6.49999V8.49999ZM20.9579 8.29674C20.6416 7.68793 20.1452 7.19153 19.5364 6.87528L18.6145 8.65011C18.858 8.77661 19.0566 8.97517 19.1831 9.21869L20.9579 8.29674ZM2.6665 11.2567C2.6665 10.5755 2.66731 10.1257 2.69591 9.78129C2.72352 9.44883 2.77177 9.30502 2.81662 9.21869L1.04179 8.29674C0.823937 8.71613 0.740838 9.15739 0.702772 9.61577C0.6657 10.0622 0.666504 10.609 0.666504 11.2567H2.6665ZM5.42317 6.49999C4.77555 6.49999 4.22869 6.49919 3.78228 6.53626C3.32391 6.57432 2.88265 6.65742 2.46326 6.87528L3.3852 8.65011C3.47154 8.60526 3.61534 8.55701 3.9478 8.5294C4.29224 8.50079 4.74198 8.49999 5.42317 8.49999V6.49999ZM2.81662 9.21869C2.94312 8.97517 3.14168 8.77661 3.3852 8.65011L2.46326 6.87528C1.85445 7.19153 1.35804 7.68793 1.04179 8.29674L2.81662 9.21869ZM9.99984 1.66666V13.3333H11.9998V1.66666H9.99984ZM11.7069 12.6262L8.79028 9.70955L7.37606 11.1238L10.2927 14.0404L11.7069 12.6262ZM11.7069 14.0404L14.6236 11.1238L13.2094 9.70955L10.2927 12.6262L11.7069 14.0404Z" stroke="transparent"/>
</svg>
