<svg width="21" height="21" viewBox="0 0 21 21" fill="none" xmlns="http://www.w3.org/2000/svg">
<path fill-rule="evenodd" clip-rule="evenodd" d="M3.625 13.2917C4.03921 13.2917 4.375 13.6275 4.375 14.0417V15.7083C4.375 16.2145 4.78546 16.625 5.29167 16.625H15.7083C16.2145 16.625 16.625 16.2145 16.625 15.7083V14.0417C16.625 13.6275 16.9608 13.2917 17.375 13.2917C17.7892 13.2917 18.125 13.6275 18.125 14.0417V15.7083C18.125 17.043 17.043 18.125 15.7083 18.125H5.29167C3.95704 18.125 2.875 17.043 2.875 15.7083V14.0417C2.875 13.6275 3.21079 13.2917 3.625 13.2917Z" fill="var(--color-white)"/>
<path fill-rule="evenodd" clip-rule="evenodd" d="M10.5 2.875C10.9142 2.875 11.25 3.21079 11.25 3.625V13.2083C11.25 13.6225 10.9142 13.9583 10.5 13.9583C10.0858 13.9583 9.75 13.6225 9.75 13.2083V3.625C9.75 3.21079 10.0858 2.875 10.5 2.875Z" fill="var(--color-white)"/>
<path fill-rule="evenodd" clip-rule="evenodd" d="M7.46967 11.0113C7.76256 10.7184 8.23744 10.7184 8.53033 11.0113L10.5 12.981L12.4697 11.0113C12.7626 10.7184 13.2374 10.7184 13.5303 11.0113C13.8232 11.3042 13.8232 11.7791 13.5303 12.072L11.0303 14.572C10.7374 14.8649 10.2626 14.8649 9.96967 14.572L7.46967 12.072C7.17678 11.7791 7.17678 11.3042 7.46967 11.0113Z" fill="var(--color-white)"/>
</svg>
