<svg width="21" height="21" viewBox="0 0 21 21" fill="none" xmlns="http://www.w3.org/2000/svg">
<path d="M20.7695 10.5003C20.7695 16.1721 16.1716 20.77 10.4998 20.77C4.82793 20.77 0.230015 16.1721 0.230016 10.5003C0.230016 4.82842 4.82793 0.230502 10.4998 0.230502C16.1716 0.230503 20.7695 4.82842 20.7695 10.5003ZM10.7806 15.5795C10.8658 15.5442 10.9457 15.4922 11.0154 15.4234L11.0188 15.42L14.6862 11.7525C14.9727 11.466 14.9727 11.0016 14.6862 10.7151C14.3998 10.4286 13.9353 10.4286 13.6488 10.7151L11.2333 13.1306L11.2333 6.09894C11.2333 5.69387 10.9049 5.36538 10.4998 5.36538C10.0946 5.36538 9.76622 5.69387 9.76622 6.09894L9.76622 13.1306L7.35077 10.7151C7.06425 10.4286 6.59976 10.4286 6.31323 10.7151C6.02685 11.0016 6.02685 11.466 6.31323 11.7525L9.98078 15.42L9.98419 15.4234C10.1167 15.5543 10.2988 15.6351 10.4998 15.6351C10.5992 15.6351 10.6941 15.6153 10.7806 15.5795Z" fill="#2E2E2E"/>
</svg>
