<svg width="45" height="42" viewBox="0 0 45 42" fill="none" xmlns="http://www.w3.org/2000/svg">
<path d="M36.9416 0.0752309C36.9416 0.0752309 36.7033 -0.0331018 36.5733 0.0102315L30.7233 1.7869C30.55 1.8519 30.4199 2.02523 30.4199 2.22023L30.4199 7.33357C30.1816 7.1819 29.9 7.09523 29.575 7.09523C28.6433 7.09523 27.9066 7.8969 27.9066 8.8719C27.9066 9.8469 28.665 10.6486 29.575 10.6486C30.485 10.6486 31.2433 9.8469 31.2433 8.8719L31.2433 5.21023L36.27 3.69356L36.27 6.44523C36.0316 6.29356 35.75 6.2069 35.425 6.2069C34.4933 6.2069 33.7566 7.00857 33.7566 7.98357C33.7566 8.95857 34.515 9.76023 35.425 9.76023C36.335 9.76023 37.0933 8.95857 37.0933 7.98357L37.0933 0.443564C37.0933 0.313564 37.0283 0.183565 36.9199 0.0968981L36.9416 0.0752309ZM29.575 9.73856C29.12 9.73856 28.73 9.34856 28.73 8.85023C28.73 8.3519 29.0983 7.9619 29.575 7.9619C30.0516 7.9619 30.4199 8.3519 30.4199 8.85023C30.4199 9.34856 30.0516 9.73856 29.575 9.73856ZM35.425 8.85023C34.97 8.85023 34.5799 8.46023 34.5799 7.9619C34.5799 7.46356 34.9483 7.07356 35.425 7.07356C35.9016 7.07356 36.27 7.46356 36.27 7.9619C36.27 8.46023 35.9016 8.85023 35.425 8.85023ZM36.27 2.74023L31.2433 4.2569L31.2433 2.52356L36.27 1.0069L36.27 2.74023Z" fill="#FFA1B4"/>
<path d="M23.5733 15.1999C23.8767 14.7882 24.05 14.2682 24.05 13.7266C24.05 12.2966 22.9017 11.1482 21.4717 11.1482L20.7133 11.1482L20.7133 2.35156L19.37 2.35156L19.37 11.1482L18.5467 11.1482C17.1167 11.1482 15.9683 12.2966 15.9683 13.7266C15.9683 14.2682 16.1417 14.7882 16.445 15.1999C10.7683 16.7599 6.58667 21.9599 6.58667 28.1349C6.58667 30.3666 7.12834 32.4682 8.10334 34.3316L8.10334 34.6132L8.255 34.6132C10.5517 38.7516 14.95 41.5682 19.9983 41.5682C27.4083 41.5682 33.41 35.5449 33.41 28.1566C33.41 22.0032 29.2283 16.7816 23.5517 15.2216L23.5733 15.1999ZM32.0667 27.4632L27.2133 27.4632C27.17 25.9032 26.9967 24.4082 26.6933 23.0432L30.9617 23.0432C31.59 24.4082 31.98 25.9032 32.0667 27.4632ZM30.225 21.6999L26.3467 21.6999C25.7183 19.5549 24.765 17.7782 23.595 16.5866C26.3683 17.4532 28.7083 19.2949 30.225 21.6999ZM24.9383 21.6999L20.6917 21.6999L20.6917 16.3049C22.4467 16.7382 24.0067 18.7966 24.9383 21.6999ZM20.67 28.8066L25.87 28.8066C25.8267 30.3882 25.61 31.9049 25.285 33.2699L20.67 33.2699L20.67 28.8066ZM20.67 27.4632L20.67 23.0432L25.3067 23.0432C25.6317 24.4082 25.8483 25.9032 25.8917 27.4632L20.6917 27.4632L20.67 27.4632ZM17.3117 13.7266C17.3117 13.0332 17.875 12.4916 18.5467 12.4916L21.4717 12.4916C22.165 12.4916 22.7067 13.0549 22.7067 13.7266C22.7067 14.2249 22.4033 14.6799 21.97 14.8749C21.3417 14.7882 20.67 14.7232 20.02 14.7232C19.37 14.7232 18.6983 14.7666 18.07 14.8749C17.6367 14.6799 17.3333 14.2466 17.3333 13.7266L17.3117 13.7266ZM16.4233 16.5866C15.2533 17.7782 14.3 19.5549 13.6717 21.6999L9.79334 21.6999C11.31 19.2949 13.65 17.4532 16.4233 16.5866ZM9.05667 23.0432L13.325 23.0432C13.0217 24.4082 12.8483 25.9032 12.805 27.4632L7.95167 27.4632C8.03834 25.8816 8.42834 24.3866 9.05667 23.0432ZM7.95167 28.8066L12.805 28.8066C12.8483 30.3882 13.0433 31.9049 13.3467 33.2699L9.1 33.2699C8.45 31.9049 8.06 30.3882 7.97334 28.8066L7.95167 28.8066ZM9.815 34.6132L13.6717 34.6132C14.3 36.7366 15.2533 38.4916 16.4017 39.6832C13.65 38.8166 11.31 36.9966 9.79334 34.6132L9.815 34.6132ZM19.3483 39.9432C17.5933 39.5316 16.055 37.4732 15.1017 34.5916L19.3483 34.5916L19.3483 39.9432ZM19.3483 33.2699L14.7333 33.2699C14.4083 31.9049 14.1917 30.3882 14.1483 28.8066L19.3483 28.8066L19.3483 33.2699ZM19.3483 27.4632L14.1483 27.4632C14.1917 25.9032 14.3867 24.4082 14.7333 23.0432L19.37 23.0432L19.37 27.4632L19.3483 27.4632ZM19.3483 21.6999L15.1017 21.6999C16.055 18.7966 17.5933 16.7382 19.3483 16.3049L19.3483 21.6999ZM20.67 39.9432L20.67 34.5916L24.9167 34.5916C23.9633 37.4732 22.425 39.5099 20.67 39.9432ZM23.595 39.6616C24.7433 38.4699 25.6967 36.7149 26.325 34.5916L30.1817 34.5916C28.665 36.9749 26.325 38.7949 23.5733 39.6616L23.595 39.6616ZM30.875 33.3999L30.875 33.2699L26.6933 33.2699C26.9967 31.8832 27.1917 30.3882 27.235 28.8066L32.0883 28.8066C32.0017 30.4532 31.5683 32.0132 30.8967 33.4216L30.875 33.3999Z" fill="#FFA1B4"/>
<path d="M4.18167 20.2721L3.01167 20.2721L3.01167 18.9071C3.01167 18.6038 2.77333 18.3438 2.44833 18.3438C2.12333 18.3438 1.885 18.5821 1.885 18.9071L1.885 20.2721L0.563333 20.2721C0.259999 20.2721 2.53813e-10 20.5104 2.91885e-10 20.8354C3.29957e-10 21.1604 0.238333 21.3987 0.563333 21.3987L1.885 21.3987L1.885 22.6771C1.885 22.9804 2.12333 23.2404 2.44833 23.2404C2.77333 23.2404 3.01167 23.0021 3.01167 22.6771L3.01167 21.3987L4.18167 21.3987C4.485 21.3987 4.745 21.1604 4.745 20.8354C4.745 20.5104 4.50667 20.2721 4.18167 20.2721Z" fill="#FFA1B4"/>
<path d="M42.2934 33.6158L41.1234 33.6158L41.1234 32.2508C41.1234 31.9475 40.885 31.6875 40.56 31.6875C40.235 31.6875 39.9967 31.9258 39.9967 32.2508L39.9967 33.6158L38.675 33.6158C38.3717 33.6158 38.1117 33.8542 38.1117 34.1792C38.1117 34.5042 38.35 34.7425 38.675 34.7425L39.9967 34.7425L39.9967 36.0208C39.9967 36.3242 40.235 36.5842 40.56 36.5842C40.885 36.5842 41.1234 36.3458 41.1234 36.0208L41.1234 34.7425L42.2934 34.7425C42.5967 34.7425 42.8567 34.5042 42.8567 34.1792C42.8567 33.8542 42.6184 33.6158 42.2934 33.6158Z" fill="#FFA1B4"/>
<path d="M4.78836 36.8424L3.61836 36.8424L3.61836 35.4774C3.61836 35.1741 3.38002 34.9141 3.05502 34.9141C2.73002 34.9141 2.49169 35.1524 2.49169 35.4774L2.49169 36.8424L1.17002 36.8424C0.86669 36.8424 0.606689 37.0807 0.606689 37.4057C0.606689 37.7307 0.845023 37.9691 1.17002 37.9691L2.49169 37.9691L2.49169 39.2474C2.49169 39.5507 2.73002 39.8107 3.05502 39.8107C3.38002 39.8107 3.61836 39.5724 3.61836 39.2474L3.61836 37.9691L4.78836 37.9691C5.09169 37.9691 5.35169 37.7307 5.35169 37.4057C5.35169 37.0807 5.11336 36.8424 4.78836 36.8424Z" fill="#FFA1B4"/>
<path d="M38.6967 23.1471L37.5267 23.1471L37.5267 21.7821C37.5267 21.4788 37.2883 21.2188 36.9633 21.2188C36.6383 21.2188 36.4 21.4571 36.4 21.7821L36.4 23.1471L35.0783 23.1471C34.775 23.1471 34.515 23.3854 34.515 23.7104C34.515 24.0354 34.7533 24.2737 35.0783 24.2737L36.4 24.2737L36.4 25.5521C36.4 25.8554 36.6383 26.1154 36.9633 26.1154C37.2883 26.1154 37.5267 25.8771 37.5267 25.5521L37.5267 24.2737L38.6967 24.2737C39 24.2737 39.26 24.0354 39.26 23.7104C39.26 23.3854 39.0217 23.1471 38.6967 23.1471Z" fill="#FFA1B4"/>
<path d="M40.43 9.17188C40.17 9.17188 39.9533 9.38854 39.9533 9.64854L39.9533 15.0435C39.6717 14.8919 39.3683 14.7835 39.0217 14.7835C37.9817 14.7835 37.1583 15.6285 37.1583 16.6469C37.1583 17.6652 38.0033 18.5102 39.0217 18.5102C40.04 18.5102 40.885 17.6652 40.885 16.6469L40.885 10.1252C42.9867 10.2985 43.7017 11.6635 43.745 11.7069C43.8533 11.9452 44.135 12.0319 44.3733 11.9235C44.6117 11.8152 44.6983 11.5335 44.59 11.2952C44.5467 11.2085 43.485 9.17188 40.43 9.17188ZM39.0433 17.5785C38.5233 17.5785 38.1117 17.1669 38.1117 16.6469C38.1117 16.1269 38.5233 15.7152 39.0433 15.7152C39.5633 15.7152 39.975 16.1269 39.975 16.6469C39.975 17.1669 39.5633 17.5785 39.0433 17.5785Z" fill="#FFA1B4"/>
</svg>
