<svg width="23" height="17" viewBox="0 0 23 17" fill="none" xmlns="http://www.w3.org/2000/svg">
<path d="M11.5 0.265747C6.27273 0.265747 1.80864 3.58308 0 8.26575C1.80864 12.9484 6.27273 16.2657 11.5 16.2657C16.7325 16.2657 21.1914 12.9484 23 8.26575C21.1914 3.58308 16.7325 0.265747 11.5 0.265747ZM11.5 13.5991C8.61454 13.5991 6.27273 11.2097 6.27273 8.26575C6.27273 5.32175 8.61454 2.93241 11.5 2.93241C14.3855 2.93241 16.7273 5.32175 16.7273 8.26575C16.7273 11.2097 14.3855 13.5991 11.5 13.5991ZM11.5 5.06575C9.76977 5.06575 8.36364 6.50041 8.36364 8.26575C8.36364 10.0311 9.76977 11.4657 11.5 11.4657C13.2302 11.4657 14.6364 10.0311 14.6364 8.26575C14.6364 6.50041 13.2302 5.06575 11.5 5.06575Z" fill="#757575"/>
</svg>
