<svg width="35" height="35" viewBox="0 0 35 35" fill="none" xmlns="http://www.w3.org/2000/svg">
<path fill-rule="evenodd" clip-rule="evenodd" d="M19.6761 7.07263C20.2284 5.3796 21.8201 4.15625 23.6976 4.15625C25.575 4.15625 27.1667 5.3796 27.719 7.07263H30.9892C31.7141 7.07263 32.3017 7.66026 32.3017 8.38513C32.3017 9.11001 31.7141 9.69763 30.9892 9.69763H27.7192C27.167 11.391 25.5752 12.6146 23.6976 12.6146C21.8199 12.6146 20.2281 11.391 19.6759 9.69763H4.00977C3.28489 9.69763 2.69727 9.11001 2.69727 8.38513C2.69727 7.66026 3.28489 7.07263 4.00977 7.07263H19.6761ZM23.6976 6.78125C22.8116 6.78125 22.0934 7.49946 22.0934 8.38542C22.0934 9.27137 22.8116 9.98958 23.6976 9.98958C24.5835 9.98958 25.3017 9.27137 25.3017 8.38542C25.3017 7.49946 24.5835 6.78125 23.6976 6.78125Z" fill="white"/>
<path fill-rule="evenodd" clip-rule="evenodd" d="M18.2172 25.3024C18.7693 23.6089 20.3612 22.3851 22.2389 22.3851C24.1167 22.3851 25.7086 23.6089 26.2607 25.3024H30.9889C31.7138 25.3024 32.3014 25.89 32.3014 26.6149C32.3014 27.3397 31.7138 27.9274 30.9889 27.9274H26.2603C25.7079 29.6203 24.1163 30.8435 22.2389 30.8435C20.3616 30.8435 18.77 29.6203 18.2176 27.9274H4.00977C3.28489 27.9274 2.69727 27.3397 2.69727 26.6149C2.69727 25.89 3.28489 25.3024 4.00977 25.3024H18.2172ZM22.2389 25.0101C21.353 25.0101 20.6348 25.7283 20.6348 26.6143C20.6348 27.5003 21.353 28.2185 22.2389 28.2185C23.1249 28.2185 23.8431 27.5003 23.8431 26.6143C23.8431 25.7283 23.1249 25.0101 22.2389 25.0101Z" fill="white"/>
<path fill-rule="evenodd" clip-rule="evenodd" d="M11.3014 13.2711C9.424 13.2711 7.8323 14.4945 7.27998 16.1875H4.00977C3.28489 16.1875 2.69727 16.7751 2.69727 17.5C2.69727 18.2249 3.28489 18.8125 4.00977 18.8125H7.27979C7.83194 20.5058 9.42379 21.7295 11.3014 21.7295C13.1791 21.7295 14.7709 20.5058 15.3231 18.8125H30.9889C31.7138 18.8125 32.3014 18.2249 32.3014 17.5C32.3014 16.7751 31.7138 16.1875 30.9889 16.1875H15.3229C14.7706 14.4945 13.1789 13.2711 11.3014 13.2711ZM9.69727 17.5003C9.69727 16.6143 10.4155 15.8961 11.3014 15.8961C12.1874 15.8961 12.9056 16.6143 12.9056 17.5003C12.9056 18.3862 12.1874 19.1045 11.3014 19.1045C10.4155 19.1045 9.69727 18.3862 9.69727 17.5003Z" fill="white"/>
</svg>
