<svg  viewBox="0 0 24 20" fill="none" xmlns="http://www.w3.org/2000/svg">
<path d="M2.21815 9.23077H6.27984C7.02448 9.23077 7.63373 8.53846 7.63373 7.69231V1.53846C7.63373 0.692308 7.02448 0 6.27984 0H2.21815C1.47351 0 0.864258 0.692308 0.864258 1.53846V7.69231C0.864258 8.53846 1.47351 9.23077 2.21815 9.23077ZM2.21815 20H6.27984C7.02448 20 7.63373 19.3077 7.63373 18.4615V12.3077C7.63373 11.4615 7.02448 10.7692 6.27984 10.7692H2.21815C1.47351 10.7692 0.864258 11.4615 0.864258 12.3077V18.4615C0.864258 19.3077 1.47351 20 2.21815 20ZM10.3415 20H14.4032C15.1478 20 15.7571 19.3077 15.7571 18.4615V12.3077C15.7571 11.4615 15.1478 10.7692 14.4032 10.7692H10.3415C9.59688 10.7692 8.98763 11.4615 8.98763 12.3077V18.4615C8.98763 19.3077 9.59688 20 10.3415 20ZM18.4649 20H22.5266C23.2712 20 23.8805 19.3077 23.8805 18.4615V12.3077C23.8805 11.4615 23.2712 10.7692 22.5266 10.7692H18.4649C17.7202 10.7692 17.111 11.4615 17.111 12.3077V18.4615C17.111 19.3077 17.7202 20 18.4649 20ZM10.3415 9.23077H14.4032C15.1478 9.23077 15.7571 8.53846 15.7571 7.69231V1.53846C15.7571 0.692308 15.1478 0 14.4032 0H10.3415C9.59688 0 8.98763 0.692308 8.98763 1.53846V7.69231C8.98763 8.53846 9.59688 9.23077 10.3415 9.23077ZM17.111 1.53846V7.69231C17.111 8.53846 17.7202 9.23077 18.4649 9.23077H22.5266C23.2712 9.23077 23.8805 8.53846 23.8805 7.69231V1.53846C23.8805 0.692308 23.2712 0 22.5266 0H18.4649C17.7202 0 17.111 0.692308 17.111 1.53846Z" />
</svg>
