<svg width="28" height="28" viewBox="0 0 28 28" fill="none" xmlns="http://www.w3.org/2000/svg">
<path d="M10.5 11.6667C10.5 10.9744 10.7053 10.2977 11.0899 9.72217C11.4744 9.1466 12.0211 8.698 12.6606 8.43309C13.3001 8.16818 14.0039 8.09887 14.6828 8.23392C15.3618 8.36897 15.9854 8.70231 16.4749 9.1918C16.9644 9.68128 17.2977 10.3049 17.4327 10.9839C17.5678 11.6628 17.4985 12.3665 17.2336 13.0061C16.9687 13.6456 16.5201 14.1922 15.9445 14.5768C15.3689 14.9614 14.6922 15.1667 14 15.1667V16.3333M24.5 14C24.5 19.799 19.799 24.5 14 24.5C8.20101 24.5 3.5 19.799 3.5 14C3.5 8.20101 8.20101 3.5 14 3.5C19.799 3.5 24.5 8.20101 24.5 14Z"  stroke-width="2" stroke-linecap="round" stroke-linejoin="round"/>
<circle cx="14.0002" cy="19.8333" r="1.16667" fill="none" />
</svg>
