<svg width="41" height="36" viewBox="0 0 41 36" fill="none" xmlns="http://www.w3.org/2000/svg">
<path fill-rule="evenodd" clip-rule="evenodd" d="M18.5383 22.6884C17.22 23.7204 15.5597 24.3356 13.7557 24.3356C9.46694 24.3356 5.99023 20.8589 5.99023 16.5701C5.99023 12.2814 9.46694 8.80469 13.7557 8.80469C18.0444 8.80469 21.5211 12.2814 21.5211 16.5701C21.5211 18.3741 20.906 20.0344 19.874 21.3528L24.9172 26.396C25.286 26.7649 25.286 27.3628 24.9172 27.7317C24.5484 28.1005 23.9504 28.1005 23.5816 27.7317L18.5383 22.6884ZM7.87912 16.5701C7.87912 13.3246 10.5101 10.6936 13.7557 10.6936C17.0012 10.6936 19.6322 13.3246 19.6322 16.5701C19.6322 18.1832 18.9823 19.6445 17.93 20.7064C17.9235 20.7125 17.9171 20.7188 17.9107 20.7252C17.9043 20.7315 17.8981 20.738 17.8919 20.7445C16.83 21.7967 15.3687 22.4467 13.7557 22.4467C10.5101 22.4467 7.87912 19.8157 7.87912 16.5701Z" fill="black"/>
<path d="M28.5678 13.6721C28.2825 13.5673 28.2825 13.1236 28.5678 13.0189L30.2425 12.4047C30.6106 12.2695 30.9451 12.0417 31.2195 11.7394C31.4938 11.4371 31.7004 11.0686 31.823 10.6631L32.3806 8.81961C32.4757 8.50538 32.8786 8.50538 32.9737 8.81961L33.5314 10.664C33.6541 11.0695 33.8609 11.4379 34.1354 11.74C34.4099 12.0422 34.7445 12.2697 35.1127 12.4047L36.7866 13.0189C36.849 13.0414 36.9035 13.0852 36.942 13.1438C36.9806 13.2025 37.0014 13.2731 37.0014 13.3455C37.0014 13.4179 36.9806 13.4885 36.942 13.5471C36.9035 13.6058 36.849 13.6495 36.7866 13.6721L35.1119 14.2863C34.7438 14.4214 34.4094 14.649 34.1351 14.9511C33.8607 15.2532 33.654 15.6216 33.5314 16.0269L32.9737 17.8713C32.9532 17.9402 32.9135 18.0001 32.8603 18.0426C32.807 18.085 32.7429 18.1079 32.6772 18.1079C32.6114 18.1079 32.5473 18.085 32.4941 18.0426C32.4408 18.0001 32.4011 17.9402 32.3806 17.8713L31.823 16.0269C31.7003 15.6216 31.4936 15.2532 31.2193 14.9511C30.945 14.649 30.6105 14.4214 30.2425 14.2863L28.5678 13.6721ZM24.1592 17.3505C24.1218 17.3368 24.0892 17.3105 24.0661 17.2753C24.043 17.2401 24.0306 17.1978 24.0306 17.1543C24.0306 17.1109 24.043 17.0686 24.0661 17.0333C24.0892 16.9981 24.1218 16.9718 24.1592 16.9582L25.1639 16.5897C25.6117 16.4249 25.9628 16.0383 26.1123 15.5451L26.4469 14.4386C26.4593 14.3974 26.4832 14.3615 26.5152 14.3361C26.5472 14.3106 26.5856 14.2969 26.625 14.2969C26.6645 14.2969 26.7029 14.3106 26.7349 14.3361C26.7669 14.3615 26.7907 14.3974 26.8031 14.4386L27.1377 15.5451C27.2113 15.7884 27.3354 16.0094 27.5 16.1907C27.6646 16.372 27.8653 16.5086 28.0862 16.5897L29.0909 16.9582C29.1283 16.9718 29.1609 16.9981 29.184 17.0333C29.2071 17.0686 29.2195 17.1109 29.2195 17.1543C29.2195 17.1978 29.2071 17.2401 29.184 17.2753C29.1609 17.3105 29.1283 17.3368 29.0909 17.3505L28.0862 17.719C27.8653 17.8 27.6646 17.9366 27.5 18.1179C27.3354 18.2993 27.2113 18.5203 27.1377 18.7636L26.8031 19.87C26.7907 19.9113 26.7669 19.9472 26.7349 19.9726C26.7029 19.998 26.6645 20.0117 26.625 20.0117C26.5856 20.0117 26.5472 19.998 26.5152 19.9726C26.4832 19.9472 26.4593 19.9113 26.4469 19.87L26.1123 18.7636C26.0387 18.5203 25.9147 18.2993 25.7501 18.1179C25.5855 17.9366 25.3848 17.8 25.1639 17.719L24.1592 17.3505ZM23.2523 10.6193C23.2277 10.6099 23.2063 10.5923 23.1912 10.5689C23.1761 10.5455 23.168 10.5175 23.168 10.4888C23.168 10.4601 23.1761 10.4322 23.1912 10.4088C23.2063 10.3854 23.2277 10.3678 23.2523 10.3584L23.9215 10.1127C24.2206 10.0032 24.4549 9.74516 24.5543 9.41569L24.7774 8.67868C24.7859 8.65157 24.8019 8.62806 24.8232 8.61142C24.8444 8.59478 24.8698 8.58584 24.8959 8.58584C24.9219 8.58584 24.9473 8.59478 24.9685 8.61142C24.9898 8.62806 25.0058 8.65157 25.0143 8.67868L25.2374 9.41569C25.2864 9.57806 25.3691 9.72559 25.479 9.84659C25.5889 9.96758 25.7228 10.0587 25.8702 10.1127L26.5394 10.3584C26.5641 10.3678 26.5854 10.3854 26.6005 10.4088C26.6156 10.4322 26.6237 10.4601 26.6237 10.4888C26.6237 10.5175 26.6156 10.5455 26.6005 10.5689C26.5854 10.5923 26.5641 10.6099 26.5394 10.6193L25.8702 10.865C25.7228 10.919 25.5889 11.0101 25.479 11.1311C25.3691 11.2521 25.2864 11.3996 25.2374 11.562L25.0143 12.298C25.0058 12.3252 24.9898 12.3487 24.9685 12.3653C24.9473 12.3819 24.9219 12.3909 24.8959 12.3909C24.8698 12.3909 24.8444 12.3819 24.8232 12.3653C24.8019 12.3487 24.7859 12.3252 24.7774 12.298L24.5543 11.561C24.4549 11.2316 24.2206 10.9735 23.9215 10.864L23.2523 10.6193Z" fill="black"/>
</svg>
