<svg width="40" height="40" viewBox="0 0 40 40" fill="none" xmlns="http://www.w3.org/2000/svg">
<path d="M28.7083 34.19L4.72333 34.19C2.12333 34.19 3.75643e-09 32.0667 3.45186e-09 29.4667L5.53312e-10 4.72333C2.48737e-10 2.12333 2.12333 4.34967e-09 4.72333 4.04509e-09L28.73 1.23285e-09C31.33 9.2827e-10 33.4533 2.12333 33.4533 4.72333L33.4533 29.4667C33.4533 32.0667 31.33 34.19 28.73 34.19L28.7083 34.19ZM4.72333 1.625C3.01167 1.625 1.625 3.01167 1.625 4.72333L1.625 29.4667C1.625 31.1783 3.01167 32.565 4.72333 32.565L28.73 32.565C30.4417 32.565 31.8283 31.1783 31.8283 29.4667L31.8283 4.72333C31.8283 3.01167 30.4417 1.625 28.73 1.625L4.72333 1.625Z" fill="#FFA1B4"/>
<path d="M22.9667 8.29469C22.7933 8.16469 22.555 8.12135 22.36 8.16469L12.61 11.1114C12.3067 11.198 12.1117 11.5014 12.1117 11.8264L12.1117 20.3414C11.7 20.0814 11.2233 19.9297 10.725 19.9297C9.18666 19.9297 7.95166 21.2514 7.95166 22.8764C7.95166 24.5014 9.20833 25.823 10.725 25.823C12.2417 25.823 13.4983 24.5014 13.4983 22.8764L13.4983 16.788L21.84 14.253L21.84 18.8464C21.4283 18.5864 20.9517 18.4347 20.4533 18.4347C18.915 18.4347 17.68 19.7564 17.68 21.3814C17.68 23.0064 18.9367 24.328 20.4533 24.328C21.97 24.328 23.2267 23.0064 23.2267 21.3814L23.2267 8.83635C23.2267 8.59802 23.1183 8.38135 22.945 8.25135L22.9667 8.29469ZM10.725 24.3714C9.96666 24.3714 9.33833 23.6997 9.33833 22.898C9.33833 22.0964 9.96666 21.4247 10.725 21.4247C11.4833 21.4247 12.1117 22.0964 12.1117 22.898C12.1117 23.6997 11.4833 24.3714 10.725 24.3714ZM20.475 22.898C19.7167 22.898 19.0883 22.2264 19.0883 21.4247C19.0883 20.623 19.7167 19.9514 20.475 19.9514C21.2333 19.9514 21.8617 20.623 21.8617 21.4247C21.8617 22.2264 21.2333 22.898 20.475 22.898ZM21.8617 12.7364L13.52 15.2714L13.52 12.3897L21.8617 9.85469L21.8617 12.7364Z" fill="#FFA1B4"/>
<path d="M31.98 39.9523L13.0867 39.9523C9.66338 39.9523 7.36672 38.5223 6.28338 35.684C6.13172 35.2723 6.32672 34.7956 6.76005 34.6223C7.17172 34.4706 7.64838 34.6656 7.82172 35.099C8.66672 37.309 10.3567 38.3273 13.1084 38.3273L32.0017 38.3273C35.0784 38.3273 37.57 35.8356 37.57 32.759L37.57 11.8507C37.57 9.03398 36.8117 7.77732 34.4717 6.69398C34.06 6.49898 33.8867 6.02232 34.0817 5.61065C34.2767 5.19898 34.7534 5.02565 35.165 5.22065C38.5017 6.78065 39.195 8.99065 39.195 11.8507L39.195 32.759C39.195 36.724 35.9667 39.974 31.98 39.974L31.98 39.9523Z" fill="#FFA1B4"/>
</svg>
