<svg width="20" height="20" viewBox="0 0 20 20" fill="none" xmlns="http://www.w3.org/2000/svg">
<path d="M14.189 16.4499H3.11896C1.91896 16.4499 0.938965 15.4699 0.938965 14.2699V2.84992C0.938965 1.64992 1.91896 0.669922 3.11896 0.669922H14.199C15.399 0.669922 16.379 1.64992 16.379 2.84992V14.2699C16.379 15.4699 15.399 16.4499 14.199 16.4499H14.189ZM3.11896 1.41992C2.32896 1.41992 1.68896 2.05992 1.68896 2.84992V14.2699C1.68896 15.0599 2.32896 15.6999 3.11896 15.6999H14.199C14.989 15.6999 15.629 15.0599 15.629 14.2699V2.84992C15.629 2.05992 14.989 1.41992 14.199 1.41992H3.11896Z" fill="#DE899A"/>
<path d="M11.539 4.49914C11.459 4.43914 11.349 4.41914 11.259 4.43914L6.75901 5.79914C6.61901 5.83914 6.52901 5.97914 6.52901 6.12914V10.0591C6.33901 9.93914 6.11901 9.86914 5.88901 9.86914C5.17901 9.86914 4.60901 10.4791 4.60901 11.2291C4.60901 11.9791 5.18901 12.5891 5.88901 12.5891C6.58901 12.5891 7.16901 11.9791 7.16901 11.2291V8.41914L11.019 7.24914V9.36914C10.829 9.24914 10.609 9.17914 10.379 9.17914C9.66901 9.17914 9.09901 9.78914 9.09901 10.5391C9.09901 11.2891 9.67901 11.8991 10.379 11.8991C11.079 11.8991 11.659 11.2891 11.659 10.5391V4.74914C11.659 4.63914 11.609 4.53914 11.529 4.47914L11.539 4.49914ZM5.88901 11.9191C5.53901 11.9191 5.24901 11.6091 5.24901 11.2391C5.24901 10.8691 5.53901 10.5591 5.88901 10.5591C6.23901 10.5591 6.52901 10.8691 6.52901 11.2391C6.52901 11.6091 6.23901 11.9191 5.88901 11.9191ZM10.389 11.2391C10.039 11.2391 9.74901 10.9291 9.74901 10.5591C9.74901 10.1891 10.039 9.87914 10.389 9.87914C10.739 9.87914 11.029 10.1891 11.029 10.5591C11.029 10.9291 10.739 11.2391 10.389 11.2391ZM11.029 6.54914L7.17901 7.71914V6.38914L11.029 5.21914V6.54914Z" fill="#DE899A"/>
<path d="M15.6989 19.1099H6.97895C5.39895 19.1099 4.33895 18.4499 3.83895 17.1399C3.76895 16.9499 3.85895 16.7299 4.05895 16.6499C4.24895 16.5799 4.46895 16.6699 4.54895 16.8699C4.93895 17.8899 5.71895 18.3599 6.98895 18.3599H15.709C17.129 18.3599 18.2789 17.2099 18.2789 15.7899V6.1399C18.2789 4.8399 17.9289 4.2599 16.8489 3.7599C16.6589 3.6699 16.5789 3.4499 16.6689 3.2599C16.7589 3.0699 16.9789 2.9899 17.1689 3.0799C18.7089 3.7999 19.0289 4.8199 19.0289 6.1399V15.7899C19.0289 17.6199 17.5389 19.1199 15.6989 19.1199V19.1099Z" fill="#DE899A"/>
</svg>
