<svg  viewBox="0 0 24 21" fill="none" xmlns="http://www.w3.org/2000/svg">
<path d="M6.94302 1.80899C6.94302 1.08539 7.51196 0.516854 8.23606 0.516854H22.563C23.2871 0.516854 23.8561 1.08539 23.8561 1.80899C23.8561 2.53258 23.2871 3.10112 22.563 3.10112H8.23606C7.51196 3.10112 6.94302 2.53258 6.94302 1.80899ZM22.563 8.78652H8.23606C7.51196 8.78652 6.94302 9.35506 6.94302 10.0787C6.94302 10.8022 7.51196 11.3708 8.23606 11.3708H22.563C23.2871 11.3708 23.8561 10.8022 23.8561 10.0787C23.8561 9.35506 23.2871 8.78652 22.563 8.78652ZM22.563 17.0562H8.23606C7.51196 17.0562 6.94302 17.6247 6.94302 18.3483C6.94302 19.0719 7.51196 19.6405 8.23606 19.6405H22.563C23.2871 19.6405 23.8561 19.0719 23.8561 18.3483C23.8561 17.6247 23.2871 17.0562 22.563 17.0562ZM2.65011 8.37304C1.64153 8.37304 0.839844 9.2 0.839844 10.2079C0.839844 11.2157 1.64153 12.0427 2.65011 12.0427C3.65868 12.0427 4.46037 11.2157 4.46037 10.2079C4.46037 9.2 3.63282 8.37304 2.65011 8.37304ZM2.65011 0C1.64153 0 0.839844 0.826966 0.839844 1.83483C0.839844 2.8427 1.64153 3.66966 2.65011 3.66966C3.65868 3.66966 4.46037 2.8427 4.46037 1.83483C4.46037 0.826966 3.63282 0 2.65011 0ZM2.65011 16.4876C1.64153 16.4876 0.839844 17.3146 0.839844 18.3225C0.839844 19.3303 1.64153 20.1573 2.65011 20.1573C3.65868 20.1573 4.46037 19.3303 4.46037 18.3225C4.46037 17.3146 3.63282 16.4876 2.65011 16.4876Z" />
</svg>
