<svg width="20" height="11" viewBox="0 0 20 11" fill="none" xmlns="http://www.w3.org/2000/svg">
<path fill-rule="evenodd" clip-rule="evenodd" d="M4.04232 5.49984C4.04232 5.08562 4.3781 4.74984 4.79232 4.74984H15.209C15.6232 4.74984 15.959 5.08562 15.959 5.49984C15.959 5.91405 15.6232 6.24984 15.209 6.24984H4.79232C4.3781 6.24984 4.04232 5.91405 4.04232 5.49984Z" fill="white"/>
<path fill-rule="evenodd" clip-rule="evenodd" d="M5.41732 2.2915C3.64528 2.2915 2.20898 3.7278 2.20898 5.49984C2.20898 7.27187 3.64528 8.70817 5.41732 8.70817H7.29232C7.70653 8.70817 8.04232 9.04396 8.04232 9.45817C8.04232 9.87238 7.70653 10.2082 7.29232 10.2082H5.41732C2.81685 10.2082 0.708984 8.1003 0.708984 5.49984C0.708984 2.89937 2.81685 0.791504 5.41732 0.791504H7.29232C7.70653 0.791504 8.04232 1.12729 8.04232 1.5415C8.04232 1.95572 7.70653 2.2915 7.29232 2.2915H5.41732Z" fill="white"/>
<path fill-rule="evenodd" clip-rule="evenodd" d="M11.959 1.5415C11.959 1.12729 12.2948 0.791504 12.709 0.791504H14.584C17.1844 0.791504 19.2923 2.89937 19.2923 5.49984C19.2923 8.1003 17.1844 10.2082 14.584 10.2082H12.709C12.2948 10.2082 11.959 9.87238 11.959 9.45817C11.959 9.04396 12.2948 8.70817 12.709 8.70817H14.584C16.356 8.70817 17.7923 7.27187 17.7923 5.49984C17.7923 3.7278 16.356 2.2915 14.584 2.2915H12.709C12.2948 2.2915 11.959 1.95572 11.959 1.5415Z" fill="white"/>
</svg>
