<svg width="25" height="24" viewBox="0 0 25 24" fill="none" xmlns="http://www.w3.org/2000/svg">
<path d="M10.7703 14.2353H9.21157C8.51574 14.2353 7.95166 14.7994 7.95166 15.4952V15.4952C7.95166 16.2894 8.67755 16.8855 9.45658 16.7311L9.63508 16.6957C10.2949 16.5648 10.7703 15.9859 10.7703 15.3132V10.9618C10.7703 10.3247 10.7703 10.0062 10.849 9.73401C11.0015 9.20657 11.3641 8.76502 11.8518 8.51287C12.1035 8.38276 12.416 8.32081 13.0409 8.19692L13.6669 8.0728C13.9867 8.00941 14.1465 7.97771 14.2765 7.96917C15.3288 7.9 16.254 8.65978 16.3908 9.70543C16.4077 9.8346 16.4077 9.99758 16.4077 10.3235V10.3235M16.4077 13.1177V14.1956C16.4077 14.8683 15.9323 15.4472 15.2724 15.578L15.0939 15.6134C14.3149 15.7679 13.589 15.1718 13.589 14.3776V14.3776C13.589 13.6817 14.1531 13.1177 14.8489 13.1177H16.4077ZM16.4077 13.1177V10.3235M16.4077 10.3235L10.7703 11.4412" stroke="var(--color-white)"/>
<path d="M21.295 12C21.295 16.8263 17.3463 20.75 12.4614 20.75C7.57663 20.75 3.62793 16.8263 3.62793 12C3.62793 7.17368 7.57663 3.25 12.4614 3.25C17.3463 3.25 21.295 7.17368 21.295 12Z" stroke="var(--color-white)" stroke-width="1.5"/>
</svg>
