<svg width="28" height="34" viewBox="0 0 28 34" fill="none" xmlns="http://www.w3.org/2000/svg">
<path d="M27.2753 9.9535L18.3565 0.748C17.8936 0.269646 17.2656 0.000595177 16.6106 0H2.47059C1.81535 0 1.18694 0.26866 0.723619 0.746878C0.260293 1.2251 0 1.8737 0 2.55V6.8C0 7.02543 0.0867646 7.24163 0.241206 7.40104C0.395648 7.56045 0.605116 7.65 0.823529 7.65C1.04194 7.65 1.25141 7.56045 1.40585 7.40104C1.56029 7.24163 1.64706 7.02543 1.64706 6.8V2.55C1.64706 2.32457 1.73382 2.10837 1.88827 1.94896C2.04271 1.78955 2.25217 1.7 2.47059 1.7H16.4706V9.35C16.4706 10.0263 16.7309 10.6749 17.1942 11.1531C17.6575 11.6313 18.2859 11.9 18.9412 11.9H26.3529V31.45C26.3529 31.6754 26.2662 31.8916 26.1117 32.051C25.9573 32.2104 25.7478 32.3 25.5294 32.3H2.47059C2.25217 32.3 2.04271 32.2104 1.88827 32.051C1.73382 31.8916 1.64706 31.6754 1.64706 31.45V10.2C1.64706 9.97457 1.56029 9.75837 1.40585 9.59896C1.25141 9.43955 1.04194 9.35 0.823529 9.35C0.605116 9.35 0.395648 9.43955 0.241206 9.59896C0.0867646 9.75837 0 9.97457 0 10.2V31.45C0 32.1263 0.260293 32.7749 0.723619 33.2531C1.18694 33.7313 1.81535 34 2.47059 34H25.5294C26.1847 34 26.8131 33.7313 27.2764 33.2531C27.7397 32.7749 28 32.1263 28 31.45V11.7555C27.9994 11.0794 27.7388 10.4313 27.2753 9.9535ZM18.1176 9.35V2.8985L25.1918 10.2H18.9412C18.7228 10.2 18.5133 10.1104 18.3589 9.95104C18.2044 9.79163 18.1176 9.57543 18.1176 9.35ZM10.7059 17.85V22.253C10.2111 22.0725 9.67357 22.0592 9.17105 22.2151C8.66853 22.3711 8.22716 22.6881 7.9109 23.1203C7.59464 23.5525 7.41992 24.0774 7.41205 24.6189C7.40419 25.1605 7.56358 25.6906 7.86714 26.1323C8.17071 26.5741 8.60267 26.9047 9.10044 27.0761C9.59821 27.2475 10.1359 27.2509 10.6357 27.0857C11.1354 26.9206 11.5713 26.5955 11.88 26.1576C12.1888 25.7196 12.3544 25.1916 12.3529 24.65V18.547L18.9412 17.187V20.587C18.4451 20.4061 17.906 20.3933 17.4024 20.5506C16.8988 20.7079 16.457 21.027 16.1414 21.4614C15.8257 21.8959 15.6527 22.423 15.6475 22.9661C15.6423 23.5091 15.8052 24.0396 16.1125 24.4805C16.4197 24.9213 16.8553 25.2494 17.3558 25.4169C17.8563 25.5844 18.3955 25.5827 18.8949 25.4119C19.3944 25.2411 19.828 24.9102 20.1325 24.4674C20.4371 24.0246 20.5968 23.493 20.5882 22.95V16.15C20.5874 16.0245 20.5597 15.9006 20.507 15.7875C20.4543 15.6743 20.378 15.5746 20.2835 15.4955C20.1909 15.4124 20.0815 15.3517 19.9632 15.3179C19.8449 15.2841 19.7208 15.278 19.6 15.3L11.3647 17C11.1759 17.0397 11.0066 17.1466 10.8862 17.3019C10.7658 17.4572 10.702 17.6511 10.7059 17.85ZM18.1176 23.8C17.9548 23.8 17.7955 23.7502 17.6601 23.6567C17.5247 23.5634 17.4191 23.4306 17.3568 23.2753C17.2945 23.12 17.2782 22.9491 17.3099 22.7842C17.3417 22.6193 17.4202 22.4678 17.5353 22.349C17.6505 22.2301 17.7972 22.1491 17.957 22.1163C18.1167 22.0835 18.2823 22.1004 18.4328 22.1647C18.5833 22.229 18.7119 22.338 18.8024 22.4778C18.8929 22.6175 18.9412 22.7819 18.9412 22.95C18.9412 23.1754 18.8544 23.3916 18.7 23.551C18.5455 23.7104 18.3361 23.8 18.1176 23.8ZM9.88235 25.5C9.71947 25.5 9.56025 25.4501 9.42482 25.3568C9.2894 25.2634 9.18384 25.1306 9.12151 24.9753C9.05918 24.82 9.04287 24.6491 9.07465 24.4842C9.10642 24.3193 9.18486 24.1678 9.30003 24.049C9.4152 23.9301 9.56194 23.8491 9.72169 23.8163C9.88144 23.7835 10.047 23.8004 10.1975 23.8647C10.348 23.929 10.4766 24.038 10.5671 24.1778C10.6576 24.3175 10.7059 24.4819 10.7059 24.65C10.7059 24.8754 10.6191 25.0916 10.4647 25.251C10.3102 25.4104 10.1008 25.5 9.88235 25.5Z" fill="var(--color-white)"/>
</svg>
