<svg width="65" height="65" viewBox="0 0 65 65" fill="none" xmlns="http://www.w3.org/2000/svg">
<g clip-path="url(#clip0_3523_56061)">
<path d="M32.2003 64.6332C50.1129 64.6332 64.634 50.1121 64.634 32.1994C64.634 14.2867 50.1129 -0.234375 32.2003 -0.234375C14.2876 -0.234375 -0.233521 14.2867 -0.233521 32.1994C-0.233521 50.1121 14.2876 64.6332 32.2003 64.6332Z" />
<path d="M38.7402 41.3007C47.1097 41.3007 53.8945 34.4582 53.8945 26.0175C53.8945 17.5769 47.1097 10.7344 38.7402 10.7344C30.3707 10.7344 23.5858 17.5769 23.5858 26.0175C23.5858 34.4582 30.3707 41.3007 38.7402 41.3007Z"  stroke="#FFA1B4" stroke-width="2.14651" stroke-miterlimit="10"/>
<path d="M24.8176 54.2597C15.8666 54.2597 8.58997 46.9186 8.58997 37.9033C8.58997 28.8879 15.8666 21.5469 24.8176 21.5469C33.7685 21.5469 41.0452 28.8879 41.0452 37.9033C41.0452 46.9186 33.7685 54.2597 24.8176 54.2597ZM24.8176 23.7148C17.0472 23.7148 10.7365 30.09 10.7365 37.9248C10.7365 45.7595 17.0472 52.1347 24.8176 52.1347C32.588 52.1347 38.8987 45.7595 38.8987 37.9248C38.8987 30.09 32.588 23.7148 24.8176 23.7148Z" fill="#FFA1B4" stroke-width="4.29302" stroke-miterlimit="10"/>
<path d="M24.815 53.1835C33.1845 53.1835 39.9694 46.341 39.9694 37.9003C39.9694 29.4597 33.1845 22.6172 24.815 22.6172C16.4455 22.6172 9.66064 29.4597 9.66064 37.9003C9.66064 46.341 16.4455 53.1835 24.815 53.1835Z" stroke="#FFA1B4" stroke-width="2.14651" stroke-miterlimit="10"/>
<path d="M21.3349 43.3528C22.1528 43.3528 22.8159 42.6897 22.8159 41.8717C22.8159 41.0537 22.1528 40.3906 21.3349 40.3906C20.5169 40.3906 19.8538 41.0537 19.8538 41.8717C19.8538 42.6897 20.5169 43.3528 21.3349 43.3528Z" fill="#FFA1B4" stroke="#FFA1B4" stroke-width="1.50256" stroke-linecap="round" stroke-linejoin="round"/>
<path d="M27.2622 41.3762C28.0802 41.3762 28.7433 40.7131 28.7433 39.8952C28.7433 39.0772 28.0802 38.4141 27.2622 38.4141C26.4442 38.4141 25.7811 39.0772 25.7811 39.8952C25.7811 40.7131 26.4442 41.3762 27.2622 41.3762Z" fill="#FFA1B4" stroke="#FFA1B4" stroke-width="1.50256" stroke-linecap="round" stroke-linejoin="round"/>
<path d="M28.7354 39.8957L28.7354 32.4688L22.811 34.465L22.811 41.8705" stroke="#FFA1B4" stroke-width="1.50256" stroke-linecap="round" stroke-linejoin="round"/>
<path d="M28.4684 19.8732L28.683 19.5083C30.8295 15.8378 34.8221 13.5625 39.0721 13.5625C45.7049 13.5625 51.0926 18.9502 51.0926 25.583L51.0926 26.0123L50.234 26.0123L50.234 25.583C50.234 19.4225 45.2326 14.4211 39.0721 14.4211C35.1226 14.4211 31.4306 16.5462 29.4343 19.9376" fill="#FFA1B4"/>
<path d="M14.382 32.8379C16.2709 28.9742 20.2205 26.3125 24.814 26.3125C31.2106 26.3125 36.4052 31.5071 36.4052 37.9037" stroke="#FFA1B4" stroke-width="0.858604" stroke-miterlimit="10"/>
</g>
<defs>
<clipPath id="clip0_3523_56061">
<rect width="64.3953" height="64.3953" fill="white"/>
</clipPath>
</defs>
</svg>
