<svg width="31" height="31" viewBox="0 0 31 31" fill="none" xmlns="http://www.w3.org/2000/svg">
<g clip-path="url(#clip0_7798_99986)">
<path d="M15.369 30.6106C23.7141 30.6106 30.479 23.8456 30.479 15.5006C30.479 7.1556 23.7141 0.390625 15.369 0.390625C7.02401 0.390625 0.259033 7.1556 0.259033 15.5006C0.259033 23.8456 7.02401 30.6106 15.369 30.6106Z" fill="var(--color-bg)"/>
<path d="M18.419 19.74C22.3181 19.74 25.479 16.5523 25.479 12.62C25.479 8.68773 22.3181 5.5 18.419 5.5C14.5199 5.5 11.359 8.68773 11.359 12.62C11.359 16.5523 14.5199 19.74 18.419 19.74Z" fill="var(--color-bg)" stroke="#DD8797" stroke-miterlimit="10"/>
<path d="M11.929 25.7791C7.75902 25.7791 4.36902 22.3591 4.36902 18.1591C4.36902 13.9591 7.75902 10.5391 11.929 10.5391C16.099 10.5391 19.489 13.9591 19.489 18.1591C19.489 22.3591 16.099 25.7791 11.929 25.7791ZM11.929 11.5491C8.30902 11.5491 5.36902 14.5191 5.36902 18.1691C5.36902 21.8191 8.30902 24.7891 11.929 24.7891C15.549 24.7891 18.489 21.8191 18.489 18.1691C18.489 14.5191 15.549 11.5491 11.929 11.5491Z" fill="#DD8797" stroke="var(--color-bg)" stroke-width="2" stroke-miterlimit="10"/>
<path d="M11.929 25.2791C15.8281 25.2791 18.989 22.0913 18.989 18.1591C18.989 14.2268 15.8281 11.0391 11.929 11.0391C8.02989 11.0391 4.86902 14.2268 4.86902 18.1591C4.86902 22.0913 8.02989 25.2791 11.929 25.2791Z" fill="var(--color-bg)" stroke="#DD8797" stroke-miterlimit="10"/>
<path d="M10.309 20.6984C10.6901 20.6984 10.999 20.3894 10.999 20.0084C10.999 19.6273 10.6901 19.3184 10.309 19.3184C9.92794 19.3184 9.61902 19.6273 9.61902 20.0084C9.61902 20.3894 9.92794 20.6984 10.309 20.6984Z" fill="#DD8797" stroke="#DD8797" stroke-width="0.7" stroke-linecap="round" stroke-linejoin="round"/>
<path d="M13.069 19.7784C13.4501 19.7784 13.759 19.4695 13.759 19.0884C13.759 18.7074 13.4501 18.3984 13.069 18.3984C12.688 18.3984 12.379 18.7074 12.379 19.0884C12.379 19.4695 12.688 19.7784 13.069 19.7784Z" fill="#DD8797" stroke="#DD8797" stroke-width="0.7" stroke-linecap="round" stroke-linejoin="round"/>
<path d="M13.759 19.0889V15.6289L10.999 16.5589V20.0089" stroke="#DD8797" stroke-width="0.7" stroke-linecap="round" stroke-linejoin="round"/>
<path d="M13.629 9.76031L13.729 9.59031C14.729 7.88031 16.589 6.82031 18.569 6.82031C21.659 6.82031 24.169 9.33031 24.169 12.4203V12.6203H23.769V12.4203C23.769 9.55031 21.439 7.22031 18.569 7.22031C16.729 7.22031 15.009 8.21031 14.079 9.79031" fill="#DD8797"/>
<path d="M7.06897 15.7998C7.94897 13.9998 9.78897 12.7598 11.929 12.7598C14.909 12.7598 17.329 15.1798 17.329 18.1598" stroke="#DD8797" stroke-width="0.4" stroke-miterlimit="10"/>
</g>
<defs>
<clipPath id="clip0_7798_99986">
<rect width="30" height="30" fill="bg" transform="translate(0.369019 0.5)"/>
</clipPath>
</defs>
</svg>
