<svg width="30" height="46" viewBox="0 0 30 46" fill="none" xmlns="http://www.w3.org/2000/svg">
<path d="M14.6684 31.2217C19.7384 31.2217 23.855 27.105 23.855 22.035L23.855 9.18667C23.855 4.11667 19.7384 1.76416e-09 14.6684 2.35809e-09C9.59836 2.95201e-09 5.48169 4.11667 5.48169 9.18667L5.48169 22.035C5.48169 27.105 9.59836 31.2217 14.6684 31.2217ZM19.2617 20.215L7.32335 20.215L7.32335 16.5533L19.2617 16.5533C19.76 16.5533 20.1717 16.1417 20.1717 15.6433C20.1717 15.145 19.76 14.7333 19.2617 14.7333L7.32335 14.7333L7.32335 11.0717L19.2617 11.0717C19.76 11.0717 20.1717 10.66 20.1717 10.1617C20.1717 9.66333 19.76 9.25167 19.2617 9.25167L7.32335 9.25167C7.32335 5.2 10.6167 1.90667 14.6684 1.90667C18.72 1.90667 22.0134 5.2 22.0134 9.25167L22.0134 22.1C22.0134 26.1517 18.72 29.445 14.6684 29.445C10.6167 29.445 7.32335 26.1517 7.32335 22.1L19.2617 22.1C19.76 22.1 20.1717 21.6883 20.1717 21.19C20.1717 20.6917 19.76 20.28 19.2617 20.28L19.2617 20.215Z" fill="#FFA1B4"/>
<path d="M28.4267 14.7109C27.9283 14.7109 27.5167 15.1226 27.5167 15.6209L27.5167 22.0343C27.5167 29.1193 21.7533 34.8826 14.6683 34.8826C7.58333 34.8826 1.82 29.1193 1.82 22.0343L1.82 15.6209C1.82 15.1226 1.40833 14.7109 0.91 14.7109C0.411667 14.7109 0 15.1226 1.06601e-10 15.6209L8.57888e-10 22.0343C1.76908e-09 29.8126 6.08833 36.1826 13.7583 36.6593L13.7583 44.0476L6.41333 44.0476C5.915 44.0476 5.50333 44.4593 5.50333 44.9576C5.50333 45.4559 5.915 45.8676 6.41333 45.8676L22.9233 45.8676C23.4217 45.8676 23.8333 45.4559 23.8333 44.9576C23.8333 44.4593 23.4217 44.0476 22.9233 44.0476L15.5783 44.0476L15.5783 36.6593C23.2483 36.1826 29.3367 29.8126 29.3367 22.0343L29.3367 15.6209C29.3367 15.1226 28.925 14.7109 28.4267 14.7109Z" fill="#FFA1B4"/>
</svg>
