<svg width="24" height="24" viewBox="0 0 24 24" fill="none" xmlns="http://www.w3.org/2000/svg">
<path d="M17.7979 20.7555C17.5133 18.4508 15.5483 16.6667 13.1667 16.6667H10.8333C8.45167 16.6667 6.48672 18.4508 6.20209 20.7555M17.7979 20.7555C20.6317 18.8751 22.5 15.6557 22.5 12C22.5 6.20101 17.799 1.5 12 1.5C6.20101 1.5 1.5 6.20101 1.5 12C1.5 15.6557 3.36826 18.8751 6.20209 20.7555M17.7979 20.7555C16.1365 21.8579 14.1432 22.5 12 22.5C9.85675 22.5 7.86348 21.8579 6.20209 20.7555M15.5 9.66667C15.5 11.5997 13.933 13.1667 12 13.1667C10.067 13.1667 8.5 11.5997 8.5 9.66667C8.5 7.73367 10.067 6.16667 12 6.16667C13.933 6.16667 15.5 7.73367 15.5 9.66667Z" stroke-width="2" stroke-linecap="round" stroke-linejoin="round"/>
</svg>
