<svg width="29" height="32" viewBox="0 0 29 32" fill="none" xmlns="http://www.w3.org/2000/svg">
<path d="M27.605 8.10783L19.7776 0.743895C19.3016 0.293807 18.652 0.0375073 17.9831 0.0375073L3.24159 0C1.45357 0 0 1.40027 0 3.12561V28.8681C0 30.5622 1.49859 32 3.27375 32H25.0773C26.8203 32 28.2353 30.5935 28.2353 28.8619V9.60188C28.2353 9.02051 28.0102 8.48916 27.605 8.10783ZM19.7454 4.19457L23.791 7.99531H20.4465C20.0734 7.99531 19.7454 7.71401 19.7454 7.3952V4.19457ZM25.0773 29.4995H3.27375C2.91357 29.4995 2.57269 29.1932 2.57269 28.8619V3.12561C2.57269 2.7943 2.88785 2.50049 3.24159 2.50049L17.1727 2.538V7.3952C17.1727 9.10178 18.6392 10.4958 20.4465 10.4958H25.6626V28.8619C25.6626 29.1744 25.4439 29.4995 25.0773 29.4995Z" fill="white"/>
<path d="M5.49023 16.8443C5.49023 17.5385 6.05824 18.1065 6.75246 18.1065H17.7969C18.4912 18.1065 19.0592 17.5385 19.0592 16.8443C19.0592 16.15 18.4912 15.582 17.7969 15.582H6.75246C6.05824 15.582 5.49023 16.15 5.49023 16.8443Z" fill="white"/>
<path d="M6.68996 13.0577H14.0109C14.7051 13.0577 15.2731 12.4897 15.2731 11.7954C15.2731 11.1012 14.7051 10.5332 14.0109 10.5332H6.68996C5.99574 10.5332 5.42773 11.1012 5.42773 11.7954C5.42773 12.4897 5.99574 13.0577 6.68996 13.0577Z" fill="white"/>
<path d="M20.9525 20.6309H6.75246C6.05824 20.6309 5.49023 21.1989 5.49023 21.8931C5.49023 22.5873 6.05824 23.1553 6.75246 23.1553H20.9525C21.6467 23.1553 22.2147 22.5873 22.2147 21.8931C22.2147 21.1989 21.6467 20.6309 20.9525 20.6309Z" fill="white"/>
</svg>
