<svg width="23" height="23" viewBox="0 0 23 23" fill="none" xmlns="http://www.w3.org/2000/svg">
<path d="M21.8106 20.3088L17.7043 16.2125C19.0292 14.5238 19.748 12.4385 19.7454 10.2917C19.7454 8.37979 19.1787 6.51083 18.1171 4.92116C17.0554 3.33148 15.5464 2.09248 13.7809 1.36084C12.0155 0.629188 10.0728 0.437756 8.19856 0.810747C6.32434 1.18374 4.60276 2.1044 3.25152 3.45631C1.90028 4.80821 0.980076 6.53065 0.60727 8.4058C0.234465 10.2809 0.425802 12.2246 1.15709 13.9909C1.88837 15.7573 3.12676 17.267 4.71565 18.3292C6.30453 19.3914 8.17256 19.9583 10.0835 19.9583C12.2292 19.961 14.3135 19.2418 16.0014 17.9163L20.0956 22.0246C20.2079 22.1378 20.3415 22.2277 20.4886 22.2891C20.6358 22.3504 20.7937 22.382 20.9531 22.382C21.1125 22.382 21.2704 22.3504 21.4176 22.2891C21.5648 22.2277 21.6983 22.1378 21.8106 22.0246C21.9238 21.9123 22.0137 21.7786 22.075 21.6314C22.1363 21.4841 22.1679 21.3262 22.1679 21.1667C22.1679 21.0072 22.1363 20.8492 22.075 20.702C22.0137 20.5547 21.9238 20.4211 21.8106 20.3088ZM2.83709 10.2917C2.83709 8.85776 3.26208 7.45604 4.05833 6.26379C4.85458 5.07153 5.98631 4.14228 7.31042 3.59354C8.63453 3.04481 10.0915 2.90123 11.4972 3.18098C12.9029 3.46072 14.1941 4.15122 15.2075 5.16515C16.2209 6.17908 16.9111 7.4709 17.1907 8.87727C17.4703 10.2836 17.3268 11.7414 16.7783 13.0661C16.2298 14.3909 15.3011 15.5232 14.1094 16.3198C12.9177 17.1165 11.5167 17.5417 10.0835 17.5417C8.16163 17.5417 6.31848 16.7778 4.95951 15.4182C3.60055 14.0586 2.83709 12.2145 2.83709 10.2917Z" fill="var(--color-white)"/>
</svg>
