<svg xmlns="http://www.w3.org/2000/svg" width="23.068" height="22.568" viewBox="0 0 23.068 22.568">
  <g id="Component_45_105" data-name="Component 45 – 105" transform="translate(2 2)">
    <g id="Group_211" data-name="Group 211">
      <path id="Path_42" data-name="Path 42" d="M7,0a7.139,7.139,0,0,1,5.553,2.736A6.76,6.76,0,0,1,14.005,7,7,7,0,1,1,7,0Z" fill="none"  stroke-width="4"/>
      <path id="Path_41" data-name="Path 41" d="M90.405,87.736l5,5a1.061,1.061,0,0,1,0,1.5h0a1.061,1.061,0,0,1-1.5,0l-5-5a1.061,1.061,0,0,1,0-1.5h0A1.061,1.061,0,0,1,90.405,87.736Z" transform="translate(-75.65 -74.981)" fill="none"  stroke-linejoin="round" stroke-width="2"/>
      <line id="Line_6" data-name="Line 6" x2="1.057" y2="1.057" transform="translate(12.198 11.698)" fill="none"  stroke-linejoin="round" stroke-width="2"/>
    </g>
  </g>
</svg> 
