<svg width="31" height="31" viewBox="0 0 31 31" fill="none" xmlns="http://www.w3.org/2000/svg">
<path d="M17.26 10.8694C17.5 11.5094 17.64 12.2094 17.64 12.9294C17.64 16.1494 15.03 18.7494 11.82 18.7494C8.61 18.7494 6 16.1394 6 12.9294C6 9.71938 8.61 7.10938 11.82 7.10938C12.43 7.10938 13.02 7.19937 13.57 7.37937" stroke="black" stroke-width="0.75" stroke-linejoin="round"/>
<path d="M18.2599 17.7198L22.4199 21.8798C22.7599 22.2198 22.7599 22.7798 22.4199 23.1298C22.0799 23.4698 21.5199 23.4698 21.1699 23.1298L17.0099 18.9698C16.6699 18.6298 16.6699 18.0698 17.0099 17.7198C17.3499 17.3798 17.9099 17.3798 18.2599 17.7198Z" stroke="black" stroke-width="0.75" stroke-linejoin="round"/>
<path d="M16.1399 16.8398L17.0099 17.7198" stroke="black" stroke-width="0.75" stroke-linejoin="round"/>
<path d="M16.7699 8.04047C16.6099 7.98047 16.6099 7.70047 16.7699 7.64047L17.7399 7.26047C17.9499 7.18047 18.1499 7.04047 18.2999 6.85047C18.4499 6.66047 18.5799 6.44047 18.6499 6.19047L18.9699 5.06047C19.0199 4.87047 19.2599 4.87047 19.3099 5.06047L19.6299 6.19047C19.6999 6.44047 19.8199 6.66047 19.9799 6.85047C20.1399 7.04047 20.3299 7.17047 20.5499 7.26047L21.5199 7.64047C21.5199 7.64047 21.5899 7.68047 21.6099 7.72047C21.6299 7.76047 21.6399 7.80047 21.6399 7.84047C21.6399 7.88047 21.6299 7.93047 21.6099 7.96047C21.5899 8.00047 21.5599 8.02047 21.5199 8.04047L20.5499 8.42047C20.3399 8.50047 20.1399 8.64047 19.9899 8.83047C19.8299 9.02047 19.7099 9.24047 19.6399 9.49047L19.3199 10.6205C19.3199 10.6205 19.2899 10.7005 19.2499 10.7205C19.2199 10.7505 19.1799 10.7605 19.1399 10.7605C19.0999 10.7605 19.0599 10.7505 19.0299 10.7205C18.9999 10.6905 18.9799 10.6605 18.9599 10.6205L18.6399 9.49047C18.5699 9.24047 18.4499 9.02047 18.2899 8.83047C18.1299 8.64047 17.9399 8.51047 17.7299 8.42047L16.7599 8.04047H16.7699ZM14.2199 10.2905C14.2199 10.2905 14.1799 10.2705 14.1699 10.2405C14.1599 10.2205 14.1499 10.1905 14.1499 10.1705C14.1499 10.1505 14.1499 10.1205 14.1699 10.1005C14.1799 10.0805 14.1999 10.0605 14.2199 10.0505L14.7999 9.82047C15.0599 9.72047 15.2599 9.48047 15.3499 9.18047L15.5399 8.50047C15.5399 8.50047 15.5599 8.45047 15.5799 8.44047C15.5999 8.42047 15.6199 8.42047 15.6399 8.42047C15.6599 8.42047 15.6899 8.42047 15.6999 8.44047C15.7199 8.46047 15.7299 8.48047 15.7399 8.50047L15.9299 9.18047C15.9699 9.33047 16.0399 9.46047 16.1399 9.58047C16.2399 9.69047 16.3499 9.77047 16.4799 9.82047L17.0599 10.0505C17.0599 10.0505 17.0999 10.0705 17.1099 10.1005C17.1199 10.1205 17.1299 10.1505 17.1299 10.1705C17.1299 10.1905 17.1299 10.2205 17.1099 10.2405C17.0999 10.2605 17.0799 10.2805 17.0599 10.2905L16.4799 10.5205C16.3499 10.5705 16.2399 10.6505 16.1399 10.7605C16.0399 10.8705 15.9699 11.0105 15.9299 11.1605L15.7399 11.8405C15.7399 11.8405 15.7199 11.8905 15.6999 11.9005C15.6799 11.9205 15.6599 11.9205 15.6399 11.9205C15.6199 11.9205 15.5899 11.9205 15.5799 11.9005C15.5599 11.8805 15.5499 11.8605 15.5399 11.8405L15.3499 11.1605C15.3099 11.0105 15.2399 10.8805 15.1399 10.7605C15.0399 10.6505 14.9299 10.5705 14.7999 10.5205L14.2199 10.2905ZM13.6899 6.17047C13.6899 6.17047 13.6599 6.15047 13.6499 6.14047C13.6499 6.13047 13.6399 6.11047 13.6399 6.09047C13.6399 6.07047 13.6399 6.06047 13.6499 6.04047C13.6499 6.03047 13.6699 6.01047 13.6899 6.01047L14.0799 5.86047C14.2499 5.79047 14.3899 5.63047 14.4499 5.43047L14.5799 4.98047C14.5799 4.98047 14.5899 4.95047 14.6099 4.94047C14.6199 4.93047 14.6399 4.92047 14.6499 4.92047C14.6599 4.92047 14.6799 4.92047 14.6899 4.94047C14.6999 4.95047 14.7099 4.96047 14.7199 4.98047L14.8499 5.43047C14.8799 5.53047 14.9299 5.62047 14.9899 5.69047C15.0499 5.76047 15.1299 5.82047 15.2199 5.85047L15.6099 6.00047C15.6099 6.00047 15.6399 6.02047 15.6499 6.03047C15.6499 6.04047 15.6599 6.06047 15.6599 6.08047C15.6599 6.10047 15.6599 6.11047 15.6499 6.13047C15.6399 6.15047 15.6299 6.16047 15.6099 6.16047L15.2199 6.31047C15.1299 6.34047 15.0599 6.40047 14.9899 6.47047C14.9299 6.54047 14.8799 6.63047 14.8499 6.73047L14.7199 7.18047C14.7199 7.18047 14.7099 7.21047 14.6899 7.22047C14.6799 7.23047 14.6599 7.24047 14.6499 7.24047C14.6399 7.24047 14.6199 7.24047 14.6099 7.22047C14.5999 7.21047 14.5899 7.20047 14.5799 7.18047L14.4499 6.73047C14.3899 6.53047 14.2599 6.37047 14.0799 6.30047L13.6899 6.15047V6.17047Z" fill="black"/>
</svg>
