<svg width="29" height="24" viewBox="0 0 29 24" stroke="none" fill="var(--color-white)" xmlns="http://www.w3.org/2000/svg">
<g id="Search">
<path id="Vector" d="M14.9 1.92505V1.92544H15C20.5571 1.92544 25.0473 6.44224 25.0473 12V12.0001C25.0487 13.3199 24.7897 14.627 24.2853 15.8466C23.7809 17.0662 23.0408 18.1744 22.1076 19.1076C21.1744 20.0408 20.0662 20.7809 18.8466 21.2853C17.627 21.7897 16.3199 22.0487 15.0001 22.0473H14.9999C13.6801 22.0487 12.373 21.7897 11.1534 21.2853C9.93378 20.7809 8.82564 20.0408 7.8924 19.1076C6.95916 18.1744 6.21914 17.0662 5.71471 15.8466C5.21028 14.627 4.95134 13.3199 4.95272 12.0001V12C4.95272 6.4756 9.38918 1.97886 14.9 1.92505ZM19.06 7.16V7.02106L18.9282 7.06518L12.7682 9.1279L12.7 9.15075V9.22272V14.0054C12.4573 13.8891 12.1912 13.8273 11.9207 13.8254H11.92C10.8977 13.8254 10.06 14.6622 10.06 15.6854C10.06 16.7069 10.8976 17.5454 11.92 17.5454C12.9424 17.5454 13.78 16.7069 13.78 15.6854V9.92723L17.98 8.50931V13.1254C17.7373 13.0091 17.4713 12.9473 17.2007 12.9454H17.2C16.1777 12.9454 15.34 13.7822 15.34 14.8054C15.34 15.8269 16.1776 16.6654 17.2 16.6654C18.2224 16.6654 19.06 15.8269 19.06 14.8054V7.16ZM15 0.9C8.87453 0.9 3.9 5.87453 3.9 12C3.9 18.1255 8.87453 23.1 15 23.1C21.1255 23.1 26.1 18.1255 26.1 12C26.1 5.87453 21.1255 0.9 15 0.9ZM17.2 14.0254C17.6359 14.0254 17.98 14.3688 17.98 14.8054C17.98 15.2413 17.6358 15.5854 17.2 15.5854C16.7642 15.5854 16.42 15.2413 16.42 14.8054C16.42 14.3688 16.7641 14.0254 17.2 14.0254ZM11.92 14.9054C12.3559 14.9054 12.7 15.2488 12.7 15.6854C12.7 16.1213 12.3558 16.4654 11.92 16.4654C11.4842 16.4654 11.14 16.1213 11.14 15.6854C11.14 15.2488 11.4841 14.9054 11.92 14.9054Z"  stroke-width="0.2"/>
</g>
</svg>
