<svg width="21" height="21" viewBox="0 0 21 21" fill="none" xmlns="http://www.w3.org/2000/svg">
<g clip-path="url(#clip0_6549_595137)">
<path fill-rule="evenodd" clip-rule="evenodd" d="M14.7104 15.1059L19.037 19.4318C19.2838 19.6786 19.685 19.6786 19.9318 19.4318C20.1786 19.185 20.1786 18.7838 19.9318 18.537L15.6059 14.2104C16.8399 12.7721 17.5859 10.9021 17.5859 8.85938C17.5859 4.31895 13.8998 0.632812 9.35938 0.632812C4.81895 0.632812 1.13281 4.31895 1.13281 8.85938C1.13281 13.3998 4.81895 17.0859 9.35938 17.0859C11.4021 17.0859 13.2721 16.3399 14.7104 15.1059ZM9.35938 1.89844C13.2012 1.89844 16.3203 5.01757 16.3203 8.85938C16.3203 12.7012 13.2012 15.8203 9.35938 15.8203C5.51757 15.8203 2.39844 12.7012 2.39844 8.85938C2.39844 5.01757 5.51757 1.89844 9.35938 1.89844Z" fill="black"/>
<path fill-rule="evenodd" clip-rule="evenodd" d="M9.99219 8.22741C9.46316 7.82937 8.80566 7.59396 8.09375 7.59396C6.34719 7.59396 4.92969 9.01146 4.92969 10.758C4.92969 12.5046 6.34719 13.9221 8.09375 13.9221C9.84031 13.9221 11.2578 12.5046 11.2578 10.758V5.06271L12.7766 6.20178C13.0563 6.41124 13.453 6.35492 13.6625 6.07521C13.872 5.79551 13.8156 5.39874 13.5359 5.18928C13.5359 5.18928 12.7221 4.57861 12.0172 4.05021C11.6337 3.76228 11.1205 3.71609 10.6921 3.93061C10.263 4.14514 9.99219 4.58304 9.99219 5.06271V8.22741ZM8.09375 8.85959C9.14169 8.85959 9.99219 9.71009 9.99219 10.758C9.99219 11.806 9.14169 12.6565 8.09375 12.6565C7.04581 12.6565 6.19531 11.806 6.19531 10.758C6.19531 9.71009 7.04581 8.85959 8.09375 8.85959Z" fill="black"/>
</g>
<defs>
<clipPath id="clip0_6549_595137">
<rect width="20.25" height="20.25" fill="white" transform="translate(0.5)"/>
</clipPath>
</defs>
</svg>
