<svg xmlns="http://www.w3.org/2000/svg" width="11.748" height="19.914" viewBox="0 0 11.748 19.914">
  <g id="Group_608" data-name="Group 608" transform="translate(1613.58 1016.746) rotate(180)">
    <path id="Line_7" data-name="Line 7" d="M7.748,9.748a1.994,1.994,0,0,1-1.414-.586L-1.414,1.414a2,2,0,0,1,0-2.828,2,2,0,0,1,2.828,0L9.163,6.334A2,2,0,0,1,7.748,9.748Z" transform="translate(1603.832 998.832)" fill="#fff"/>
    <path id="Line_8" data-name="Line 8" d="M0,9.748a1.994,1.994,0,0,1-1.414-.586,2,2,0,0,1,0-2.828L6.334-1.414a2,2,0,0,1,2.828,0,2,2,0,0,1,0,2.828L1.414,9.163A1.994,1.994,0,0,1,0,9.748Z" transform="translate(1603.832 1006.998)" fill="#fff"/>
  </g>
</svg>
