<svg width="41" height="41" viewBox="0 0 41 41" fill="none" xmlns="http://www.w3.org/2000/svg">
<path d="M20.4967 9.83594C20.0417 9.83594 19.6733 10.2043 19.6733 10.6593L19.6733 30.3326C19.6733 30.7876 20.0417 31.1559 20.4967 31.1559C20.9517 31.1559 21.32 30.7876 21.32 30.3326L21.32 10.6593C21.32 10.2043 20.9517 9.83594 20.4967 9.83594Z" fill="#FFA1B4"/>
<path d="M40.17 9.83594C39.715 9.83594 39.3467 10.2043 39.3467 10.6593L39.3467 30.3326C39.3467 30.7876 39.715 31.1559 40.17 31.1559C40.625 31.1559 40.9933 30.7876 40.9933 30.3326L40.9933 10.6593C40.9933 10.2043 40.625 9.83594 40.17 9.83594Z" fill="#FFA1B4"/>
<path d="M0.823333 9.83594C0.368334 9.83594 0 10.2043 0 10.6593L2.40107e-09 30.3326C2.45437e-09 30.7876 0.368334 31.1559 0.823333 31.1559C1.27833 31.1559 1.64667 30.7876 1.64667 30.3326L1.64667 10.6593C1.64667 10.2043 1.27833 9.83594 0.823333 9.83594Z" fill="#FFA1B4"/>
<path d="M15.5783 4.92188C15.1233 4.92188 14.755 5.29021 14.755 5.74521L14.755 35.2552C14.755 35.7102 15.1233 36.0785 15.5783 36.0785C16.0333 36.0785 16.4017 35.7102 16.4017 35.2552L16.4017 5.74521C16.4017 5.29021 16.0333 4.92188 15.5783 4.92188Z" fill="#FFA1B4"/>
<path d="M25.415 4.92188C24.96 4.92188 24.5917 5.29021 24.5917 5.74521L24.5917 35.2552C24.5917 35.7102 24.96 36.0785 25.415 36.0785C25.87 36.0785 26.2383 35.7102 26.2383 35.2552L26.2383 5.74521C26.2383 5.29021 25.87 4.92188 25.415 4.92188Z" fill="#FFA1B4"/>
<path d="M35.2517 4.92188C34.7967 4.92188 34.4283 5.29021 34.4283 5.74521L34.4283 35.2552C34.4283 35.7102 34.7967 36.0785 35.2517 36.0785C35.7067 36.0785 36.075 35.7102 36.075 35.2552L36.075 5.74521C36.075 5.29021 35.7067 4.92188 35.2517 4.92188Z" fill="#FFA1B4"/>
<path d="M10.66 4.70568e-09C10.205 4.75898e-09 9.83667 0.368334 9.83667 0.823333L9.83667 40.17C9.83667 40.625 10.205 40.9933 10.66 40.9933C11.115 40.9933 11.4833 40.625 11.4833 40.17L11.4833 0.823333C11.4833 0.368334 11.115 4.65238e-09 10.66 4.70568e-09Z" fill="#FFA1B4"/>
<path d="M30.3333 4.70568e-09C29.8783 4.75898e-09 29.51 0.368334 29.51 0.823333L29.51 40.17C29.51 40.625 29.8783 40.9933 30.3333 40.9933C30.7883 40.9933 31.1567 40.625 31.1567 40.17L31.1567 0.823333C31.1567 0.368334 30.7883 4.65238e-09 30.3333 4.70568e-09Z" fill="#FFA1B4"/>
<path d="M5.74167 4.92188C5.28667 4.92188 4.91833 5.29021 4.91833 5.74521L4.91833 35.2552C4.91833 35.7102 5.28667 36.0785 5.74167 36.0785C6.19667 36.0785 6.565 35.7102 6.565 35.2552L6.565 5.74521C6.565 5.29021 6.19667 4.92188 5.74167 4.92188Z" fill="#FFA1B4"/>
</svg>
