<svg width="35" height="35" viewBox="0 0 35 35" fill="none" xmlns="http://www.w3.org/2000/svg">
<path fill-rule="evenodd" clip-rule="evenodd" d="M24.5612 26.1089L32.0392 33.5858C32.4658 34.0123 33.1592 34.0123 33.5858 33.5858C34.0123 33.1592 34.0123 32.4658 33.5858 32.0392L26.1089 24.5612C28.2417 22.0752 29.5312 18.8431 29.5312 15.3125C29.5312 7.46484 23.1602 1.09375 15.3125 1.09375C7.46484 1.09375 1.09375 7.46484 1.09375 15.3125C1.09375 23.1602 7.46484 29.5312 15.3125 29.5312C18.8431 29.5312 22.0752 28.2417 24.5612 26.1089ZM15.3125 3.28125C21.9527 3.28125 27.3438 8.67234 27.3438 15.3125C27.3438 21.9527 21.9527 27.3438 15.3125 27.3438C8.67234 27.3438 3.28125 21.9527 3.28125 15.3125C3.28125 8.67234 8.67234 3.28125 15.3125 3.28125Z" fill="white"/>
<path fill-rule="evenodd" clip-rule="evenodd" d="M16.4062 14.2202C15.4919 13.5322 14.3555 13.1254 13.125 13.1254C10.1063 13.1254 7.65625 15.5754 7.65625 18.5941C7.65625 21.6129 10.1063 24.0629 13.125 24.0629C16.1438 24.0629 18.5938 21.6129 18.5938 18.5941V8.75037L21.2188 10.7191C21.7022 11.0812 22.388 10.9838 22.75 10.5004C23.112 10.0169 23.0147 9.33115 22.5312 8.96912C22.5312 8.96912 21.1247 7.91365 19.9063 7.00037C19.2434 6.50271 18.3564 6.42287 17.6159 6.79365C16.8744 7.16443 16.4062 7.92131 16.4062 8.75037V14.2202ZM13.125 15.3129C14.9363 15.3129 16.4062 16.7829 16.4062 18.5941C16.4062 20.4054 14.9363 21.8754 13.125 21.8754C11.3138 21.8754 9.84375 20.4054 9.84375 18.5941C9.84375 16.7829 11.3138 15.3129 13.125 15.3129Z" fill="white"/>
</svg>
