<svg width="24" height="24" viewBox="0 0 24 24" fill="none" xmlns="http://www.w3.org/2000/svg">
<g clip-path="url(#clip0_1048_304941)">
<path fill-rule="evenodd" clip-rule="evenodd" d="M16.842 17.9033L21.9698 23.0303C22.2623 23.3228 22.7378 23.3228 23.0303 23.0303C23.3228 22.7378 23.3228 22.2623 23.0303 21.9698L17.9033 16.842C19.3658 15.1373 20.25 12.921 20.25 10.5C20.25 5.11875 15.8813 0.75 10.5 0.75C5.11875 0.75 0.75 5.11875 0.75 10.5C0.75 15.8813 5.11875 20.25 10.5 20.25C12.921 20.25 15.1373 19.3658 16.842 17.9033ZM10.5 2.25C15.0533 2.25 18.75 5.94675 18.75 10.5C18.75 15.0533 15.0533 18.75 10.5 18.75C5.94675 18.75 2.25 15.0533 2.25 10.5C2.25 5.94675 5.94675 2.25 10.5 2.25Z" fill="var(--color-white)"/>
<path fill-rule="evenodd" clip-rule="evenodd" d="M11.25 9.751C10.623 9.27925 9.84375 9.00025 9 9.00025C6.93 9.00025 5.25 10.6803 5.25 12.7503C5.25 14.8203 6.93 16.5003 9 16.5003C11.07 16.5003 12.75 14.8203 12.75 12.7503V6.00025L14.55 7.35025C14.8815 7.5985 15.3517 7.53175 15.6 7.20025C15.8482 6.86875 15.7815 6.3985 15.45 6.15025C15.45 6.15025 14.4855 5.4265 13.65 4.80025C13.1955 4.459 12.5873 4.40425 12.0795 4.6585C11.571 4.91275 11.25 5.43175 11.25 6.00025V9.751ZM9 10.5003C10.242 10.5003 11.25 11.5083 11.25 12.7503C11.25 13.9923 10.242 15.0003 9 15.0003C7.758 15.0003 6.75 13.9923 6.75 12.7503C6.75 11.5083 7.758 10.5003 9 10.5003Z" fill="var(--color-white)"/>
</g>
<defs>
<clipPath id="clip0_1048_304941">
<rect width="24" height="24" fill="var(--color-white)"/>
</clipPath>
</defs>
</svg>
