<svg width="34" height="19" viewBox="0 0 34 19" fill="none" xmlns="http://www.w3.org/2000/svg">
<path d="M16.9651 0.000119486C16.2503 0.000119486 15.6574 0.478638 15.6574 1.05568V17.9446C15.6574 18.5216 16.2503 19.0001 16.9651 19.0001C17.68 19.0001 18.2728 18.5216 18.2728 17.9446V1.05568C18.2728 0.478638 17.68 0.000119486 16.9651 0.000119486ZM11.7344 2.81493C11.0195 2.81493 10.4267 3.29345 10.4267 3.87049V15.1297C10.4267 15.7068 11.0195 16.1853 11.7344 16.1853C12.4492 16.1853 13.0421 15.7068 13.0421 15.1297V3.87049C13.0421 3.29345 12.4492 2.81493 11.7344 2.81493ZM6.50359 5.62975C5.78872 5.62975 5.1959 6.10827 5.1959 6.6853V12.3149C5.1959 12.892 5.78872 13.3705 6.50359 13.3705C7.21846 13.3705 7.81128 12.892 7.81128 12.3149V6.6853C7.81128 6.10827 7.21846 5.62975 6.50359 5.62975ZM22.1959 4.22234C21.481 4.22234 20.8882 4.70086 20.8882 5.2779V13.7223C20.8882 14.2994 21.481 14.7779 22.1959 14.7779C22.9108 14.7779 23.5036 14.2994 23.5036 13.7223V5.2779C23.5036 4.70086 22.9108 4.22234 22.1959 4.22234ZM27.4267 1.40753C26.7118 1.40753 26.119 1.88605 26.119 2.46308V16.5372C26.119 17.1142 26.7118 17.5927 27.4267 17.5927C28.1415 17.5927 28.7344 17.1142 28.7344 16.5372V2.46308C28.7344 1.88605 28.1415 1.40753 27.4267 1.40753ZM32.6923 8.44456C31.9774 8.44456 31.3846 8.92308 31.3846 9.50012C31.3846 10.0772 31.9774 10.5557 32.6923 10.5557C33.4072 10.5557 34 10.0772 34 9.50012C34 8.92308 33.4246 8.44456 32.6923 8.44456ZM1.30769 8.44456C0.592821 8.44456 0 8.92308 0 9.50012C0 10.0772 0.592821 10.5557 1.30769 10.5557C2.02256 10.5557 2.61538 10.0772 2.61538 9.50012C2.61538 8.92308 2.04 8.44456 1.30769 8.44456Z" fill="var(--color-white)"/>
</svg>
