<svg width="47" height="46" viewBox="0 0 47 46" fill="none" xmlns="http://www.w3.org/2000/svg">
<path d="M6.045 45.4133L12.9567 29.9217L3.965 32.5L10.4867 26.3467L2.80717e-09 23.9633L10.2917 21.8617L1.58167 16.0983L11.3533 17.485L8.53667 13.39L14.8417 15.8383L5.80667 -6.80219e-10L18.3733 13.4333L20.8217 7.8L22.3383 15.73L30.485 2.99L27.69 16.1633L36.6383 12.8267L30.2683 20.1933L46.3233 23.27L30.6583 25.3933L39.325 33.8217L28.405 28.925L34.3633 40.5817L24.96 31.6983L27.7767 40.6683L22.3383 33.9733L20.8867 44.5467L18.1567 32.435L6.06667 45.4567L6.045 45.4133ZM15.86 27.4083L11.5267 37.1367L19.045 29.0333L20.475 35.4033L21.2117 30.0083L23.66 33.0417L21.515 26.2167L28.6 32.9117L24.83 25.545L31.5467 28.5783L27.105 24.245L36.205 23.01L27.17 21.2767L31.2217 16.5967L25.4583 18.7417L27.0183 11.4183L21.4933 20.0633L20.1933 13.2817L18.85 16.3583L14.04 11.2233L18.4817 19.0017L12.8267 16.8133L14.755 19.63L8.45 18.7417L14.4083 22.685L7.67 24.0717L13.78 25.4583L9.90167 29.12L15.8167 27.43L15.86 27.4083Z" fill="#FFA1B4"/>
</svg>
