<svg width="41" height="42" viewBox="0 0 41 42" fill="none" xmlns="http://www.w3.org/2000/svg">
<path d="M0.92625 28.1665C0.687917 28.1665 0.449583 28.0798 0.27625 27.9065C-0.0920833 27.5381 -0.0920833 26.9531 0.27625 26.6065C1.38125 25.5015 1.98792 24.0498 1.98792 22.4898C1.98792 20.9298 1.38125 19.4781 0.27625 18.3731C-0.0920833 18.0048 -0.0920833 17.4198 0.27625 17.0731C0.644583 16.7048 1.22958 16.7048 1.57625 17.0731C3.02792 18.5248 3.82958 20.4531 3.82958 22.4898C3.82958 24.5265 3.02792 26.4548 1.57625 27.9065C1.40292 28.0798 1.16458 28.1665 0.92625 28.1665Z" fill="#FFA1B4"/>
<path d="M3.95958 31.1941C3.72124 31.1941 3.48291 31.1074 3.30958 30.9341C2.94124 30.5657 2.94124 29.9807 3.30958 29.6341C5.21624 27.7274 6.27791 25.1924 6.27791 22.4841C6.27791 19.7757 5.21624 17.2407 3.30958 15.3341C2.94124 14.9657 2.94124 14.3807 3.30958 14.0341C3.67791 13.6657 4.26291 13.6657 4.60957 14.0341C6.86291 16.2874 8.11958 19.2774 8.11958 22.4841C8.11958 25.6907 6.88457 28.6807 4.60957 30.9341C4.43624 31.1074 4.19791 31.1941 3.95958 31.1941Z" fill="#FFA1B4"/>
<path d="M6.9929 34.2295C6.75457 34.2295 6.51623 34.1428 6.3429 33.9695C5.97457 33.6011 5.97457 33.0161 6.3429 32.6695C9.05123 29.9395 10.5679 26.3211 10.5679 22.4861C10.5679 18.6511 9.0729 15.0328 6.3429 12.3028C5.97457 11.9345 5.97457 11.3495 6.3429 11.0028C6.71123 10.6345 7.29623 10.6345 7.6429 11.0028C10.7196 14.0795 12.3879 18.1528 12.3879 22.4861C12.3879 26.8195 10.6979 30.8928 7.6429 33.9695C7.46957 34.1428 7.23123 34.2511 6.9929 34.2511L6.9929 34.2295Z" fill="#FFA1B4"/>
<path d="M40.4679 12.907C39.9262 5.99534 34.0979 0.340338 27.1862 0.0153385C23.5029 -0.157995 20.0362 1.142 17.5012 3.69867C14.9662 6.25534 13.6662 9.67867 13.8612 13.362C13.8829 13.9037 14.3379 14.3153 14.9012 14.2937C15.4429 14.272 15.8762 13.7953 15.8329 13.2537C15.6812 10.1337 16.7645 7.23034 18.9095 5.08534C21.0545 2.94034 23.9579 1.83534 27.0995 1.987C32.9279 2.26867 38.0412 7.23034 38.4962 13.0587C38.7129 15.9403 37.6945 18.237 35.9612 20.9887L32.3429 25.7987C32.3429 25.7987 32.2995 25.8637 32.2779 25.8853C30.3712 29.0487 30.0895 30.2837 30.2195 32.6237C30.3062 34.357 29.7212 36.762 28.2262 38.2787C27.1212 39.3837 25.6262 39.9037 23.7629 39.817C19.1695 39.5787 18.3245 35.0937 18.3029 34.8987C18.2162 34.357 17.7179 33.9887 17.1545 34.097C16.6129 34.1837 16.2445 34.7037 16.3529 35.2453C16.7212 37.412 18.7145 41.572 23.6762 41.8103C23.8495 41.8103 24.0012 41.8103 24.1745 41.8103C26.3629 41.8103 28.2479 41.0737 29.6345 39.687C31.6929 37.6287 32.2995 34.552 32.2129 32.537C32.1262 30.6953 32.2129 29.8287 33.9679 26.947L37.5862 22.1587C37.5862 22.1587 37.6079 22.1153 37.6295 22.0937C39.5362 19.0603 40.7712 16.352 40.4895 12.907L40.4679 12.907Z" fill="#FFA1B4"/>
<path d="M20.8162 17.1751C21.2495 17.2834 21.7262 17.0667 21.9212 16.6551C21.9212 16.6551 23.0478 14.5317 26.2328 14.5317C26.2762 14.5317 26.2978 14.5317 26.3412 14.5317C28.7895 14.5751 29.8078 16.3517 29.9378 17.8901C30.0678 19.3851 29.3962 21.1401 27.6628 21.4651C20.0145 22.8734 20.7728 28.9401 20.7728 29.0051C20.8378 29.5034 21.2712 29.8501 21.7478 29.8501C21.7912 29.8501 21.8345 29.8501 21.8778 29.8501C22.4195 29.7851 22.7878 29.2867 22.7228 28.7451C22.7012 28.5717 22.2028 24.4984 28.0095 23.4151C30.8262 22.8951 32.1045 20.1651 31.8878 17.7384C31.6712 15.2034 29.8728 12.6251 26.3412 12.5817C24.3912 12.5384 22.9828 13.1234 22.0078 13.7951L22.0078 13.4917C21.9428 12.1051 22.4195 10.8267 23.3728 9.87339C24.3262 8.92006 25.5828 8.44339 26.9912 8.50839C29.7212 8.63839 31.3245 10.6317 32.1912 12.2784C32.4512 12.7551 33.0362 12.9501 33.5345 12.6901C34.0112 12.4301 34.2062 11.8451 33.9462 11.3467C32.3862 8.35672 29.9595 6.64506 27.0778 6.51506C25.1278 6.42839 23.3078 7.12172 21.9645 8.46506C20.6212 9.80839 19.9278 11.6284 20.0362 13.5134L20.0362 16.2001C20.0362 16.6551 20.3395 17.0667 20.7728 17.1534L20.8162 17.1751Z" fill="#FFA1B4"/>
</svg>
