<svg width="33" height="36" viewBox="0 0 33 36" fill="none" xmlns="http://www.w3.org/2000/svg">
<path d="M16.5 0.226562C7.40231 0.226562 0 8.04277 0 17.6491C0 27.2555 7.40231 35.0717 16.5 35.0717C25.5977 35.0717 33 27.2555 33 17.6491C33 8.04277 25.5977 0.226562 16.5 0.226562ZM24.0694 25.3761C23.9918 25.4932 23.893 25.593 23.7788 25.6697C23.6646 25.7465 23.5372 25.7987 23.4038 25.8234C23.2705 25.8481 23.1338 25.8447 23.0017 25.8136C22.8696 25.7824 22.7446 25.724 22.6339 25.6418C18.7667 22.7714 12.3337 22.6124 7.99013 23.6817C7.85809 23.714 7.72131 23.7186 7.58761 23.6951C7.45391 23.6716 7.3259 23.6205 7.21089 23.5448C7.09588 23.469 6.99613 23.3701 6.91732 23.2537C6.83851 23.1372 6.7822 23.0055 6.75159 22.8661C6.72099 22.7267 6.71669 22.5823 6.73894 22.4411C6.76119 22.2999 6.80956 22.1648 6.88129 22.0433C6.95301 21.9219 7.04669 21.8165 7.15696 21.7333C7.26724 21.6501 7.39196 21.5907 7.524 21.5583C12.2987 20.391 19.4349 20.6044 23.8178 23.8603C24.0413 24.0262 24.1934 24.279 24.2406 24.5632C24.2878 24.8474 24.2262 25.1398 24.0694 25.3761ZM26.0824 21.1271C26.0033 21.2433 25.9033 21.3418 25.7882 21.4171C25.673 21.4925 25.545 21.5431 25.4113 21.5662C25.2776 21.5892 25.1409 21.5843 25.009 21.5515C24.8772 21.5188 24.7527 21.4589 24.6427 21.3754C20.1568 17.9758 14.6458 17.1308 7.29094 18.7163C7.15822 18.745 7.02144 18.7459 6.88841 18.7188C6.75538 18.6917 6.6287 18.6373 6.51561 18.5585C6.40251 18.4797 6.30522 18.3782 6.22928 18.2597C6.15335 18.1413 6.10025 18.0082 6.07303 17.868C6.04581 17.7279 6.045 17.5835 6.07064 17.443C6.09628 17.3025 6.14787 17.1687 6.22247 17.0493C6.29706 16.9299 6.39321 16.8272 6.5054 16.747C6.6176 16.6668 6.74366 16.6108 6.87638 16.582C14.8314 14.8681 20.8581 15.8263 25.8452 19.6048C26.0673 19.7739 26.217 20.029 26.2614 20.3143C26.3059 20.5996 26.2415 20.8918 26.0824 21.1271ZM28.116 15.4212C28.04 15.5397 27.9425 15.6412 27.8293 15.7199C27.7161 15.7986 27.5893 15.8529 27.4562 15.8798C27.323 15.9067 27.1862 15.9057 27.0534 15.8767C26.9207 15.8477 26.7947 15.7913 26.6826 15.7109C20.9963 11.6362 12.3523 11.6166 6.75675 13.7073C6.62891 13.7549 6.49344 13.7755 6.35807 13.7678C6.2227 13.7601 6.09009 13.7244 5.9678 13.6626C5.84551 13.6008 5.73595 13.5142 5.64536 13.4077C5.55478 13.3012 5.48494 13.1769 5.43984 13.042C5.39475 12.907 5.37527 12.7639 5.38253 12.621C5.38979 12.478 5.42364 12.338 5.48215 12.2089C5.54066 12.0798 5.62268 11.9641 5.72354 11.8684C5.82439 11.7728 5.9421 11.699 6.06994 11.6514C12.1564 9.37995 21.5882 9.42786 27.8438 13.9076C28.0691 14.0709 28.2243 14.3217 28.2753 14.6052C28.3263 14.8887 28.269 15.1821 28.116 15.4212Z" fill="#A2D2A2"/>
</svg>
