<svg width="17" height="16" viewBox="0 0 17 16" fill="none" xmlns="http://www.w3.org/2000/svg">
<path d="M8.33008 0C3.91908 0 0.330078 3.589 0.330078 8C0.330078 12.411 3.91908 16 8.33008 16C12.7411 16 16.3301 12.411 16.3301 8C16.3301 3.589 12.7411 0 8.33008 0ZM12.0001 11.548C11.9624 11.6018 11.9146 11.6476 11.8592 11.6829C11.8038 11.7181 11.742 11.7421 11.6774 11.7534C11.6127 11.7647 11.5465 11.7632 11.4824 11.7489C11.4184 11.7346 11.3578 11.7078 11.3041 11.67C9.42908 10.352 6.31008 10.279 4.20408 10.77C4.14006 10.7848 4.07374 10.7869 4.00892 10.7761C3.94409 10.7653 3.88203 10.7419 3.82627 10.7071C3.7705 10.6723 3.72214 10.6269 3.68393 10.5735C3.64572 10.52 3.61842 10.4595 3.60358 10.3955C3.58874 10.3315 3.58665 10.2652 3.59744 10.2003C3.60823 10.1355 3.63169 10.0735 3.66646 10.0177C3.70124 9.96193 3.74665 9.91356 3.80012 9.87535C3.85359 9.83714 3.91406 9.80984 3.97808 9.795C6.29308 9.259 9.75308 9.357 11.8781 10.852C11.9865 10.9282 12.0602 11.0443 12.0831 11.1748C12.106 11.3053 12.0761 11.4395 12.0001 11.548ZM12.9761 9.597C12.9377 9.65033 12.8893 9.69558 12.8334 9.73017C12.7776 9.76476 12.7155 9.78801 12.6507 9.7986C12.5859 9.80919 12.5196 9.8069 12.4557 9.79187C12.3917 9.77684 12.3314 9.74936 12.2781 9.711C10.1031 8.15 7.43108 7.762 3.86508 8.49C3.80073 8.5032 3.73441 8.50359 3.66991 8.49116C3.60541 8.47873 3.54399 8.45371 3.48916 8.41755C3.43433 8.38138 3.38715 8.33476 3.35034 8.28036C3.31352 8.22597 3.28778 8.16485 3.27458 8.1005C3.26138 8.03615 3.26099 7.96984 3.27342 7.90533C3.28585 7.84083 3.31086 7.77941 3.34703 7.72458C3.3832 7.66975 3.42981 7.62258 3.48421 7.58576C3.53861 7.54894 3.59973 7.5232 3.66408 7.51C7.52108 6.723 10.4431 7.163 12.8611 8.898C12.9688 8.97563 13.0414 9.09275 13.0629 9.22376C13.0845 9.35476 13.0532 9.48896 12.9761 9.597ZM13.9621 6.977C13.9252 7.0314 13.878 7.07801 13.8231 7.11414C13.7682 7.15027 13.7067 7.17523 13.6422 7.18758C13.5776 7.19994 13.5112 7.19944 13.4469 7.18613C13.3825 7.17282 13.3214 7.14695 13.2671 7.11C10.5101 5.239 6.31908 5.23 3.60608 6.19C3.54409 6.21186 3.47841 6.22131 3.41278 6.21779C3.34714 6.21427 3.28285 6.19786 3.22356 6.16949C3.16427 6.14112 3.11114 6.10135 3.06722 6.05245C3.0233 6.00355 2.98944 5.94648 2.96758 5.8845C2.94571 5.82252 2.93627 5.75683 2.93979 5.6912C2.94331 5.62557 2.95972 5.56127 2.98809 5.50198C3.01646 5.44269 3.05623 5.38957 3.10513 5.34565C3.15402 5.30172 3.21109 5.26786 3.27308 5.246C6.22408 4.203 10.7971 4.225 13.8301 6.282C13.9394 6.35696 14.0146 6.4721 14.0393 6.6023C14.064 6.7325 14.0363 6.86719 13.9621 6.977Z" fill="black"/>
</svg>
