<svg xmlns="http://www.w3.org/2000/svg" width="67" height="25" viewBox="0 0 67 25"><defs><style>.a,.b{fill:#fff;}.a{opacity:0;}</style></defs><g transform="translate(-121 -245)"><rect class="a" width="67" height="25" transform="translate(121 245)"/><path class="b" d="M9.6,0a9.6,9.6,0,1,0,9.6,9.6A9.6,9.6,0,0,0,9.6,0ZM14,13.844a.6.6,0,0,1-.823.2c-2.254-1.377-5.091-1.688-8.432-.925a.6.6,0,1,1-.266-1.167c3.656-.835,6.793-.476,9.323,1.071A.6.6,0,0,1,14,13.844Zm1.175-2.614a.748.748,0,0,1-1.029.247,12.6,12.6,0,0,0-9.565-1.119.748.748,0,1,1-.435-1.432A14,14,0,0,1,14.929,10.2a.748.748,0,0,1,.246,1.029Zm.1-2.722C12.183,6.671,7.079,6.5,4.125,7.4A.9.9,0,1,1,3.6,5.681c3.391-1.029,9.027-.83,12.589,1.284a.9.9,0,1,1-.916,1.544Zm10.838.352c-1.657-.4-1.952-.673-1.952-1.255,0-.551.518-.921,1.289-.921a3.767,3.767,0,0,1,2.265.861.109.109,0,0,0,.154-.024L28.68,6.38a.109.109,0,0,0-.021-.148,4.9,4.9,0,0,0-3.183-1.1c-1.789,0-3.04,1.074-3.04,2.61,0,1.648,1.079,2.231,2.942,2.681,1.585.365,1.853.671,1.853,1.218,0,.606-.541.983-1.412.983a3.812,3.812,0,0,1-2.64-1.09.112.112,0,0,0-.079-.026.107.107,0,0,0-.075.038l-.908,1.08a.109.109,0,0,0,.01.151,5.409,5.409,0,0,0,3.654,1.4c1.928,0,3.174-1.053,3.174-2.684,0-1.376-.821-2.138-2.839-2.629Zm7.2-1.634a2.6,2.6,0,0,0-2.087,1V7.471a.108.108,0,0,0-.108-.109H29.64a.108.108,0,0,0-.108.109v8.436a.109.109,0,0,0,.108.109h1.484a.109.109,0,0,0,.108-.109V13.244a2.67,2.67,0,0,0,2.087.944,3.2,3.2,0,0,0,3.126-3.481,3.2,3.2,0,0,0-3.125-3.482Zm1.4,3.482a1.789,1.789,0,0,1-1.743,1.976,1.844,1.844,0,0,1-1.78-1.976,1.844,1.844,0,0,1,1.78-1.976,1.809,1.809,0,0,1,1.743,1.976Zm5.755-3.482a3.488,3.488,0,1,0,3.554,3.482,3.5,3.5,0,0,0-3.554-3.482Zm0,5.469a1.888,1.888,0,0,1-1.866-1.988A1.843,1.843,0,0,1,40.45,8.743a1.893,1.893,0,0,1,1.877,1.989A1.848,1.848,0,0,1,40.474,12.7ZM48.3,7.362H46.666V5.692a.108.108,0,0,0-.108-.109H45.074a.109.109,0,0,0-.109.109v1.67h-.713a.108.108,0,0,0-.108.109V8.746a.108.108,0,0,0,.108.109h.713v3.3a1.765,1.765,0,0,0,1.974,2.009,2.7,2.7,0,0,0,1.389-.346.106.106,0,0,0,.055-.094V12.51a.108.108,0,0,0-.052-.092.105.105,0,0,0-.105,0,1.874,1.874,0,0,1-.871.21c-.476,0-.689-.217-.689-.7V8.855H48.3a.108.108,0,0,0,.108-.109V7.471a.105.105,0,0,0-.107-.109Zm5.69.007V7.163c0-.6.232-.872.75-.872a2.508,2.508,0,0,1,.837.154.108.108,0,0,0,.142-.1V5.092a.107.107,0,0,0-.077-.1,4.065,4.065,0,0,0-1.233-.177c-1.37,0-2.1.772-2.1,2.231v.314H51.6a.109.109,0,0,0-.109.109V8.746a.109.109,0,0,0,.109.109h.713v5.09a.109.109,0,0,0,.109.109H53.9a.108.108,0,0,0,.109-.109V8.855H55.4l2.123,5.089c-.241.534-.478.641-.8.641a1.7,1.7,0,0,1-.818-.233.118.118,0,0,0-.086-.008.108.108,0,0,0-.064.058l-.5,1.1a.108.108,0,0,0,.047.141,3.123,3.123,0,0,0,1.584.406c1.1,0,1.7-.511,2.235-1.884l2.574-6.652a.109.109,0,0,0-.1-.148H60.044a.109.109,0,0,0-.1.073l-1.583,4.52L56.625,7.439a.108.108,0,0,0-.1-.07H53.989Zm-3.3-.007H49.206a.109.109,0,0,0-.109.109v6.474a.109.109,0,0,0,.109.109H50.69a.109.109,0,0,0,.109-.109V7.471a.109.109,0,0,0-.109-.109Zm-.734-2.948A1.064,1.064,0,1,0,51.02,5.478,1.064,1.064,0,0,0,49.956,4.414Z" transform="translate(124 248)"/></g></svg>