<svg width="16" height="14" viewBox="0 0 16 14" fill="none" xmlns="http://www.w3.org/2000/svg">
<path d="M6.24553 6.23342C5.91553 6.1051 5.91553 5.56149 6.24553 5.43317L8.18254 4.68075C8.60834 4.51513 8.99522 4.2361 9.31252 3.86576C9.62981 3.49541 9.8688 3.04395 10.0105 2.54714L10.6555 0.28872C10.7655 -0.0962387 11.2315 -0.0962387 11.3415 0.28872L11.9866 2.54831C12.1285 3.04503 12.3677 3.49634 12.6852 3.86648C13.0027 4.23662 13.3897 4.5154 13.8156 4.68075L15.7516 5.43317C15.8238 5.46083 15.8868 5.51441 15.9314 5.58627C15.976 5.65812 16 5.74457 16 5.83329C16 5.92201 15.976 6.00846 15.9314 6.08032C15.8868 6.15217 15.8238 6.20575 15.7516 6.23341L13.8146 6.98583C13.3889 7.15133 13.0021 7.43019 12.6848 7.80032C12.3675 8.17045 12.1284 8.62168 11.9866 9.11827L11.3415 11.3779C11.3178 11.4622 11.2719 11.5356 11.2103 11.5876C11.1487 11.6396 11.0746 11.6677 10.9985 11.6677C10.9225 11.6677 10.8484 11.6396 10.7868 11.5876C10.7252 11.5356 10.6793 11.4622 10.6555 11.3779L10.0105 9.11827C9.86867 8.62168 9.62962 8.17045 9.31233 7.80032C8.99505 7.43019 8.60823 7.15133 8.18254 6.98583L6.24553 6.23342ZM1.14651 10.7398C1.1032 10.723 1.06552 10.6908 1.03881 10.6477C1.0121 10.6045 0.99772 10.5527 0.99772 10.4995C0.99772 10.4462 1.0121 10.3944 1.03881 10.3512C1.06552 10.3081 1.1032 10.2759 1.14651 10.2592L2.30851 9.8077C2.82651 9.60589 3.23252 9.13227 3.40552 8.528L3.79252 7.17248C3.80686 7.12196 3.83448 7.078 3.87146 7.04684C3.90844 7.01569 3.9529 6.99891 3.99852 6.99891C4.04414 6.99891 4.0886 7.01569 4.12558 7.04684C4.16256 7.078 4.19018 7.12196 4.20452 7.17248L4.59152 8.528C4.67664 8.82602 4.82009 9.09683 5.0105 9.31895C5.20091 9.54107 5.43305 9.70841 5.68853 9.8077L6.85053 10.2592C6.89384 10.2759 6.93152 10.3081 6.95823 10.3512C6.98494 10.3944 6.99932 10.4462 6.99932 10.4995C6.99932 10.5527 6.98494 10.6045 6.95823 10.6477C6.93152 10.6908 6.89384 10.723 6.85053 10.7398L5.68853 11.1912C5.43305 11.2905 5.20091 11.4578 5.0105 11.68C4.82009 11.9021 4.67664 12.1729 4.59152 12.4709L4.20452 13.8264C4.19018 13.877 4.16256 13.9209 4.12558 13.9521C4.0886 13.9832 4.04414 14 3.99852 14C3.9529 14 3.90844 13.9832 3.87146 13.9521C3.83448 13.9209 3.80686 13.877 3.79252 13.8264L3.40552 12.4709C3.3204 12.1729 3.17695 11.9021 2.98654 11.68C2.79613 11.4578 2.56399 11.2905 2.30851 11.1912L1.14651 10.7398ZM0.0975026 2.49348C0.0690288 2.48197 0.0443383 2.46039 0.0268639 2.43175C0.00938949 2.4031 -4.61579e-07 2.36882 -4.62974e-07 2.33367C-4.64369e-07 2.29851 0.00938948 2.26423 0.0268639 2.23559C0.0443383 2.20695 0.0690288 2.18537 0.0975026 2.17385L0.871506 1.87288C1.21751 1.73873 1.48851 1.4226 1.60351 1.01898L1.86151 0.116074C1.87138 0.082858 1.88988 0.0540542 1.91443 0.0336694C1.93899 0.0132846 1.96837 0.00233164 1.99851 0.00233164C2.02865 0.00233164 2.05803 0.0132846 2.08259 0.0336694C2.10714 0.0540542 2.12564 0.082858 2.13551 0.116074L2.39351 1.01898C2.45024 1.21789 2.54593 1.39863 2.673 1.54686C2.80006 1.69508 2.955 1.80671 3.12552 1.87288L3.89952 2.17385C3.92799 2.18537 3.95268 2.20695 3.97016 2.23559C3.98763 2.26423 3.99702 2.29851 3.99702 2.33367C3.99702 2.36882 3.98763 2.4031 3.97016 2.43175C3.95268 2.46039 3.92799 2.48197 3.89952 2.49348L3.12552 2.79445C2.955 2.86062 2.80006 2.97225 2.673 3.12048C2.54593 3.26871 2.45024 3.44945 2.39351 3.64836L2.13551 4.5501C2.12564 4.58331 2.10714 4.61211 2.08259 4.6325C2.05804 4.65288 2.02865 4.66384 1.99851 4.66384C1.96837 4.66384 1.93899 4.65288 1.91443 4.6325C1.88988 4.61211 1.87138 4.58331 1.86151 4.5501L1.60351 3.64719C1.48851 3.24357 1.21751 2.92744 0.871506 2.79329L0.0975026 2.49348Z" fill="white"/>
</svg>
