<svg xmlns="http://www.w3.org/2000/svg" width="25" height="25" viewBox="0 0 25 25"><defs><style>.a,.b{fill:#a5a5a5;}.a{opacity:0;}</style></defs><g transform="translate(-1696 -757)"><rect class="a" width="25" height="25" transform="translate(1696 757)"/><path class="b" d="M3.191-482.874a3.241,3.241,0,0,0-2.585,2.365,3.93,3.93,0,0,0-.021,1.5,3.221,3.221,0,0,0,.788,1.458,3.288,3.288,0,0,0,1.5.907,2.3,2.3,0,0,0,.827.077,2.5,2.5,0,0,0,1.231-.223l.181-.077.22.15c1.2.837,2.466,1.727,2.466,1.741s-1.263.9-2.466,1.741l-.22.15-.181-.077a2.5,2.5,0,0,0-1.231-.223,2.306,2.306,0,0,0-.827.077,3.241,3.241,0,0,0-2.131,1.894,2.683,2.683,0,0,0-.213,1.2,2.694,2.694,0,0,0,.293,1.34,3.178,3.178,0,0,0,2.03,1.716,3.873,3.873,0,0,0,1.462.049,3.172,3.172,0,0,0,2.281-1.81,3.221,3.221,0,0,0,0-2.627.975.975,0,0,1-.1-.286c.028-.052,2.156-1.521,2.184-1.514s1.42.984,3.119,2.173,3.188,2.208,3.307,2.264a2.659,2.659,0,0,0,1.486.216,3.126,3.126,0,0,0,1.067-.4,3.121,3.121,0,0,0,.67-.628c.035-.063-.272-.286-3.656-2.651-2.03-1.42-3.691-2.588-3.691-2.6s1.66-1.179,3.691-2.6c3.384-2.365,3.691-2.588,3.656-2.651a1.976,1.976,0,0,0-.248-.279,2.648,2.648,0,0,0-2.976-.537c-.119.056-1.608,1.078-3.307,2.264s-3.1,2.166-3.119,2.173-2.156-1.462-2.184-1.514a.975.975,0,0,1,.1-.286,3.221,3.221,0,0,0,0-2.627,3.177,3.177,0,0,0-2.257-1.807A4.862,4.862,0,0,0,3.191-482.874Zm1.092,1.615a1.66,1.66,0,0,1,1.036,1.807,1.667,1.667,0,0,1-1.165,1.315,1.994,1.994,0,0,1-.9,0,1.75,1.75,0,0,1-.98-.76,1.656,1.656,0,0,1,.966-2.407A1.915,1.915,0,0,1,4.283-481.258ZM4.217-471.8a1.721,1.721,0,0,1,.659.422,1.64,1.64,0,0,1-.174,2.445,1.638,1.638,0,0,1-2.473-.583,1.614,1.614,0,0,1,.324-1.887A1.656,1.656,0,0,1,4.217-471.8Z" transform="translate(1699.077 1244.48)"/></g></svg>