<svg width="21" height="22" viewBox="0 0 21 22" fill="none" xmlns="http://www.w3.org/2000/svg">
<path d="M0.230469 11.0002C0.230469 5.3284 4.8284 0.730469 10.5002 0.730469C16.1721 0.730469 20.77 5.3284 20.77 11.0002C20.77 16.6721 16.1721 21.27 10.5002 21.27C4.8284 21.27 0.230469 16.6721 0.230469 11.0002ZM10.2194 5.92101C10.1342 5.95628 10.0543 6.0083 9.98464 6.0771L9.98124 6.0805L6.31376 9.74798C6.02728 10.0344 6.02728 10.4989 6.31376 10.7854C6.60023 11.0719 7.06468 11.0719 7.35115 10.7854L9.76667 8.36986V15.4016C9.76667 15.8066 10.0951 16.1351 10.5002 16.1351C10.9054 16.1351 11.2338 15.8066 11.2338 15.4016V8.36986L13.6492 10.7854C13.9358 11.0719 14.4002 11.0719 14.6868 10.7854C14.9731 10.4989 14.9731 10.0344 14.6868 9.74798L11.0192 6.0805L11.0158 6.0771C10.8833 5.94617 10.7012 5.86535 10.5002 5.86535C10.4008 5.86535 10.3059 5.88514 10.2194 5.92101Z" fill="var(--color-card)"/>
</svg>
