<svg width="20" height="21" viewBox="0 0 20 21" fill="none" xmlns="http://www.w3.org/2000/svg">
<path fill-rule="evenodd" clip-rule="evenodd" d="M4.79167 8.95833C4.28546 8.95833 3.875 9.3688 3.875 9.875V15.7083C3.875 16.2145 4.28546 16.625 4.79167 16.625H15.2083C15.7145 16.625 16.125 16.2145 16.125 15.7083V9.875C16.125 9.3688 15.7145 8.95833 15.2083 8.95833H14.375C13.9608 8.95833 13.625 8.62255 13.625 8.20833C13.625 7.79412 13.9608 7.45833 14.375 7.45833H15.2083C16.543 7.45833 17.625 8.54037 17.625 9.875V15.7083C17.625 17.043 16.543 18.125 15.2083 18.125H4.79167C3.45704 18.125 2.375 17.043 2.375 15.7083V9.875C2.375 8.54037 3.45704 7.45833 4.79167 7.45833H5.625C6.03921 7.45833 6.375 7.79412 6.375 8.20833C6.375 8.62255 6.03921 8.95833 5.625 8.95833H4.79167Z" fill="white"/>
<path fill-rule="evenodd" clip-rule="evenodd" d="M10 3.70833C10.4142 3.70833 10.75 4.04412 10.75 4.45833V14.0417C10.75 14.4559 10.4142 14.7917 10 14.7917C9.58579 14.7917 9.25 14.4559 9.25 14.0417V4.45833C9.25 4.04412 9.58579 3.70833 10 3.70833Z" fill="white"/>
<path fill-rule="evenodd" clip-rule="evenodd" d="M9.46967 3.09467C9.76256 2.80178 10.2374 2.80178 10.5303 3.09467L13.0303 5.59467C13.3232 5.88756 13.3232 6.36244 13.0303 6.65533C12.7374 6.94822 12.2626 6.94822 11.9697 6.65533L10 4.68566L8.03033 6.65533C7.73744 6.94822 7.26256 6.94822 6.96967 6.65533C6.67678 6.36244 6.67678 5.88756 6.96967 5.59467L9.46967 3.09467Z" fill="white"/>
</svg>
