<svg width="33" height="33" viewBox="0 0 33 33" fill="none" xmlns="http://www.w3.org/2000/svg">
<path d="M0 16.4998C0 7.3872 7.3872 0 16.4998 0C25.6123 0 32.9995 7.3872 32.9995 16.4998C32.9995 25.6123 25.6123 32.9995 16.4998 32.9995C7.3872 32.9995 0 25.6123 0 16.4998ZM16.0486 8.33931C15.9117 8.39597 15.7832 8.47955 15.6714 8.59008L15.6659 8.59555L9.77363 14.4878C9.31336 14.9481 9.31336 15.6943 9.77363 16.1546C10.2339 16.6148 10.9801 16.6148 11.4403 16.1546L15.3212 12.2737V23.5711C15.3212 24.2219 15.8489 24.7496 16.4998 24.7496C17.1506 24.7496 17.6783 24.2219 17.6783 23.5711V12.2737L21.559 16.1546C22.0194 16.6148 22.7657 16.6148 23.226 16.1546C23.6861 15.6943 23.6861 14.9481 23.226 14.4878L17.3336 8.59555L17.3281 8.59008C17.1152 8.37973 16.8227 8.24988 16.4998 8.24988C16.34 8.24988 16.1876 8.28167 16.0486 8.33931Z" fill="white"/>
</svg>
