<svg width="32" height="45" viewBox="0 0 32 45" fill="none" xmlns="http://www.w3.org/2000/svg">
<path d="M24.2017 32.8307L24.2017 29.4724C24.2017 28.7574 24.2017 27.8474 23.335 26.9807C22.6417 26.2657 21.4717 26.2224 20.67 26.5474C20.3017 25.5074 19.305 24.7707 18.135 24.7707C17.485 24.7707 16.8783 25.0091 16.4017 25.3991C15.925 24.6191 15.08 24.0991 14.105 24.0991C13.6067 24.0991 13.1517 24.2291 12.7617 24.4674L12.7617 18.7257C12.7617 17.2524 11.5483 16.0391 10.075 16.0391C8.60166 16.0391 7.38833 17.2524 7.38833 18.7257L7.38833 28.9091C7.25833 28.7791 7.10667 28.6274 6.97667 28.4974C5.915 27.3924 4.615 26.0491 2.94667 26.0924C1.95 26.1357 1.01833 26.6774 0.151666 27.7174C0.0649993 27.8257 1.39597e-09 27.9557 1.41881e-09 28.1507C1.43912e-09 28.3241 0.0650003 28.4974 0.195 28.6274C0.195 28.6274 2.12333 30.5774 3.40167 33.7841L3.55333 34.1741C4.50667 36.6874 7.41 44.2924 15.47 44.2924C20.15 44.2924 22.49 42.5807 23.53 38.3991C23.985 36.5574 24.2233 34.2174 24.2233 32.8524L24.2017 32.8307ZM22.2083 38.0524C21.32 41.6057 19.5 42.9274 15.4483 42.9274C8.32 42.9274 5.655 35.9507 4.78833 33.6757C4.72333 33.5241 4.68 33.3724 4.63667 33.2641C3.61833 30.7291 2.25333 28.9307 1.56 28.1291C2.03667 27.6741 2.535 27.4357 2.99 27.4141C4.07333 27.3707 5.135 28.4974 6.00167 29.4074C6.5 29.9274 6.93333 30.3824 7.38833 30.6207L7.38833 31.5091C7.38833 31.5091 7.38833 31.9207 6.93333 32.3757C6.67333 32.6357 6.67333 33.0691 6.93333 33.3291C7.19333 33.5891 7.62667 33.5891 7.88667 33.3291C8.73167 32.4624 8.73167 31.5741 8.73167 31.5091L8.73167 18.7257C8.73167 17.9891 9.33833 17.3824 10.075 17.3824C10.8117 17.3824 11.4183 17.9891 11.4183 18.7257L11.4183 28.1507C11.4183 28.5191 11.7217 28.8224 12.09 28.8224C12.4583 28.8224 12.7617 28.5191 12.7617 28.1507L12.7617 26.8074C12.7617 26.0707 13.3683 25.4641 14.105 25.4641C14.8417 25.4641 15.4483 26.0707 15.4483 26.8074L15.4483 28.1507C15.4483 28.5191 15.7517 28.8224 16.12 28.8224C16.4883 28.8224 16.7917 28.5191 16.7917 28.1507L16.7917 27.4791C16.7917 26.7424 17.3983 26.1357 18.135 26.1357C18.8717 26.1357 19.4783 26.7424 19.4783 27.4791L19.4783 28.8224C19.4783 29.1907 19.7817 29.4941 20.15 29.4941C20.5183 29.4941 20.8217 29.1907 20.8217 28.8224L20.8217 28.1507C20.8217 27.9774 20.995 27.8907 21.1467 27.8257C21.5583 27.6524 22.1217 27.7174 22.36 27.9557C22.8367 28.4324 22.8367 28.8874 22.8367 29.4941L22.8367 32.8524C22.8367 34.1307 22.62 36.3407 22.1867 38.0741L22.2083 38.0524Z" fill="#FFA1B4"/>
<path d="M3.33666 21.3955C3.16332 21.3955 2.98999 21.3305 2.85999 21.2005C2.40499 20.7455 1.32166 19.3589 1.32166 16.6939C1.32166 14.0289 2.40499 12.6422 2.85999 12.1872C3.11999 11.9272 3.55332 11.9272 3.81332 12.1872C4.07332 12.4472 4.07332 12.8805 3.81332 13.1405C3.55332 13.4005 2.66499 14.4622 2.66499 16.6939C2.66499 18.9255 3.55332 19.9872 3.81332 20.2472C4.07332 20.5072 4.07332 20.9405 3.81332 21.2005C3.68332 21.3305 3.50999 21.3955 3.33666 21.3955Z" fill="#FFA1B4"/>
<path d="M5.35163 19.3811C5.1783 19.3811 5.00497 19.3161 4.87497 19.1861C4.7883 19.0995 4.0083 18.2761 4.0083 16.6945C4.0083 15.1128 4.7883 14.2895 4.87497 14.2028C5.13497 13.9428 5.5683 13.9428 5.8283 14.2028C6.0883 14.4628 6.0883 14.8961 5.8283 15.1561C5.8283 15.1561 5.35163 15.6761 5.35163 16.6945C5.35163 17.7128 5.80663 18.2328 5.8283 18.2545C6.0883 18.5145 6.06663 18.9478 5.8283 19.2078C5.6983 19.3378 5.52497 19.4028 5.35163 19.4028L5.35163 19.3811Z" fill="#FFA1B4"/>
<path d="M17.4417 18.5976C19.1534 18.5976 20.54 17.2109 20.54 15.4992L20.54 9.10758L29.8351 6.44258L29.8351 11.2743C29.3801 11.0143 28.86 10.8409 28.2967 10.8409C26.585 10.8409 25.1984 12.2276 25.1984 13.9392C25.1984 15.6509 26.585 17.0376 28.2967 17.0376C30.0084 17.0376 31.395 15.6509 31.395 13.9392L31.395 0.787583C31.395 0.54925 31.2867 0.310917 31.0917 0.15925C30.8967 0.00758324 30.6367 -0.03575 30.4201 0.02925L19.5867 3.12758C19.2617 3.21425 19.0234 3.51758 19.0234 3.86425L19.0234 12.8126C18.5684 12.5526 18.0484 12.3793 17.4851 12.3793C15.7734 12.3793 14.3867 13.7659 14.3867 15.4776C14.3867 17.1892 15.7734 18.5759 17.4851 18.5759L17.4417 18.5976ZM28.275 15.4992C27.43 15.4992 26.7367 14.8059 26.7367 13.9609C26.7367 13.1159 27.43 12.4226 28.275 12.4226C29.12 12.4226 29.8134 13.1159 29.8134 13.9609C29.8134 14.8059 29.12 15.4992 28.275 15.4992ZM29.8351 1.80592L29.8351 4.83925L20.54 7.50425L20.54 4.47092L29.8351 1.82758L29.8351 1.80592ZM17.4417 13.9609C18.2867 13.9609 18.9801 14.6543 18.9801 15.4992C18.9801 16.3443 18.2867 17.0376 17.4417 17.0376C16.5967 17.0376 15.9034 16.3443 15.9034 15.4992C15.9034 14.6543 16.5967 13.9609 17.4417 13.9609Z" fill="#FFA1B4"/>
</svg>
