<svg width="32" height="35" viewBox="0 0 32 35" fill="none" xmlns="http://www.w3.org/2000/svg">
<path d="M28.6328 13.9454H7.41885L12.4669 11.9967L12.4691 11.9959L21.3633 8.56246C21.3648 8.56191 21.3663 8.56129 21.3678 8.56072L29.6045 5.38113C29.8232 5.29673 30.0241 5.16747 30.1957 5.00072C30.3673 4.83396 30.5062 4.63299 30.6046 4.40928C30.7029 4.18557 30.7587 3.9435 30.7689 3.6969C30.779 3.4503 30.7432 3.204 30.6636 2.97206L30.0687 1.23761C29.9074 0.769371 29.5776 0.388081 29.1517 0.177386C28.7257 -0.0333088 28.2383 -0.0562043 27.7965 0.113722L11.6235 6.35727L11.6227 6.35757L2.11702 10.0272C1.89829 10.1116 1.69737 10.2408 1.52574 10.4076C1.35411 10.5743 1.21512 10.7753 1.11672 10.999C1.01832 11.2227 0.962423 11.4647 0.952232 11.7114C0.942041 11.958 0.977751 12.2043 1.05732 12.4363L1.35705 13.31C1.17857 13.5927 1.05529 13.9106 0.994467 14.2447C0.965345 14.3116 0.950241 14.3844 0.950195 14.4581V32.4366C0.950916 33.1162 1.20579 33.7678 1.65891 34.2484C2.11203 34.729 2.72638 34.9993 3.36719 35.0001H28.6328C29.2736 34.9993 29.888 34.729 30.3411 34.2484C30.7942 33.7678 31.0491 33.1162 31.0498 32.4366V16.5089C31.0491 15.8292 30.7942 15.1776 30.3411 14.697C29.888 14.2165 29.2736 13.9461 28.6328 13.9454ZM22.895 14.9708H26.7352L25.9985 18.252H22.1584L22.895 14.9708ZM18.061 14.9708H21.9012L21.1646 18.252H17.3244L18.061 14.9708ZM13.227 14.9708H17.0672L16.3306 18.252H12.4904L13.227 14.9708ZM8.39302 14.9708H12.2332L11.4966 18.252H7.65641L8.39302 14.9708ZM28.1272 1.07723C28.3281 1 28.5497 1.01044 28.7433 1.10626C28.937 1.20207 29.0869 1.37543 29.1602 1.58832L29.7551 3.32277C29.7913 3.42818 29.8076 3.54012 29.803 3.65221C29.7984 3.76429 29.773 3.87431 29.7283 3.97599C29.6836 4.07766 29.6205 4.169 29.5425 4.24478C29.4645 4.32056 29.3732 4.37929 29.2738 4.41762L25.8201 5.75084L25.4281 2.11921L28.1272 1.07723ZM24.494 2.47984L24.8859 6.11145L21.6081 7.37676L21.1636 3.76554L24.494 2.47984ZM20.2328 4.12487L20.6773 7.73607L17.2545 9.05736L16.8743 5.42139L20.2328 4.12487ZM15.9394 5.78233L16.3196 9.41828L12.7197 10.8079L12.3036 7.18593L15.9394 5.78233ZM11.371 7.54595L11.7871 11.1679L8.42183 12.467L8.03019 8.83566L11.371 7.54595ZM1.99277 11.4327C2.03733 11.3308 2.10048 11.2393 2.17858 11.1634C2.25668 11.0875 2.34817 11.0289 2.44779 10.9907L7.09599 9.19631L7.48762 12.8276L5.52765 13.5843C5.3787 13.2681 5.16967 12.988 4.91369 12.7617C4.65771 12.5355 4.36034 12.3678 4.04029 12.2694C3.72024 12.1709 3.38444 12.1438 3.05402 12.1898C2.72361 12.2357 2.40574 12.3537 2.12042 12.5363L1.9658 12.0856C1.92934 11.9803 1.91295 11.8683 1.91758 11.7562C1.92221 11.6442 1.94777 11.5342 1.99277 11.4327ZM3.36719 13.1934C3.69107 13.1939 4.00552 13.3092 4.26056 13.5209C4.51561 13.7326 4.69661 14.0287 4.77481 14.3621L4.77554 14.3654C4.84733 14.6762 4.82595 15.0029 4.71439 15.3002C4.60283 15.5975 4.40664 15.8504 4.15314 16.0238C3.89964 16.1973 3.60146 16.2825 3.30012 16.2678C2.99878 16.253 2.70929 16.1389 2.47196 15.9414C2.23463 15.7439 2.06129 15.4728 1.97606 15.1659C1.89084 14.859 1.89798 14.5315 1.9965 14.2291C2.09502 13.9267 2.28 13.6645 2.52568 13.4788C2.77137 13.2932 3.06553 13.1934 3.36719 13.1934ZM1.91699 16.7809C2.2605 17.0548 2.66669 17.2265 3.09365 17.2784C3.52062 17.3302 3.95289 17.2603 4.34588 17.0758C4.73886 16.8914 5.07833 16.599 5.32925 16.229C5.58017 15.8589 5.73346 15.4246 5.7733 14.9708H7.39921L6.66261 18.252H1.91699V16.7809ZM1.91699 23.379H8.26563V29.5313H1.91699V23.379ZM30.083 32.4366C30.0826 32.8444 29.9297 33.2353 29.6578 33.5237C29.3859 33.812 29.0173 33.9742 28.6328 33.9747H3.36719C2.9827 33.9742 2.61409 33.812 2.34222 33.5237C2.07035 33.2353 1.91742 32.8444 1.91699 32.4366V30.5567H30.083V32.4366ZM9.23242 29.5313V23.379H15.5166V29.5313H9.23242ZM16.4834 29.5313V23.379H22.7676V29.5313H16.4834ZM30.083 29.5313H23.7344V23.379H30.083V29.5313ZM30.083 22.3536H1.91699V19.2774H7.04267C7.04338 19.2774 7.04411 19.2775 7.04482 19.2775L7.04631 19.2774H11.8767C11.8774 19.2774 11.8781 19.2775 11.8788 19.2775L11.8803 19.2774H16.7106C16.7114 19.2774 16.7121 19.2775 16.7128 19.2775L16.7143 19.2774H21.5446C21.5453 19.2774 21.5461 19.2775 21.5468 19.2775L21.5483 19.2774H26.3786C26.3793 19.2774 26.38 19.2775 26.3808 19.2775L26.3822 19.2774H30.083V22.3536ZM30.083 18.252H26.9924L27.729 14.9708H28.6328C29.0173 14.9712 29.3859 15.1334 29.6578 15.4218C29.9297 15.7101 30.0826 16.1011 30.083 16.5089V18.252Z" fill="var(--color-white)"/>
</svg>
