<svg width="40" height="41" viewBox="0 0 40 41" fill="none" xmlns="http://www.w3.org/2000/svg">
<g clip-path="url(#clip0_6927_76797)">
<path d="M22.1664 14.8772C22.4838 15.7237 22.669 16.6495 22.669 17.6017C22.669 21.8604 19.2171 25.2991 14.9716 25.2991C10.7261 25.2991 7.27417 21.8472 7.27417 17.6017C7.27417 13.3562 10.7261 9.9043 14.9716 9.9043C15.7784 9.9043 16.5587 10.0233 17.2861 10.2614" stroke="white" stroke-width="0.75" stroke-linejoin="round"/>
<path d="M23.489 23.9369L28.991 29.4388C29.4406 29.8885 29.4406 30.6291 28.991 31.092C28.5413 31.5417 27.8006 31.5417 27.3377 31.092L21.8358 25.5901C21.3861 25.1404 21.3861 24.3998 21.8358 23.9369C22.2855 23.4872 23.0261 23.4872 23.489 23.9369Z" stroke="white" stroke-width="0.75" stroke-linejoin="round"/>
<path d="M20.6852 22.7734L21.8358 23.9373" stroke="white" stroke-width="0.75" stroke-linejoin="round"/>
<path d="M21.5183 11.1337C21.3067 11.0543 21.3067 10.684 21.5183 10.6046L22.8012 10.1021C23.079 9.99625 23.3435 9.81108 23.5419 9.55979C23.7403 9.3085 23.9122 9.01754 24.0048 8.68689L24.428 7.19237C24.4941 6.94108 24.8116 6.94108 24.8777 7.19237L25.3009 8.68689C25.3935 9.01754 25.5522 9.3085 25.7638 9.55979C25.9754 9.81108 26.2267 9.98302 26.5177 10.1021L27.8006 10.6046C27.8006 10.6046 27.8932 10.6575 27.9196 10.7104C27.9461 10.7633 27.9593 10.8162 27.9593 10.8691C27.9593 10.9221 27.9461 10.9882 27.9196 11.0279C27.8932 11.0808 27.8535 11.1072 27.8006 11.1337L26.5177 11.6362C26.24 11.7421 25.9754 11.9272 25.777 12.1785C25.5654 12.4298 25.4067 12.7208 25.3141 13.0514L24.8909 14.5459C24.8909 14.5459 24.8512 14.6517 24.7983 14.6782C24.7587 14.7179 24.7058 14.7311 24.6529 14.7311C24.6 14.7311 24.547 14.7179 24.5074 14.6782C24.4677 14.6385 24.4412 14.5988 24.4148 14.5459L23.9916 13.0514C23.899 12.7208 23.7403 12.4298 23.5287 12.1785C23.317 11.9272 23.0658 11.7553 22.788 11.6362L21.5051 11.1337H21.5183ZM18.1458 14.1095C18.1458 14.1095 18.0929 14.083 18.0796 14.0433C18.0664 14.0169 18.0532 13.9772 18.0532 13.9508C18.0532 13.9243 18.0532 13.8846 18.0796 13.8582C18.0929 13.8317 18.1193 13.8053 18.1458 13.7921L18.9129 13.4879C19.2567 13.3556 19.5212 13.0382 19.6403 12.6414L19.8916 11.7421C19.8916 11.7421 19.918 11.6759 19.9445 11.6627C19.9709 11.6362 19.9974 11.6362 20.0238 11.6362C20.0503 11.6362 20.09 11.6362 20.1032 11.6627C20.1296 11.6891 20.1429 11.7156 20.1561 11.7421L20.4074 12.6414C20.4603 12.8398 20.5529 13.0117 20.6851 13.1704C20.8174 13.3159 20.9629 13.4217 21.1348 13.4879L21.9019 13.7921C21.9019 13.7921 21.9548 13.8185 21.968 13.8582C21.9812 13.8846 21.9945 13.9243 21.9945 13.9508C21.9945 13.9772 21.9945 14.0169 21.968 14.0433C21.9548 14.0698 21.9283 14.0962 21.9019 14.1095L21.1348 14.4137C20.9629 14.4798 20.8174 14.5856 20.6851 14.7311C20.5529 14.8766 20.4603 15.0617 20.4074 15.2601L20.1561 16.1595C20.1561 16.1595 20.1296 16.2256 20.1032 16.2388C20.0767 16.2653 20.0503 16.2653 20.0238 16.2653C19.9974 16.2653 19.9577 16.2653 19.9445 16.2388C19.918 16.2124 19.9048 16.1859 19.8916 16.1595L19.6403 15.2601C19.5874 15.0617 19.4948 14.8898 19.3625 14.7311C19.2303 14.5856 19.0848 14.4798 18.9129 14.4137L18.1458 14.1095ZM17.4448 8.66044C17.4448 8.66044 17.4051 8.63399 17.3919 8.62076C17.3919 8.60754 17.3787 8.58108 17.3787 8.55463C17.3787 8.52818 17.3787 8.51495 17.3919 8.4885C17.3919 8.47528 17.4183 8.44883 17.4448 8.44883L17.9606 8.25044C18.1854 8.15786 18.3706 7.94624 18.45 7.68173L18.6219 7.08657C18.6219 7.08657 18.6351 7.04689 18.6616 7.03366C18.6748 7.02044 18.7012 7.00721 18.7145 7.00721C18.7277 7.00721 18.7541 7.00721 18.7674 7.03366C18.7806 7.04689 18.7938 7.06012 18.807 7.08657L18.979 7.68173C19.0187 7.81399 19.0848 7.93302 19.1641 8.0256C19.2435 8.11818 19.3493 8.19754 19.4683 8.23721L19.9841 8.4356C19.9841 8.4356 20.0238 8.46205 20.037 8.47528C20.037 8.4885 20.0503 8.51495 20.0503 8.54141C20.0503 8.56786 20.0503 8.58108 20.037 8.60754C20.0238 8.63399 20.0106 8.64721 19.9841 8.64721L19.4683 8.8456C19.3493 8.88528 19.2567 8.96463 19.1641 9.05721C19.0848 9.14979 19.0187 9.26883 18.979 9.40108L18.807 9.99624C18.807 9.99624 18.7938 10.0359 18.7674 10.0491C18.7541 10.0624 18.7277 10.0756 18.7145 10.0756C18.7012 10.0756 18.6748 10.0756 18.6616 10.0491C18.6483 10.0359 18.6351 10.0227 18.6219 9.99624L18.45 9.40108C18.3706 9.13657 18.1987 8.92495 17.9606 8.83237L17.4448 8.63399V8.66044Z" fill="white"/>
</g>
<defs>
<clipPath id="clip0_6927_76797">
<rect width="39.9552" height="39.9552" fill="white" transform="translate(0 0.5)"/>
</clipPath>
</defs>
</svg>
