<svg width="22" height="22" viewBox="0 0 22 22" fill="none" xmlns="http://www.w3.org/2000/svg">
<path d="M15.375 10.9375H11.625V7.5625C11.625 7.41332 11.5592 7.27024 11.4419 7.16475C11.3247 7.05926 11.1658 7 11 7C10.8342 7 10.6753 7.05926 10.5581 7.16475C10.4408 7.27024 10.375 7.41332 10.375 7.5625V10.9375H6.625C6.45924 10.9375 6.30027 10.9968 6.18306 11.1023C6.06585 11.2077 6 11.3508 6 11.5C6 11.6492 6.06585 11.7923 6.18306 11.8977C6.30027 12.0032 6.45924 12.0625 6.625 12.0625H10.375V15.4375C10.375 15.5867 10.4408 15.7298 10.5581 15.8352C10.6753 15.9407 10.8342 16 11 16C11.1658 16 11.3247 15.9407 11.4419 15.8352C11.5592 15.7298 11.625 15.5867 11.625 15.4375V12.0625H15.375C15.5408 12.0625 15.6997 12.0032 15.8169 11.8977C15.9342 11.7923 16 11.6492 16 11.5C16 11.3508 15.9342 11.2077 15.8169 11.1023C15.6997 10.9968 15.5408 10.9375 15.375 10.9375Z" fill="white"/>
<circle cx="11" cy="11" r="10.5" stroke="white"/>
</svg>
