<svg width="22" height="22" viewBox="0 0 22 22" fill="none" xmlns="http://www.w3.org/2000/svg">
<path d="M17.7249 10.2878H12.0999V4.66284C12.0999 4.4142 12.0011 4.17574 11.8253 3.99993C11.6495 3.82411 11.411 3.72534 11.1624 3.72534C10.9137 3.72534 10.6753 3.82411 10.4994 3.99993C10.3236 4.17574 10.2249 4.4142 10.2249 4.66284V10.2878H4.59985C4.35121 10.2878 4.11276 10.3866 3.93694 10.5624C3.76113 10.7382 3.66235 10.9767 3.66235 11.2253C3.66235 11.474 3.76113 11.7124 3.93694 11.8883C4.11276 12.0641 4.35121 12.1628 4.59985 12.1628H10.2249V17.7878C10.2249 18.0365 10.3236 18.2749 10.4994 18.4508C10.6753 18.6266 10.9137 18.7253 11.1624 18.7253C11.411 18.7253 11.6495 18.6266 11.8253 18.4508C12.0011 18.2749 12.0999 18.0365 12.0999 17.7878V12.1628H17.7249C17.9735 12.1628 18.212 12.0641 18.3878 11.8883C18.5636 11.7124 18.6624 11.474 18.6624 11.2253C18.6624 10.9767 18.5636 10.7382 18.3878 10.5624C18.212 10.3866 17.9735 10.2878 17.7249 10.2878Z" fill="white"/>
<circle cx="11" cy="11" r="10.6571" stroke="white" stroke-width="0.685714"/>
</svg>
