<svg width="22" height="22" viewBox="0 0 22 22" fill="none" xmlns="http://www.w3.org/2000/svg">
<g clip-path="url(#clip0_5694_221778)">
<path d="M11 21.5C16.799 21.5 21.5 16.799 21.5 11C21.5 5.20101 16.799 0.5 11 0.5C5.20101 0.5 0.5 5.20101 0.5 11C0.5 16.799 5.20101 21.5 11 21.5Z" stroke="white"/>
<path d="M13.6906 16.2032C13.8888 16.4012 14 16.6686 14 16.9472C14 17.2259 13.8888 17.4933 13.6906 17.6913C13.5933 17.7891 13.4773 17.8667 13.3493 17.9197C13.2214 17.9727 13.0841 18 12.9454 18C12.8067 18 12.6693 17.9727 12.5414 17.9197C12.4135 17.8667 12.2974 17.7891 12.2001 17.6913L6.30889 11.7448C6.11097 11.5464 6 11.2788 6 11C6 10.7212 6.11097 10.4536 6.30889 10.2552L12.2001 4.30868C12.2974 4.21092 12.4135 4.13328 12.5414 4.08028C12.6693 4.02729 12.8067 4 12.9454 4C13.0841 4 13.2214 4.02729 13.3493 4.08028C13.4773 4.13328 13.5933 4.21092 13.6906 4.30868C13.8888 4.50669 14 4.77409 14 5.05275C14 5.33141 13.8888 5.59881 13.6906 5.79682L8.85919 11.0023L13.6906 16.2032Z" fill="white"/>
</g>
<defs>
<clipPath id="clip0_5694_221778">
<rect width="22" height="22" fill="white"/>
</clipPath>
</defs>
</svg>
