<svg width="21" height="21" viewBox="0 0 21 21" fill="none" xmlns="http://www.w3.org/2000/svg">
<g id="Available">
<g id="Shape">
<path d="M14.3956 8.99688C14.6885 8.70399 14.6885 8.22912 14.3956 7.93622C14.1027 7.64333 13.6278 7.64333 13.3349 7.93622L9.69857 11.5726L8.14556 10.0196C7.85267 9.72666 7.3778 9.72666 7.0849 10.0196C6.79201 10.3124 6.79201 10.7873 7.0849 11.0802L9.16824 13.1635C9.46113 13.4564 9.936 13.4564 10.2289 13.1635L14.3956 8.99688Z"/>
<path fill-rule="evenodd" clip-rule="evenodd" d="M10.7401 1.8833C6.06866 1.8833 2.28174 5.67023 2.28174 10.3416C2.28174 15.013 6.06866 18.8 10.7401 18.8C15.4115 18.8 19.1984 15.013 19.1984 10.3416C19.1984 5.67023 15.4115 1.8833 10.7401 1.8833ZM3.78174 10.3416C3.78174 6.49865 6.89709 3.3833 10.7401 3.3833C14.5831 3.3833 17.6984 6.49865 17.6984 10.3416C17.6984 14.1846 14.5831 17.3 10.7401 17.3C6.89709 17.3 3.78174 14.1846 3.78174 10.3416Z"/>
</g>
</g>
</svg>
