<svg width="20" height="21" viewBox="0 0 20 21" fill="none" xmlns="http://www.w3.org/2000/svg">
<g id="Reject">
<path id="Shape" fill-rule="evenodd" clip-rule="evenodd" d="M10.0003 3.69995C6.15734 3.69995 3.04199 6.8153 3.04199 10.6583C3.04199 14.5013 6.15734 17.6166 10.0003 17.6166C13.8433 17.6166 16.9587 14.5013 16.9587 10.6583C16.9587 6.8153 13.8433 3.69995 10.0003 3.69995ZM1.54199 10.6583C1.54199 5.98688 5.32892 2.19995 10.0003 2.19995C14.6717 2.19995 18.4587 5.98688 18.4587 10.6583C18.4587 15.3297 14.6717 19.1166 10.0003 19.1166C5.32892 19.1166 1.54199 15.3297 1.54199 10.6583ZM13.239 7.41962C13.5319 7.71251 13.5319 8.18739 13.239 8.48028L11.061 10.6583L13.239 12.8363C13.5319 13.1292 13.5319 13.6041 13.239 13.8969C12.9461 14.1898 12.4712 14.1898 12.1783 13.8969L10.0003 11.7189L7.82232 13.8969C7.52943 14.1898 7.05456 14.1898 6.76166 13.8969C6.46877 13.6041 6.46877 13.1292 6.76166 12.8363L8.93966 10.6583L6.76166 8.48028C6.46877 8.18739 6.46877 7.71251 6.76166 7.41962C7.05456 7.12673 7.52943 7.12673 7.82232 7.41962L10.0003 9.59762L12.1783 7.41962C12.4712 7.12673 12.9461 7.12673 13.239 7.41962Z" />
</g>
</svg>
