<svg width="12" height="12" viewBox="0 0 12 12" fill="none" xmlns="http://www.w3.org/2000/svg">
<path d="M4.89665 5.99996L0.202387 10.7949C-0.06752 11.0706 -0.0674045 11.5175 0.202387 11.7932C0.472293 12.0689 0.909843 12.0689 1.17974 11.7932L5.874 6.99827L10.5683 11.7932C10.8382 12.0689 11.2757 12.0689 11.5456 11.7932C11.8155 11.5175 11.8155 11.0706 11.5456 10.7949L6.85136 5.99996L11.5456 1.205C11.8154 0.929307 11.8154 0.48237 11.5456 0.206684C11.2757 -0.0688944 10.8382 -0.0688944 10.5683 0.206684L5.874 5.00164L1.17974 0.206684C0.909834 -0.0688944 0.472285 -0.0688944 0.202387 0.206684C-0.0674045 0.48238 -0.0674045 0.929316 0.202387 1.205L4.89665 5.99996Z" fill="#B4B4B4"/>
</svg>
