<svg width="8" height="4" viewBox="0 0 8 4" fill="none" xmlns="http://www.w3.org/2000/svg">
<path fill-rule="evenodd" clip-rule="evenodd" d="M7.88301 3.86672C8.039 3.71945 8.039 3.48127 7.88301 3.33437L4.57757 0.220606C4.50471 0.150906 4.41702 0.0954059 4.31982 0.0574816C4.22263 0.0195571 4.11797 5.84164e-08 4.0122 6.30397e-08C3.90643 6.76629e-08 3.80177 0.0195571 3.70458 0.0574816C3.60738 0.0954059 3.51969 0.150906 3.44683 0.220606L0.116998 3.35691C0.0425803 3.42809 0.000752934 3.52235 1.00505e-05 3.62055C-0.000732833 3.71875 0.0396645 3.81353 0.112998 3.88563C0.149212 3.92135 0.193107 3.94993 0.241963 3.9696C0.290819 3.98927 0.343598 3.99961 0.397029 3.99999C0.450461 4.00036 0.503409 3.99076 0.552593 3.97178C0.601778 3.9528 0.646153 3.92484 0.682969 3.88963L3.72962 1.01914C3.76605 0.984258 3.80991 0.956484 3.85852 0.937505C3.90714 0.918526 3.95949 0.908738 4.0124 0.908738C4.06531 0.908738 4.11766 0.918526 4.16628 0.937505C4.21489 0.956484 4.25875 0.984258 4.29519 1.01914L7.31783 3.86672C7.35423 3.90159 7.39806 3.92936 7.44664 3.94833C7.49522 3.96731 7.54754 3.97709 7.60042 3.97709C7.6533 3.97709 7.70562 3.96731 7.7542 3.94833C7.80278 3.92936 7.84661 3.90159 7.88301 3.86672Z" fill="white"/>
</svg>
