<svg width="16" height="20" viewBox="0 0 16 20" fill="none" xmlns="http://www.w3.org/2000/svg">
<path d="M14.6871 6.99769L14.3811 16.2601C14.355 17.0534 14.0208 17.8053 13.4495 18.3562C12.8781 18.9071 12.1146 19.2137 11.3209 19.2109H5.50651C4.71333 19.2138 3.95022 18.9076 3.37895 18.3573C2.80768 17.807 2.47316 17.0559 2.44632 16.2632L2.1403 6.99769C2.1336 6.79478 2.20779 6.59753 2.34653 6.44932C2.48527 6.30111 2.6772 6.21409 2.8801 6.20739C3.08301 6.2007 3.28026 6.27488 3.42847 6.41362C3.57668 6.55236 3.6637 6.74429 3.6704 6.9472L3.97642 16.2119C3.99165 16.6074 4.15956 16.9817 4.44488 17.256C4.73019 17.5303 5.11071 17.6834 5.50651 17.6831H11.3209C11.7172 17.6834 12.0981 17.5299 12.3835 17.2549C12.6689 16.9799 12.8365 16.6049 12.851 16.2089L13.157 6.9472C13.1637 6.74429 13.2507 6.55236 13.3989 6.41362C13.5471 6.27488 13.7444 6.2007 13.9473 6.20739C14.1502 6.21409 14.3421 6.30111 14.4809 6.44932C14.6196 6.59753 14.6938 6.79478 14.6871 6.99769ZM15.6993 3.91531C15.6993 4.11821 15.6186 4.31281 15.4752 4.45628C15.3317 4.59975 15.1371 4.68036 14.9342 4.68036H1.89395C1.69105 4.68036 1.49646 4.59975 1.35298 4.45628C1.20951 4.31281 1.12891 4.11821 1.12891 3.91531C1.12891 3.7124 1.20951 3.51781 1.35298 3.37434C1.49646 3.23086 1.69105 3.15026 1.89395 3.15026H4.2656C4.50801 3.15091 4.74198 3.06136 4.922 2.89902C5.10202 2.73668 5.2152 2.51317 5.23951 2.27199C5.29597 1.70622 5.56103 1.18174 5.98306 0.800727C6.40508 0.419715 6.95384 0.209466 7.52242 0.210945H9.30498C9.87355 0.209466 10.4223 0.419715 10.8443 0.800727C11.2664 1.18174 11.5314 1.70622 11.5879 2.27199C11.6122 2.51317 11.7254 2.73668 11.9054 2.89902C12.0854 3.06136 12.3194 3.15091 12.5618 3.15026H14.9334C15.1363 3.15026 15.3309 3.23086 15.4744 3.37434C15.6179 3.51781 15.6985 3.7124 15.6985 3.91531H15.6993ZM6.56763 3.15026H10.2613C10.1608 2.92055 10.095 2.67714 10.0662 2.42806C10.0472 2.23948 9.95897 2.06465 9.81848 1.93744C9.67798 1.81023 9.49527 1.7397 9.30574 1.73951H7.52318C7.33365 1.7397 7.15094 1.81023 7.01045 1.93744C6.86995 2.06465 6.78167 2.23948 6.76272 2.42806C6.73367 2.67718 6.66767 2.92059 6.56687 3.15026H6.56763ZM7.33804 14.7415V8.22712C7.33804 8.02422 7.25743 7.82962 7.11396 7.68615C6.97049 7.54268 6.77589 7.46207 6.57299 7.46207C6.37009 7.46207 6.17549 7.54268 6.03202 7.68615C5.88855 7.82962 5.80794 8.02422 5.80794 8.22712V14.7446C5.80794 14.9475 5.88855 15.1421 6.03202 15.2855C6.17549 15.429 6.37009 15.5096 6.57299 15.5096C6.77589 15.5096 6.97049 15.429 7.11396 15.2855C7.25743 15.1421 7.33804 14.9475 7.33804 14.7446V14.7415ZM11.021 14.7415V8.22712C11.021 8.02422 10.9404 7.82962 10.7969 7.68615C10.6534 7.54268 10.4588 7.46207 10.2559 7.46207C10.053 7.46207 9.85844 7.54268 9.71496 7.68615C9.57149 7.82962 9.49088 8.02422 9.49088 8.22712V14.7446C9.49088 14.9475 9.57149 15.1421 9.71496 15.2855C9.85844 15.429 10.053 15.5096 10.2559 15.5096C10.4588 15.5096 10.6534 15.429 10.7969 15.2855C10.9404 15.1421 11.021 14.9475 11.021 14.7446V14.7415Z"  stroke-width="0.5"/>
</svg>
