<svg width="25" height="23" viewBox="0 0 25 23" fill="none" xmlns="http://www.w3.org/2000/svg">
<path d="M23.2143 7.19601C23.2143 6.44266 23.1143 5.77767 22.9143 5.20103C22.7144 4.6244 22.4586 4.16634 22.147 3.82687C21.8355 3.4874 21.4565 3.21071 21.01 2.99679C20.5636 2.78288 20.1265 2.63872 19.6987 2.56431C19.2708 2.48991 18.8151 2.45271 18.3315 2.45271C17.8478 2.45271 17.327 2.57129 16.769 2.80845C16.2109 3.04562 15.6971 3.34324 15.2274 3.70131C14.7577 4.05938 14.3555 4.39421 14.0206 4.70578C13.6858 5.01735 13.4068 5.30334 13.1836 5.56376C13.0162 5.76837 12.7883 5.87068 12.5 5.87068C12.2117 5.87068 11.9838 5.76837 11.8164 5.56376C11.5932 5.30334 11.3142 5.01735 10.9794 4.70578C10.6445 4.39421 10.2423 4.05938 9.7726 3.70131C9.30292 3.34324 8.78906 3.04562 8.23103 2.80845C7.67299 2.57129 7.15216 2.45271 6.66853 2.45271C6.1849 2.45271 5.72917 2.48991 5.30134 2.56431C4.87351 2.63872 4.43638 2.78288 3.98996 2.99679C3.54353 3.21071 3.16453 3.4874 2.85296 3.82687C2.54139 4.16634 2.28562 4.6244 2.08566 5.20103C1.8857 5.77767 1.78571 6.44266 1.78571 7.19601C1.78571 8.75851 2.65532 10.4094 4.39453 12.1486L12.5 19.9611L20.5915 12.1625C22.34 10.414 23.2143 8.75851 23.2143 7.19601ZM25 7.19601C25 9.25144 23.9351 11.3441 21.8052 13.4739L13.1138 21.8444C12.9464 22.0119 12.7418 22.0956 12.5 22.0956C12.2582 22.0956 12.0536 22.0119 11.8862 21.8444L3.1808 13.446C3.0878 13.3716 2.95991 13.2507 2.79715 13.0833C2.63439 12.9159 2.3763 12.6113 2.02288 12.1695C1.66946 11.7277 1.35324 11.2743 1.07422 10.8093C0.795201 10.3443 0.54641 9.78158 0.327846 9.12123C0.109282 8.46089 0 7.81915 0 7.19601C0 5.14988 0.590588 3.55018 1.77176 2.3969C2.95294 1.24363 4.58519 0.666992 6.66853 0.666992C7.24516 0.666992 7.83343 0.766974 8.43331 0.966936C9.0332 1.1669 9.59124 1.43662 10.1074 1.77609C10.6236 2.11556 11.0677 2.43411 11.4397 2.73172C11.8118 3.02934 12.1652 3.34556 12.5 3.68039C12.8348 3.34556 13.1882 3.02934 13.5603 2.73172C13.9323 2.43411 14.3764 2.11556 14.8926 1.77609C15.4088 1.43662 15.9668 1.1669 16.5667 0.966936C17.1666 0.766974 17.7548 0.666992 18.3315 0.666992C20.4148 0.666992 22.0471 1.24363 23.2282 2.3969C24.4094 3.55018 25 5.14988 25 7.19601Z" fill="white"/>
</svg>
