<svg width="12" height="12" viewBox="0 0 12 12" xmlns="http://www.w3.org/2000/svg">
<path d="M11.8923 0.0670563C11.8154 0.0055463 11.7231 -0.00983114 11.6308 0.00554636L4.24615 1.5433C4.10769 1.57405 4 1.69707 4 1.85085V8.12487C3.58462 7.66354 2.98462 7.38675 2.30769 7.38675C1.03077 7.38675 0 8.41704 0 9.69337C0 10.9697 1.03077 12 2.30769 12C3.58462 12 4.61538 10.9697 4.61538 9.69337V4.23436L11.3846 2.81963V6.57174C10.9692 6.11042 10.3538 5.83362 9.69231 5.83362C8.41538 5.83362 7.38462 6.86391 7.38462 8.14025C7.38462 9.41658 8.41538 10.4469 9.69231 10.4469C10.9692 10.4469 12 9.41658 12 8.14025V0.297719C12 0.205454 11.9538 0.113189 11.8923 0.0670563ZM2.30769 11.3695C1.36923 11.3695 0.615385 10.616 0.615385 9.678C0.615385 8.73997 1.36923 7.98647 2.30769 7.98647C3.24615 7.98647 4 8.73997 4 9.678C4 10.616 3.24615 11.3695 2.30769 11.3695ZM9.69231 9.83177C8.75385 9.83177 8 9.07827 8 8.14025C8 7.20222 8.75385 6.44872 9.69231 6.44872C10.6308 6.44872 11.3846 7.20222 11.3846 8.14025C11.3846 9.07827 10.6308 9.83177 9.69231 9.83177ZM11.3846 2.20453L4.61538 3.61926V2.09689L11.3846 0.682157V2.20453Z"/>
</svg>
