<svg width="42" height="42" viewBox="0 0 42 42" fill="none" xmlns="http://www.w3.org/2000/svg">
<g clip-path="url(#clip0_5523_208497)">
<path d="M15 11C14.2044 11 13.4413 11.3161 12.8787 11.8787C12.3161 12.4413 12 13.2044 12 14V29C12 29.7956 12.3161 30.5587 12.8787 31.1213C13.4413 31.6839 14.2044 32 15 32C15.7956 32 16.5587 31.6839 17.1213 31.1213C17.6839 30.5587 18 29.7956 18 29V14C18 13.2044 17.6839 12.4413 17.1213 11.8787C16.5587 11.3161 15.7956 11 15 11ZM27 11C26.2044 11 25.4413 11.3161 24.8787 11.8787C24.3161 12.4413 24 13.2044 24 14V29C24 29.7956 24.3161 30.5587 24.8787 31.1213C25.4413 31.6839 26.2044 32 27 32C27.7956 32 28.5587 31.6839 29.1213 31.1213C29.6839 30.5587 30 29.7956 30 29V14C30 13.2044 29.6839 12.4413 29.1213 11.8787C28.5587 11.3161 27.7956 11 27 11Z" fill="white"/>
<circle cx="21" cy="21" r="20.5" stroke="white"/>
</g>
<defs>
<clipPath id="clip0_5523_208497">
<rect width="42" height="42" fill="white"/>
</clipPath>
</defs>
</svg> 
