<svg width="15" height="16" viewBox="0 0 15 16" fill="none" xmlns="http://www.w3.org/2000/svg">
<path d="M13.8025 4.05392L9.88879 0.371948C9.65081 0.146904 9.32601 0.0187537 8.99156 0.0187537L1.6208 0C0.726786 0 0 0.700137 0 1.56281V14.4341C0 15.2811 0.749297 16 1.63688 16H12.5387C13.4102 16 14.1176 15.2967 14.1176 14.4309V4.80094C14.1176 4.51026 14.0051 4.24458 13.8025 4.05392ZM9.87271 2.09728L11.8955 3.99766H10.2232C10.0367 3.99766 9.87271 3.857 9.87271 3.6976V2.09728ZM12.5387 14.7498H1.63688C1.45679 14.7498 1.28635 14.5966 1.28635 14.4309V1.56281C1.28635 1.39715 1.44392 1.25024 1.6208 1.25024L8.58636 1.269V3.6976C8.58636 4.55089 9.31958 5.2479 10.2232 5.2479H12.8313V14.4309C12.8313 14.5872 12.722 14.7498 12.5387 14.7498Z" fill="white"/>
<path d="M2.74512 8.42018C2.74512 8.76729 3.02912 9.05129 3.37623 9.05129H8.89847C9.24559 9.05129 9.52959 8.76729 9.52959 8.42018C9.52959 8.07306 9.24559 7.78906 8.89847 7.78906H3.37623C3.02912 7.78906 2.74512 8.07306 2.74512 8.42018Z" fill="white"/>
<path d="M3.34498 6.52785H7.00544C7.35255 6.52785 7.63655 6.24385 7.63655 5.89674C7.63655 5.54963 7.35255 5.26562 7.00544 5.26562H3.34498C2.99787 5.26562 2.71387 5.54963 2.71387 5.89674C2.71387 6.24385 2.99787 6.52785 3.34498 6.52785Z" fill="white"/>
<path d="M10.4763 10.3164H3.37623C3.02912 10.3164 2.74512 10.6004 2.74512 10.9475C2.74512 11.2946 3.02912 11.5786 3.37623 11.5786H10.4763C10.8234 11.5786 11.1074 11.2946 11.1074 10.9475C11.1074 10.6004 10.8234 10.3164 10.4763 10.3164Z" fill="white"/>
</svg>
