<svg width="17" height="18" viewBox="0 0 17 18" fill="none" xmlns="http://www.w3.org/2000/svg">
<path d="M15.447 5.05392L11.5333 1.37195C11.2953 1.1469 10.9705 1.01875 10.6361 1.01875L3.26533 1C2.37132 1 1.64453 1.70014 1.64453 2.56281V15.4341C1.64453 16.2811 2.39383 17 3.28141 17H14.1832C15.0547 17 15.7622 16.2967 15.7622 15.4309V5.80094C15.7622 5.51026 15.6496 5.24458 15.447 5.05392ZM11.5172 3.09728L13.54 4.99766H11.8678C11.6812 4.99766 11.5172 4.857 11.5172 4.6976V3.09728ZM14.1832 15.7498H3.28141C3.10132 15.7498 2.93088 15.5966 2.93088 15.4309V2.56281C2.93088 2.39715 3.08845 2.25024 3.26533 2.25024L10.2309 2.269V4.6976C10.2309 5.55089 10.9641 6.2479 11.8678 6.2479H14.4758V15.4309C14.4758 15.5872 14.3665 15.7498 14.1832 15.7498Z" fill="#E45858"/>
<path d="M4.38965 9.42018C4.38965 9.76729 4.67365 10.0513 5.02076 10.0513H10.543C10.8901 10.0513 11.1741 9.76729 11.1741 9.42018C11.1741 9.07306 10.8901 8.78906 10.543 8.78906H5.02076C4.67365 8.78906 4.38965 9.07306 4.38965 9.42018Z" fill="#E45858"/>
<path d="M4.98951 7.52785H8.64997C8.99708 7.52785 9.28108 7.24385 9.28108 6.89674C9.28108 6.54963 8.99708 6.26562 8.64997 6.26562H4.98951C4.6424 6.26562 4.3584 6.54963 4.3584 6.89674C4.3584 7.24385 4.6424 7.52785 4.98951 7.52785Z" fill="#E45858"/>
<path d="M12.1208 11.3164H5.02076C4.67365 11.3164 4.38965 11.6004 4.38965 11.9475C4.38965 12.2946 4.67365 12.5786 5.02076 12.5786H12.1208C12.4679 12.5786 12.7519 12.2946 12.7519 11.9475C12.7519 11.6004 12.4679 11.3164 12.1208 11.3164Z" fill="#E45858"/>
<path d="M15.6445 1L1 16.3535" stroke="#E45858" stroke-width="1.5" stroke-linecap="round"/>
</svg>
