<svg width="16" height="16" viewBox="0 0 16 16" fill="none" xmlns="http://www.w3.org/2000/svg">
<path d="M6.3751 4.13811H13.4252L10.8335 1.68161C10.7065 1.54638 10.6389 1.37036 10.6444 1.18951C10.6499 1.00866 10.7281 0.836623 10.8631 0.708539C10.9981 0.580455 11.1797 0.505987 11.3707 0.500346C11.5618 0.494704 11.7479 0.558314 11.891 0.678184L15.7802 4.35978C15.8499 4.42571 15.9052 4.50399 15.9429 4.59014C15.9806 4.67629 16 4.76864 16 4.86189C16 4.95514 15.9806 5.04748 15.9429 5.13364C15.9052 5.21979 15.8499 5.29807 15.7802 5.364L11.891 9.04481C11.7476 9.1622 11.5626 9.22384 11.3731 9.21731C11.1837 9.21079 11.0038 9.13659 10.8698 9.00964C10.7358 8.88269 10.6576 8.71241 10.6509 8.53306C10.6441 8.35372 10.7094 8.1786 10.8335 8.04296L13.4535 5.55806H6.3751C5.13279 5.51425 3.92266 5.93771 3.00918 6.73592C2.09569 7.53412 1.55312 8.64216 1.50002 9.81789C1.55312 10.9936 2.09569 12.1017 3.00918 12.8999C3.92266 13.6981 5.13279 14.1215 6.3751 14.0777H7.12511C7.32402 14.0777 7.51479 14.1525 7.65545 14.2857C7.7961 14.4188 7.87512 14.5994 7.87512 14.7877C7.87512 14.976 7.7961 15.1566 7.65545 15.2897C7.51479 15.4229 7.32402 15.4977 7.12511 15.4977H6.3751C4.735 15.5415 3.14336 14.9684 1.94856 13.9039C0.753767 12.8394 0.0531282 11.3702 0 9.81789C0.0531282 8.26554 0.753767 6.79634 1.94856 5.73186C3.14336 4.66737 4.735 4.09432 6.3751 4.13811Z" fill="white"/>
</svg>
