<svg width="36" height="36" viewBox="0 0 36 36" xmlns="http://www.w3.org/2000/svg">
<path d="M28.5 4.5C28.5 2.01825 26.4818 0 24 0H4.5C2.01825 0 0 2.01825 0 4.5C0 6.72525 1.62525 8.57325 3.75 8.9325V31.5C3.75 33.9818 5.76825 36 8.25 36H31.5C33.9818 36 36 33.9818 36 31.5V30.75H28.5V4.5ZM1.5 4.5C1.5 2.8455 2.8455 1.5 4.5 1.5H20.655C19.9395 2.29725 19.5 3.3465 19.5 4.5C19.5 5.6535 19.9395 6.70275 20.655 7.5H4.5C2.8455 7.5 1.5 6.1545 1.5 4.5ZM5.25 31.5V9H24V7.5C22.3455 7.5 21 6.1545 21 4.5C21 2.8455 22.3455 1.5 24 1.5C25.6545 1.5 27 2.8455 27 4.5V31.5C27.0004 32.6085 27.4119 33.6774 28.155 34.5H8.25C6.5955 34.5 5.25 33.1545 5.25 31.5ZM34.4048 32.25C34.0718 33.5423 32.895 34.5 31.5 34.5C30.105 34.5 28.9282 33.5423 28.5952 32.25H34.4048Z" />
<path d="M8.25 12H11.25V13.5H8.25V12Z" />
<path d="M13.5 12H24V13.5H13.5V12Z" />
<path d="M8.25 15.75H11.25V17.25H8.25V15.75Z" />
<path d="M13.5 15.75H24V17.25H13.5V15.75Z" />
<path d="M8.25 19.5H11.25V21H8.25V19.5Z" />
<path d="M13.5 19.5H24V21H13.5V19.5Z" />
<path d="M8.25 23.25H11.25V24.75H8.25V23.25Z" />
<path d="M13.5 23.25H24V24.75H13.5V23.25Z" />
<path d="M8.25 27H11.25V28.5H8.25V27Z" />
<path d="M13.5 27H24V28.5H13.5V27Z" />
<path d="M8.25 30.75H11.25V32.25H8.25V30.75Z" />
<path d="M13.5 30.75H24V32.25H13.5V30.75Z" />
</svg> 
