<svg width="21" height="24" viewBox="0 0 21 24" fill="none" xmlns="http://www.w3.org/2000/svg">
<path d="M19.0501 19.29L15.7584 15.9C16.8204 14.5025 17.3967 12.7767 17.3945 11C17.3945 9.41775 16.9403 7.87103 16.0892 6.55544C15.2382 5.23985 14.0286 4.21447 12.6133 3.60897C11.1981 3.00347 9.64083 2.84504 8.13842 3.15372C6.63602 3.4624 5.25597 4.22433 4.17279 5.34315C3.08962 6.46197 2.35197 7.88743 2.05312 9.43928C1.75427 10.9911 1.90765 12.5997 2.49386 14.0615C3.08007 15.5233 4.07278 16.7727 5.34646 17.6518C6.62014 18.5308 8.11758 19 9.64942 19C11.3695 19.0022 13.0403 18.407 14.3933 17.31L17.6753 20.71C17.7653 20.8037 17.8724 20.8781 17.9904 20.9289C18.1083 20.9797 18.2349 21.0058 18.3627 21.0058C18.4905 21.0058 18.617 20.9797 18.735 20.9289C18.853 20.8781 18.9601 20.8037 19.0501 20.71C19.1408 20.617 19.2128 20.5064 19.262 20.3846C19.3111 20.2627 19.3364 20.132 19.3364 20C19.3364 19.868 19.3111 19.7373 19.262 19.6154C19.2128 19.4936 19.1408 19.383 19.0501 19.29ZM3.84058 11C3.84058 9.81332 4.18126 8.65328 4.81955 7.66658C5.45783 6.67989 6.36505 5.91085 7.42647 5.45673C8.4879 5.0026 9.65586 4.88378 10.7827 5.11529C11.9095 5.3468 12.9445 5.91825 13.7569 6.75736C14.5693 7.59648 15.1225 8.66558 15.3466 9.82946C15.5708 10.9933 15.4557 12.1997 15.0161 13.2961C14.5764 14.3925 13.8319 15.3295 12.8766 15.9888C11.9214 16.6481 10.7983 17 9.64942 17C8.10882 17 6.63132 16.3679 5.54195 15.2426C4.45258 14.1174 3.84058 12.5913 3.84058 11Z" fill="white"/>
</svg>
