<svg width="14" height="13" viewBox="0 0 14 13" fill="none" xmlns="http://www.w3.org/2000/svg">
<path d="M7.51231 0.426035L9.03812 3.48521C9.14816 3.70776 9.36282 3.86262 9.61183 3.8991L13.0297 4.39697C13.2306 4.42515 13.4118 4.53086 13.5332 4.69072C13.6546 4.85057 13.7062 5.05139 13.6766 5.24874C13.653 5.4123 13.5758 5.56388 13.4569 5.68062L10.979 8.07997C10.7975 8.2496 10.7149 8.49753 10.7592 8.73979L11.3696 12.1169C11.437 12.5209 11.1674 12.905 10.7592 12.9866C10.5922 13.0129 10.421 12.9855 10.271 12.9087L7.21935 11.3191C6.99336 11.2049 6.72516 11.2049 6.49917 11.3191L3.44754 12.9087C3.07164 13.1086 2.60203 12.9717 2.39777 12.6028C2.32038 12.4551 2.2926 12.2871 2.31843 12.1229L2.92876 8.74579C2.97309 8.50353 2.89053 8.2556 2.70904 8.08597L0.231116 5.68662C0.0857453 5.54571 0.00390625 5.35342 0.00390625 5.15276C0.00390625 4.9521 0.0857453 4.75981 0.231116 4.61891C0.348225 4.49974 0.503289 4.42354 0.670551 4.40296L4.08838 3.9051C4.33738 3.86862 4.55205 3.71375 4.66208 3.49121L6.13297 0.426035C6.2616 0.164577 6.5333 0.000609637 6.82874 0.006148H6.92029C7.17738 0.038202 7.40034 0.196333 7.51231 0.426035Z" fill="white"/>
</svg>
