<svg width="14" height="14" viewBox="0 0 14 14" fill="none" xmlns="http://www.w3.org/2000/svg">
<path d="M0.951865 6.64651V11.6564H3.07287L3.17997 11.669C5.14907 12.1282 6.45387 12.4593 7.10417 12.6644C7.96797 12.9367 8.28997 13.0032 8.87587 13.0424C9.31407 13.0725 9.81177 12.9038 10.0386 12.6728C10.1639 12.5454 10.2577 12.2836 10.2948 11.8776C10.3025 11.7925 10.3329 11.711 10.3829 11.6416C10.4329 11.5723 10.5006 11.5177 10.579 11.4835C10.7533 11.4079 10.8982 11.2847 11.0193 11.1055C11.1313 10.9417 11.2041 10.6365 11.2174 10.1948C11.2197 10.1136 11.2427 10.0343 11.2843 9.96453C11.3258 9.8947 11.3844 9.83663 11.4547 9.79581C11.8621 9.55991 12.0637 9.29391 12.1057 8.98171C12.1519 8.63661 12.0399 8.24811 11.7466 7.80571C11.6777 7.70196 11.6521 7.57545 11.6751 7.4531C11.6981 7.33074 11.768 7.22218 11.8698 7.15051C12.1505 6.95311 12.3045 6.67871 12.343 6.28951C12.4046 5.66931 12.0091 5.21081 11.1138 5.11911C10.3164 5.04025 9.51128 5.10738 8.73797 5.31721C8.65024 5.34014 8.5578 5.33753 8.47151 5.3097C8.38521 5.28187 8.30867 5.22997 8.25087 5.16011C8.19307 5.09026 8.15642 5.00534 8.14525 4.91537C8.13407 4.82539 8.14882 4.73409 8.18777 4.65221C8.53777 3.91161 8.73237 3.30051 8.77787 2.82731C8.83737 2.19941 8.69247 1.74441 8.35367 1.36921C8.09677 1.08501 7.68587 0.922613 7.53187 0.956213C7.32887 0.999613 7.19657 1.11721 7.02437 1.52881C6.92287 1.77241 6.87387 1.97961 6.78987 2.46331C6.70937 2.92251 6.66527 3.12971 6.57357 3.40131C6.29707 4.22451 5.61876 5.07781 4.70807 5.66651C4.0698 6.07861 3.37806 6.40128 2.65216 6.62551C2.60682 6.63949 2.55962 6.64657 2.51217 6.64651H0.951865ZM0.922465 12.6105C0.696365 12.6168 0.493365 12.5664 0.323265 12.4474C0.106265 12.2955 0.00406488 12.0561 0.00196488 11.7803L0.00406488 6.65421C-0.0197351 6.38121 0.0607649 6.13061 0.251165 5.94441C0.429665 5.76941 0.662765 5.68681 0.909165 5.69241H2.43866C3.05737 5.49527 3.64723 5.21705 4.19286 4.86501C4.92647 4.39041 5.46687 3.71001 5.67337 3.09681C5.74407 2.88541 5.78187 2.71041 5.85327 2.29881C5.94987 1.74651 6.01007 1.48961 6.14867 1.15921C6.43567 0.471813 6.81227 0.135813 7.33167 0.0231129C7.84267 -0.0874871 8.58677 0.207213 9.05717 0.728013C9.57867 1.30481 9.80897 2.02651 9.72357 2.91831C9.68717 3.30191 9.58077 3.73101 9.40577 4.20911C10.0034 4.12202 10.6095 4.10885 11.2104 4.16991C12.6153 4.31341 13.4042 5.22831 13.2894 6.38471C13.239 6.88311 13.0584 7.30661 12.7511 7.63911C13.0094 8.13681 13.1123 8.62891 13.0479 9.10911C12.9737 9.66211 12.6657 10.1227 12.1533 10.4804C12.1134 10.9655 12.0021 11.3526 11.8047 11.6424C11.6491 11.8765 11.4462 12.0754 11.209 12.2262C11.1334 12.705 10.9745 13.0795 10.7148 13.3427C10.2843 13.7809 9.51497 14.042 8.81217 13.9944C8.14507 13.9496 7.75027 13.8684 6.81927 13.5744C6.20537 13.3805 4.93417 13.0585 3.01826 12.6105H0.922465ZM2.11316 6.42881C2.11298 6.36619 2.12516 6.30414 2.149 6.24622C2.17283 6.18831 2.20787 6.13567 2.25209 6.09132C2.29631 6.04697 2.34884 6.01179 2.40668 5.98778C2.46453 5.96377 2.52654 5.95141 2.58916 5.95141C2.65167 5.9516 2.71354 5.96409 2.77122 5.98818C2.8289 6.01227 2.88127 6.04749 2.92534 6.09182C2.96941 6.13615 3.00432 6.18873 3.02807 6.24655C3.05182 6.30437 3.06395 6.3663 3.06376 6.42881V11.8034C3.06386 11.8659 3.05164 11.9278 3.0278 11.9856C3.00396 12.0434 2.96898 12.0959 2.92484 12.1402C2.88071 12.1845 2.82828 12.2196 2.77057 12.2436C2.71285 12.2676 2.65097 12.28 2.58846 12.2801C2.52596 12.28 2.46408 12.2676 2.40636 12.2436C2.34864 12.2196 2.29622 12.1845 2.25209 12.1402C2.20795 12.0959 2.17297 12.0434 2.14913 11.9856C2.12529 11.9278 2.11307 11.8659 2.11316 11.8034V6.42881Z" fill="#D9D9D9"/>
</svg>
