<svg width="14" height="14" viewBox="0 0 14 14" fill="none" xmlns="http://www.w3.org/2000/svg">
<path fill-rule="evenodd" clip-rule="evenodd" d="M11.0649 0.657299C11.3421 0.914199 11.5234 1.4504 11.5591 1.7738C11.9721 2.03 12.4607 2.5466 12.5034 3.5196C13.2405 4.0313 13.8005 4.9777 13.1012 6.3616C13.5072 6.7396 13.9601 7.8932 13.3777 8.8228C12.6994 9.9092 11.2252 9.9848 9.75591 9.7909C10.1479 10.8864 10.2949 11.8972 9.67471 12.9325C9.05801 13.8509 8.20681 14 7.91561 14C7.11901 14 6.57301 13.3147 6.35181 12.4019C6.27131 12.1471 6.17961 11.5451 6.14391 11.3869C5.95841 10.3789 5.33471 9.5725 4.27491 8.9698C3.80341 8.69898 3.30545 8.47709 2.78881 8.3076H1.15081C0.786106 8.3076 0.350006 7.9387 0.350006 7.4921V2.1469C0.401806 1.6415 0.682506 1.3895 1.19141 1.3895H3.36841C4.32321 1.1725 5.27521 0.940099 6.22371 0.692999C7.14001 0.445899 7.34091 0.363999 7.98211 0.187599C9.41921 -0.184801 10.4167 0.0202993 11.0649 0.657299ZM9.39751 0.953399C8.82421 0.953399 8.09831 1.1298 7.77631 1.2327C7.66291 1.2684 7.46411 1.3272 7.25481 1.3874L7.04481 1.4483L6.84321 1.5057L6.45121 1.6163C6.45121 1.6163 5.46421 1.8809 3.53011 2.3303C3.45801 2.3387 3.41951 2.3443 3.41391 2.3457V7.5117C4.47161 7.9191 5.29551 8.4133 5.88491 8.9943C6.76971 9.8651 7.01541 10.6519 7.16031 11.6592C7.24291 12.1653 7.37661 12.5734 7.57821 12.8527C7.63611 12.9364 7.7204 12.9983 7.81761 13.0284C7.92051 13.0613 8.06261 13.0634 8.36571 12.8996C8.66881 12.7344 9.05871 12.3025 9.13221 11.6592C9.18121 11.0341 9.01321 10.4923 8.78781 9.9225C8.71 9.72836 8.62666 9.53648 8.53791 9.3471C8.38531 9.058 8.61491 8.5778 9.08811 8.6821C9.72231 8.8606 11.2959 9.1021 12.1835 8.6821C12.6994 8.3832 12.8275 7.9009 12.5664 7.2359C12.4801 7.08345 12.3619 6.95141 12.2199 6.8488C12.1009 6.7774 11.8685 6.468 12.1478 6.1173C12.425 5.6728 12.8303 4.7677 11.8048 4.2035C11.7332 4.16416 11.6735 4.10645 11.6316 4.03632C11.5898 3.96618 11.5674 3.88616 11.5668 3.8045C11.5528 3.6127 11.5836 2.9015 11.0558 2.5837C10.9298 2.5158 10.7779 2.4598 10.6918 2.2967C10.6372 2.1889 10.6197 1.9271 10.6197 1.9271C10.5476 1.4847 10.4482 1.0717 9.39751 0.953399ZM2.46331 2.3436H1.30271V7.3535H2.46331V2.3436Z" fill="#D9D9D9" fill-opacity="0.89"/>
</svg>
