<svg width="17" height="20" viewBox="0 0 17 20" fill="none" xmlns="http://www.w3.org/2000/svg">
<path d="M14.899 7.14395L14.5627 16.8939C14.5341 17.7289 14.1669 18.5204 13.539 19.1003C12.9112 19.6802 12.0721 20.0029 11.1999 20H4.81053C3.9389 20.003 3.10032 19.6807 2.47256 19.1015C1.84479 18.5222 1.4772 17.7316 1.4477 16.8971L1.11142 7.14395C1.10406 6.93037 1.18558 6.72273 1.33804 6.56672C1.4905 6.41071 1.70141 6.31911 1.92438 6.31206C2.14735 6.30501 2.36411 6.3831 2.52698 6.52914C2.68984 6.67518 2.78547 6.87721 2.79283 7.0908L3.12911 16.8432C3.14586 17.2595 3.33037 17.6534 3.6439 17.9422C3.95743 18.2309 4.37558 18.3921 4.81053 18.3918H11.1999C11.6354 18.392 12.054 18.2304 12.3677 17.941C12.6813 17.6515 12.8654 17.2568 12.8813 16.8399L13.2176 7.0908C13.225 6.87721 13.3206 6.67518 13.4835 6.52914C13.6463 6.3831 13.8631 6.30501 14.0861 6.31206C14.309 6.31911 14.5199 6.41071 14.6724 6.56672C14.8249 6.72273 14.9064 6.93037 14.899 7.14395ZM16.0113 3.89934C16.0113 4.11292 15.9227 4.31776 15.765 4.46878C15.6074 4.61981 15.3935 4.70465 15.1706 4.70465H0.840708C0.617738 4.70465 0.403901 4.61981 0.246237 4.46878C0.088574 4.31776 0 4.11292 0 3.89934C0 3.68576 0.088574 3.48092 0.246237 3.3299C0.403901 3.17887 0.617738 3.09402 0.840708 3.09402H3.4469C3.71328 3.09471 3.97039 3.00044 4.16821 2.82956C4.36603 2.65867 4.4904 2.4234 4.51712 2.16952C4.57916 1.57398 4.87044 1.0219 5.3342 0.620831C5.79796 0.219765 6.40099 -0.00154887 7.02579 8.16015e-06H8.98464C9.60944 -0.00154887 10.2125 0.219765 10.6762 0.620831C11.14 1.0219 11.4313 1.57398 11.4933 2.16952C11.52 2.4234 11.6444 2.65867 11.8422 2.82956C12.04 3.00044 12.2972 3.09471 12.5635 3.09402H15.1697C15.3927 3.09402 15.6065 3.17887 15.7642 3.3299C15.9219 3.48092 16.0113 3.68576 16.0113 3.89934ZM5.97659 3.09402H10.0355C9.92505 2.85222 9.8528 2.59601 9.82115 2.33381C9.80032 2.1353 9.70331 1.95127 9.54892 1.81737C9.39454 1.68347 9.19375 1.60922 8.98548 1.60903H7.02663C6.81836 1.60922 6.61758 1.68347 6.46319 1.81737C6.3088 1.95127 6.2118 2.1353 6.19097 2.33381C6.15905 2.59605 6.08735 2.85227 5.97659 3.09402ZM6.82318 15.2953V8.43809C6.82318 8.22451 6.73461 8.01967 6.57694 7.86864C6.41928 7.71762 6.20544 7.63277 5.98248 7.63277C5.75951 7.63277 5.54567 7.71762 5.38801 7.86864C5.23034 8.01967 5.14177 8.22451 5.14177 8.43809V15.2986C5.14177 15.5121 5.23034 15.717 5.38801 15.868C5.54567 16.019 5.75951 16.1039 5.98248 16.1039C6.20544 16.1039 6.41928 16.019 6.57694 15.868C6.73461 15.717 6.82318 15.5121 6.82318 15.2986V15.2953ZM10.8703 15.2953V8.43809C10.8703 8.22451 10.7818 8.01967 10.6241 7.86864C10.4664 7.71762 10.2526 7.63277 10.0296 7.63277C9.80667 7.63277 9.59283 7.71762 9.43517 7.86864C9.27751 8.01967 9.18893 8.22451 9.18893 8.43809V15.2986C9.18893 15.5121 9.27751 15.717 9.43517 15.868C9.59283 16.019 9.80667 16.1039 10.0296 16.1039C10.2526 16.1039 10.4664 16.019 10.6241 15.868C10.7818 15.717 10.8703 15.5121 10.8703 15.2986V15.2953Z" fill="white"/>
</svg>
