<svg width="17" height="16" viewBox="0 0 17 16" fill="none" xmlns="http://www.w3.org/2000/svg">
<path d="M10.1249 4.13811H3.0748L5.6665 1.68161C5.79347 1.54638 5.86111 1.37036 5.8556 1.18951C5.85009 1.00866 5.77185 0.836623 5.63686 0.708539C5.50187 0.580455 5.32032 0.505987 5.12929 0.500346C4.93825 0.494704 4.75215 0.558314 4.60899 0.678184L0.71976 4.35978C0.650089 4.42571 0.594822 4.50399 0.557115 4.59014C0.519408 4.67629 0.5 4.76864 0.5 4.86189C0.5 4.95514 0.519408 5.04748 0.557115 5.13364C0.594822 5.21979 0.650089 5.29807 0.71976 5.364L4.60899 9.04481C4.75238 9.1622 4.93742 9.22384 5.12688 9.21731C5.31633 9.21079 5.49615 9.13659 5.63016 9.00964C5.76416 8.88269 5.8424 8.71241 5.84915 8.53306C5.85589 8.35372 5.79063 8.1786 5.6665 8.04296L3.04646 5.55806H10.1249C11.3672 5.51425 12.5773 5.93771 13.4908 6.73592C14.4043 7.53412 14.9469 8.64216 15 9.81789C14.9469 10.9936 14.4043 12.1017 13.4908 12.8999C12.5773 13.6981 11.3672 14.1215 10.1249 14.0777H9.37489C9.17598 14.0777 8.98521 14.1525 8.84455 14.2857C8.7039 14.4188 8.62488 14.5994 8.62488 14.7877C8.62488 14.976 8.7039 15.1566 8.84455 15.2897C8.98521 15.4229 9.17598 15.4977 9.37489 15.4977H10.1249C11.765 15.5415 13.3566 14.9684 14.5514 13.9039C15.7462 12.8394 16.4469 11.3702 16.5 9.81789C16.4469 8.26554 15.7462 6.79634 14.5514 5.73186C13.3566 4.66737 11.765 4.09432 10.1249 4.13811Z" fill="white"/>
</svg>
