<svg width="100" height="102" viewBox="0 0 100 102" xmlns="http://www.w3.org/2000/svg">
<g clip-path="url(#clip0_278_72108)">
<mask id="path-1-inside-1_278_72108" >
<path d="M88.2812 40.742H23.9965L39.2937 35.1186L39.3002 35.1162L66.2524 25.2084C66.257 25.2069 66.2614 25.205 66.266 25.2034L91.2257 16.028C91.8885 15.7845 92.4972 15.4115 93.0172 14.9303C93.5372 14.4491 93.9582 13.8691 94.2562 13.2236C94.5542 12.578 94.7234 11.8794 94.7541 11.1678C94.7848 10.4562 94.6764 9.74545 94.4351 9.07615L92.6323 4.07102C92.1437 2.71981 91.1443 1.61951 89.8535 1.01151C88.5627 0.403504 87.0858 0.337434 85.7469 0.827792L36.7377 18.8449L36.7353 18.8458L7.93037 29.4353C7.26755 29.6787 6.65871 30.0517 6.13861 30.5329C5.61851 31.014 5.19734 31.5939 4.89915 32.2395C4.60096 32.8851 4.43159 33.5836 4.4007 34.2953C4.36982 35.007 4.47803 35.7178 4.71916 36.3872L5.62742 38.9084C5.08659 39.7244 4.713 40.6415 4.52869 41.6057C4.44044 41.7988 4.39467 42.0089 4.39453 42.2215V94.1023C4.39672 96.0636 5.16907 97.9439 6.54216 99.3307C7.91524 100.718 9.77692 101.498 11.7188 101.5H88.2812C90.2231 101.498 92.0848 100.718 93.4578 99.3307C94.8309 97.9439 95.6033 96.0636 95.6055 94.1023V48.1395C95.6033 46.1782 94.8309 44.2979 93.4578 42.9111C92.0848 41.5243 90.2231 40.7442 88.2812 40.742ZM70.8939 43.701H82.5308L80.2986 53.1697H68.6617L70.8939 43.701ZM56.2454 43.701H67.8823L65.6502 53.1697H54.0133L56.2454 43.701ZM41.597 43.701H53.2339L51.0017 53.1697H39.3648L41.597 43.701ZM26.9485 43.701H38.5854L36.3533 53.1697H24.7164L26.9485 43.701ZM86.7492 3.6082C87.3579 3.38534 88.0294 3.41547 88.6162 3.69196C89.203 3.96845 89.6572 4.46874 89.8793 5.08307L91.6821 10.0882C91.7919 10.3924 91.8412 10.7154 91.8273 11.0388C91.8134 11.3623 91.7365 11.6798 91.601 11.9732C91.4656 12.2666 91.2742 12.5302 91.0378 12.7488C90.8015 12.9675 90.5247 13.137 90.2235 13.2476L79.7578 17.0949L78.5701 6.61505L86.7492 3.6082ZM75.7393 7.65574L76.927 18.1355L66.9943 21.7869L65.6471 11.3659L75.7393 7.65574ZM62.8266 12.4028L64.1737 22.8237L53.8017 26.6366L52.6495 16.1442L62.8266 12.4028ZM49.8163 17.1858L50.9685 27.6781L40.0597 31.6882L38.7987 21.2362L49.8163 17.1858ZM35.9727 22.2751L37.2337 32.7271L27.0358 36.4759L25.8491 25.9968L35.9727 22.2751ZM7.55386 33.491C7.68887 33.197 7.88023 32.9329 8.1169 32.714C8.35356 32.4951 8.63083 32.3258 8.93269 32.2158L23.0182 27.0375L24.2049 37.5165L18.2656 39.6999C17.8143 38.7875 17.1808 37.9794 16.4051 37.3264C15.6294 36.6734 14.7283 36.1896 13.7584 35.9055C12.7886 35.6214 11.771 35.5432 10.7698 35.6758C9.76852 35.8083 8.80528 36.1488 7.94067 36.6757L7.47213 35.3751C7.36164 35.0712 7.31197 34.7482 7.326 34.4248C7.34003 34.1014 7.41748 33.784 7.55386 33.491ZM11.7188 38.5721C12.7002 38.5734 13.6531 38.906 14.426 39.517C15.1988 40.1281 15.7473 40.9824 15.9843 41.9444L15.9865 41.9541C16.204 42.8509 16.1392 43.7938 15.8012 44.6516C15.4631 45.5094 14.8686 46.2394 14.1004 46.7399C13.3322 47.2403 12.4287 47.4864 11.5155 47.4437C10.6024 47.4011 9.72512 47.0719 9.00594 46.502C8.28677 45.932 7.76148 45.1498 7.50322 44.2641C7.24497 43.3785 7.26662 42.4335 7.56515 41.5609C7.86368 40.6882 8.42423 39.9313 9.16874 39.3956C9.91324 38.8599 10.8046 38.572 11.7188 38.5721ZM7.32422 48.9245C8.36515 49.7149 9.59603 50.2104 10.8899 50.36C12.1837 50.5097 13.4936 50.3079 14.6845 49.7756C15.8753 49.2433 16.904 48.3997 17.6644 47.3318C18.4248 46.264 18.8893 45.0106 19.01 43.701H23.937L21.7049 53.1697H7.32422V48.9245ZM7.32422 67.9647H26.5625V85.7186H7.32422V67.9647ZM92.6758 94.1023C92.6745 95.2791 92.2111 96.4073 91.3872 97.2394C90.5634 98.0715 89.4464 98.5395 88.2812 98.5408H11.7188C10.5536 98.5395 9.43664 98.0715 8.61279 97.2394C7.78894 96.4073 7.32552 95.2791 7.32422 94.1023V88.6775H92.6758V94.1023ZM29.4922 85.7186V67.9647H48.5352V85.7186H29.4922ZM51.4648 85.7186V67.9647H70.5078V85.7186H51.4648ZM92.6758 85.7186H73.4375V67.9647H92.6758V85.7186ZM92.6758 65.0057H7.32422V56.1287H22.8566C22.8587 56.1287 22.8609 56.1291 22.8631 56.1291L22.8676 56.1287H37.505C37.5072 56.1287 37.5094 56.1291 37.5115 56.1291L37.516 56.1287H52.1535C52.1556 56.1287 52.1578 56.1291 52.16 56.1291L52.1645 56.1287H66.8019C66.804 56.1287 66.8063 56.1291 66.8084 56.1291L66.8129 56.1287H81.4503C81.4525 56.1287 81.4547 56.1291 81.4568 56.1291L81.4613 56.1287H92.6758V65.0057ZM92.6758 53.1697H83.3102L85.5423 43.701H88.2812C89.4464 43.7023 90.5634 44.1704 91.3872 45.0024C92.2111 45.8345 92.6745 46.9627 92.6758 48.1395V53.1697Z"/>
</mask>
<path d="M88.2812 40.742H23.9965L39.2937 35.1186L39.3002 35.1162L66.2524 25.2084C66.257 25.2069 66.2614 25.205 66.266 25.2034L91.2257 16.028C91.8885 15.7845 92.4972 15.4115 93.0172 14.9303C93.5372 14.4491 93.9582 13.8691 94.2562 13.2236C94.5542 12.578 94.7234 11.8794 94.7541 11.1678C94.7848 10.4562 94.6764 9.74545 94.4351 9.07615L92.6323 4.07102C92.1437 2.71981 91.1443 1.61951 89.8535 1.01151C88.5627 0.403504 87.0858 0.337434 85.7469 0.827792L36.7377 18.8449L36.7353 18.8458L7.93037 29.4353C7.26755 29.6787 6.65871 30.0517 6.13861 30.5329C5.61851 31.014 5.19734 31.5939 4.89915 32.2395C4.60096 32.8851 4.43159 33.5836 4.4007 34.2953C4.36982 35.007 4.47803 35.7178 4.71916 36.3872L5.62742 38.9084C5.08659 39.7244 4.713 40.6415 4.52869 41.6057C4.44044 41.7988 4.39467 42.0089 4.39453 42.2215V94.1023C4.39672 96.0636 5.16907 97.9439 6.54216 99.3307C7.91524 100.718 9.77692 101.498 11.7188 101.5H88.2812C90.2231 101.498 92.0848 100.718 93.4578 99.3307C94.8309 97.9439 95.6033 96.0636 95.6055 94.1023V48.1395C95.6033 46.1782 94.8309 44.2979 93.4578 42.9111C92.0848 41.5243 90.2231 40.7442 88.2812 40.742ZM70.8939 43.701H82.5308L80.2986 53.1697H68.6617L70.8939 43.701ZM56.2454 43.701H67.8823L65.6502 53.1697H54.0133L56.2454 43.701ZM41.597 43.701H53.2339L51.0017 53.1697H39.3648L41.597 43.701ZM26.9485 43.701H38.5854L36.3533 53.1697H24.7164L26.9485 43.701ZM86.7492 3.6082C87.3579 3.38534 88.0294 3.41547 88.6162 3.69196C89.203 3.96845 89.6572 4.46874 89.8793 5.08307L91.6821 10.0882C91.7919 10.3924 91.8412 10.7154 91.8273 11.0388C91.8134 11.3623 91.7365 11.6798 91.601 11.9732C91.4656 12.2666 91.2742 12.5302 91.0378 12.7488C90.8015 12.9675 90.5247 13.137 90.2235 13.2476L79.7578 17.0949L78.5701 6.61505L86.7492 3.6082ZM75.7393 7.65574L76.927 18.1355L66.9943 21.7869L65.6471 11.3659L75.7393 7.65574ZM62.8266 12.4028L64.1737 22.8237L53.8017 26.6366L52.6495 16.1442L62.8266 12.4028ZM49.8163 17.1858L50.9685 27.6781L40.0597 31.6882L38.7987 21.2362L49.8163 17.1858ZM35.9727 22.2751L37.2337 32.7271L27.0358 36.4759L25.8491 25.9968L35.9727 22.2751ZM7.55386 33.491C7.68887 33.197 7.88023 32.9329 8.1169 32.714C8.35356 32.4951 8.63083 32.3258 8.93269 32.2158L23.0182 27.0375L24.2049 37.5165L18.2656 39.6999C17.8143 38.7875 17.1808 37.9794 16.4051 37.3264C15.6294 36.6734 14.7283 36.1896 13.7584 35.9055C12.7886 35.6214 11.771 35.5432 10.7698 35.6758C9.76852 35.8083 8.80528 36.1488 7.94067 36.6757L7.47213 35.3751C7.36164 35.0712 7.31197 34.7482 7.326 34.4248C7.34003 34.1014 7.41748 33.784 7.55386 33.491ZM11.7188 38.5721C12.7002 38.5734 13.6531 38.906 14.426 39.517C15.1988 40.1281 15.7473 40.9824 15.9843 41.9444L15.9865 41.9541C16.204 42.8509 16.1392 43.7938 15.8012 44.6516C15.4631 45.5094 14.8686 46.2394 14.1004 46.7399C13.3322 47.2403 12.4287 47.4864 11.5155 47.4437C10.6024 47.4011 9.72512 47.0719 9.00594 46.502C8.28677 45.932 7.76148 45.1498 7.50322 44.2641C7.24497 43.3785 7.26662 42.4335 7.56515 41.5609C7.86368 40.6882 8.42423 39.9313 9.16874 39.3956C9.91324 38.8599 10.8046 38.572 11.7188 38.5721ZM7.32422 48.9245C8.36515 49.7149 9.59603 50.2104 10.8899 50.36C12.1837 50.5097 13.4936 50.3079 14.6845 49.7756C15.8753 49.2433 16.904 48.3997 17.6644 47.3318C18.4248 46.264 18.8893 45.0106 19.01 43.701H23.937L21.7049 53.1697H7.32422V48.9245ZM7.32422 67.9647H26.5625V85.7186H7.32422V67.9647ZM92.6758 94.1023C92.6745 95.2791 92.2111 96.4073 91.3872 97.2394C90.5634 98.0715 89.4464 98.5395 88.2812 98.5408H11.7188C10.5536 98.5395 9.43664 98.0715 8.61279 97.2394C7.78894 96.4073 7.32552 95.2791 7.32422 94.1023V88.6775H92.6758V94.1023ZM29.4922 85.7186V67.9647H48.5352V85.7186H29.4922ZM51.4648 85.7186V67.9647H70.5078V85.7186H51.4648ZM92.6758 85.7186H73.4375V67.9647H92.6758V85.7186ZM92.6758 65.0057H7.32422V56.1287H22.8566C22.8587 56.1287 22.8609 56.1291 22.8631 56.1291L22.8676 56.1287H37.505C37.5072 56.1287 37.5094 56.1291 37.5115 56.1291L37.516 56.1287H52.1535C52.1556 56.1287 52.1578 56.1291 52.16 56.1291L52.1645 56.1287H66.8019C66.804 56.1287 66.8063 56.1291 66.8084 56.1291L66.8129 56.1287H81.4503C81.4525 56.1287 81.4547 56.1291 81.4568 56.1291L81.4613 56.1287H92.6758V65.0057ZM92.6758 53.1697H83.3102L85.5423 43.701H88.2812C89.4464 43.7023 90.5634 44.1704 91.3872 45.0024C92.2111 45.8345 92.6745 46.9627 92.6758 48.1395V53.1697Z" mask="url(#path-1-inside-1_278_72108)"/>
</g>
<defs>
<clipPath id="clip0_278_72108">
<rect width="100" height="101"  transform="translate(0 0.5)"/>
</clipPath>
</defs>
</svg>
