<svg width="102" height="102" viewBox="0 0 102 102"  xmlns="http://www.w3.org/2000/svg">
<path d="M90.2682 64.0184C90.7431 63.0717 91.0006 62.0266 91.0006 60.9314V46.2305C91.0006 44.3756 90.2898 42.641 89.0125 41.3611C88.2157 40.5367 87.2496 39.9443 86.1905 39.6161V20.2535C87.5863 19.7538 88.5953 18.4147 88.5953 16.828C88.5953 14.8179 86.9858 13.1825 85.0069 13.1825C83.0281 13.1825 81.418 14.8179 81.418 16.828C81.418 18.4147 82.4274 19.7538 83.8233 20.2535V39.3321C83.6025 39.3444 83.3986 39.3633 83.2396 39.3948C82.7483 39.4641 82.275 39.603 81.8159 39.7784C81.7947 38.1646 81.7472 36.801 81.6665 35.5357C81.6665 35.5356 81.6664 35.5354 81.6664 35.5354L81.6665 35.5345C81.2602 29.2813 79.9969 24.7843 77.5696 20.9521C70.9119 10.4732 57.1272 4.81885 47.5371 4.81885C38.3365 4.81885 24.9962 10.0022 18.3945 19.6085C15.5784 23.698 14.0906 28.6036 13.5691 35.5129C13.5691 35.5134 13.5688 35.5137 13.5688 35.5137C13.5686 35.5167 13.5685 35.5195 13.5683 35.5221V35.5223C13.458 36.8741 13.3866 38.3388 13.3457 39.995C12.7494 39.7078 12.1187 39.4987 11.4733 39.4041C11.2766 39.3664 11.0606 39.3458 10.8335 39.3328V20.2535C12.2293 19.7538 13.2383 18.4147 13.2383 16.828C13.2383 14.8179 11.6287 13.1825 9.64993 13.1825C7.67111 13.1825 6.061 14.8179 6.061 16.828C6.061 18.4147 7.07042 19.7538 8.46633 20.2535V39.6204C5.68528 40.4865 3.65625 43.1212 3.65625 46.2305V60.9314C3.65625 64.7432 6.70481 67.8442 10.4515 67.8442C12.2536 67.8442 13.9396 67.1068 15.1823 65.8781C19.8656 84.3186 32.8732 96.9688 47.5371 96.9688C50.0385 96.9688 52.5017 96.5996 54.8685 95.8902C58.5131 96.7415 62.343 97.1813 66.2636 97.1813C83.9528 97.1813 98.3438 88.2473 98.3438 77.266C98.3438 72.3199 95.4847 67.6502 90.2682 64.0184ZM8.42819 16.828C8.42819 16.1358 8.97606 15.5732 9.64993 15.5732C10.3232 15.5732 10.8711 16.1358 10.8711 16.828C10.8711 17.5202 10.3232 18.0828 9.64993 18.0828C8.97606 18.0828 8.42819 17.5202 8.42819 16.828ZM10.4515 65.4535C8.00977 65.4535 6.02344 63.4248 6.02344 60.9314V46.2305C6.02344 43.7371 8.00977 41.7084 10.4515 41.7084C10.6492 41.7084 10.8468 41.7171 11.082 41.7609C11.9021 41.8823 12.6731 42.236 13.303 42.784C13.3015 42.965 13.3039 43.1563 13.3028 43.3381C13.2933 44.8545 13.2952 46.3934 13.3013 47.961L13.3082 50.902C13.3082 51.8224 13.325 52.7428 13.3735 53.6288C13.3736 53.6303 13.3737 53.6317 13.3738 53.6332C13.374 53.6375 13.3739 53.642 13.3741 53.6463C13.3742 53.6472 13.3747 53.6479 13.3747 53.6488C13.4059 54.4258 13.4536 55.2035 13.5168 55.9811C13.5366 56.2251 13.5673 56.4683 13.5902 56.7121C13.6407 57.2495 13.6901 57.7869 13.7557 58.3233C13.7941 58.6378 13.8447 58.9503 13.8882 59.2642C13.9528 59.7291 14.0142 60.1942 14.09 60.6573C14.1443 60.9892 14.2101 61.3181 14.2702 61.6487C14.3397 62.0318 14.4019 62.4167 14.4791 62.7979C13.7723 64.3989 12.1916 65.4535 10.4515 65.4535ZM83.7852 16.828C83.7852 16.1358 84.3331 15.5732 85.0069 15.5732C85.6802 15.5732 86.2281 16.1358 86.2281 16.828C86.2281 17.5202 85.6802 18.0828 85.0069 18.0828C84.3331 18.0828 83.7852 17.5202 83.7852 16.828ZM81.3232 57.9543C81.364 57.6068 81.4137 57.2627 81.4481 56.9142C81.5558 55.8236 81.6389 54.732 81.6833 53.6463C81.6835 53.6422 81.6834 53.6379 81.6836 53.6338C81.6836 53.6325 81.6838 53.6313 81.6839 53.63C81.6839 53.63 81.6837 53.6293 81.6837 53.629C81.7321 52.7309 81.7492 51.8166 81.7492 50.902C81.7492 49.3244 81.77 47.7719 81.7902 46.2427C81.807 44.9523 81.8243 43.6788 81.8283 42.4198C82.3543 42.0749 82.9565 41.8479 83.6234 41.7527C83.8095 41.7171 84.0077 41.7084 84.2054 41.7084C85.3889 41.7084 86.4945 42.1782 87.3314 43.0438C88.1711 43.886 88.6334 45.0171 88.6334 46.2305V60.9314C88.6334 61.567 88.5069 62.1775 88.2624 62.7372C88.042 62.6087 87.8079 62.4913 87.5823 62.367C87.3784 62.2546 87.176 62.1416 86.9681 62.0327C86.4184 61.7451 85.854 61.4701 85.2757 61.207C85.1617 61.1552 85.0535 61.0986 84.9385 61.0477C84.2455 60.7413 83.5303 60.4552 82.7993 60.1844C82.5974 60.1096 82.389 60.0419 82.1843 59.9699C81.8322 59.8461 81.4858 59.7163 81.1256 59.6007C81.2057 59.0548 81.2589 58.5037 81.3232 57.9543ZM20.3381 20.9725C26.482 12.0327 38.9369 7.20947 47.5371 7.20947C56.4995 7.20947 69.3729 12.4787 75.5763 22.2419C77.6124 25.4561 78.7486 29.2486 79.2069 34.4174H16.0395C16.6047 28.627 17.9484 24.4429 20.3381 20.9725ZM15.6754 50.902L15.6685 47.9522C15.6609 46.0355 15.654 44.1505 15.6754 42.3095V42.3078C15.6754 42.3061 15.6754 42.3042 15.6754 42.3025C15.6904 40.185 15.7459 38.4078 15.8482 36.8081H79.3658C79.4323 38.2333 79.4623 39.8296 79.4623 41.8198C79.4623 43.2632 79.4427 44.7258 79.423 46.2106C79.4028 47.7509 79.382 49.3139 79.382 50.902C79.382 51.3962 79.3593 51.891 79.3464 52.3856H15.7108C15.6979 51.8909 15.6754 51.3993 15.6754 50.902ZM47.5371 94.5782C33.2964 94.5782 20.6854 81.456 16.8688 62.6614C16.7211 61.9553 16.5897 61.2448 16.4696 60.5321C16.4325 60.3122 16.4025 60.091 16.368 59.8705C16.2907 59.3753 16.2165 58.8797 16.1525 58.3823C16.1187 58.1195 16.0902 57.8562 16.0601 57.5931C16.0078 57.1343 15.9597 56.6752 15.9187 56.2153C15.8939 55.9363 15.8717 55.6574 15.8512 55.3784C15.8363 55.1778 15.8271 54.977 15.8145 54.7763H79.2295C79.1845 55.4803 79.1498 56.1845 79.0777 56.887C79.0752 56.911 79.0715 56.935 79.069 56.959C79.0005 57.6175 78.8977 58.2685 78.8057 58.9222C78.4361 58.8242 78.0523 58.753 77.6778 58.6641C77.2422 58.5607 76.8085 58.4549 76.3664 58.3639C75.7098 58.2287 75.0422 58.1171 74.3722 58.0092C73.9454 57.9405 73.523 57.8633 73.091 57.8057C72.3459 57.7063 71.5881 57.6371 70.8284 57.571C70.4584 57.5388 70.0945 57.4923 69.7211 57.468C68.5821 57.3939 67.4306 57.3513 66.2636 57.3513C48.575 57.3513 34.1841 66.2852 34.1841 77.266C34.1841 77.7528 34.2169 78.2351 34.2714 78.7144C34.2893 78.8712 34.3216 79.0255 34.3452 79.1814C34.3939 79.503 34.4472 79.8238 34.5199 80.1413C34.5614 80.3221 34.6136 80.5006 34.6627 80.6798C34.7422 80.9699 34.8276 81.2585 34.9269 81.5446C34.9908 81.7285 35.0604 81.9108 35.1323 82.093C35.2428 82.3728 35.3631 82.65 35.4924 82.9253C35.5754 83.1023 35.6589 83.2787 35.7496 83.4537C35.8962 83.7364 36.057 84.0151 36.2233 84.2925C36.3186 84.4514 36.4092 84.6116 36.5108 84.7687C36.7131 85.0815 36.9341 85.3882 37.1613 85.6932C37.2466 85.8078 37.3233 85.9251 37.4121 86.0385C37.7382 86.4554 38.0856 86.865 38.4572 87.2656C38.513 87.3256 38.5762 87.3826 38.6329 87.4423C38.9536 87.7795 39.2867 88.1116 39.6388 88.4362C39.776 88.5625 39.9237 88.6841 40.0655 88.8085C40.3534 89.061 40.6454 89.3113 40.9523 89.5551C41.1237 89.6913 41.3021 89.8237 41.4794 89.9571C41.7776 90.1816 42.0817 90.4027 42.396 90.619C42.589 90.7518 42.7849 90.8826 42.9839 91.0122C43.3065 91.2224 43.6379 91.4273 43.976 91.6289C44.18 91.7505 44.3829 91.8724 44.5923 91.9907C44.9584 92.1976 45.3366 92.3966 45.7191 92.5932C45.9153 92.6941 46.1066 92.7977 46.307 92.8957C46.7808 93.1276 47.2698 93.3489 47.7666 93.5648C47.8886 93.6176 48.0042 93.675 48.1274 93.7269C48.728 93.9802 49.343 94.223 49.9753 94.4521C49.1686 94.5362 48.3548 94.5782 47.5371 94.5782ZM66.2636 94.7906C62.4169 94.7906 58.6633 94.3564 55.1085 93.5002C44.0088 90.8125 36.5513 84.2885 36.5513 77.266C36.5513 67.6031 49.88 59.7419 66.2636 59.7419C70.9321 59.7419 75.3717 60.3629 79.4652 61.5892C80.8014 61.982 82.0653 62.4459 83.2812 62.9516C83.5904 63.0802 83.905 63.2036 84.2059 63.3393C85.5669 63.953 86.8484 64.6342 88.0301 65.3882L88.0308 65.3885L88.0312 65.3887C93.1545 68.6519 95.9766 72.87 95.9766 77.266C95.9766 86.9289 82.6473 94.7906 66.2636 94.7906Z" />
<path d="M43.7212 74.3692C43.0676 74.3692 42.5376 74.9044 42.5376 75.5645V78.9678C42.5376 79.6279 43.0676 80.1631 43.7212 80.1631C44.3748 80.1631 44.9048 79.6279 44.9048 78.9678V75.5645C44.9048 74.9044 44.3748 74.3692 43.7212 74.3692ZM48.7312 74.3692C48.0776 74.3692 47.5476 74.9044 47.5476 75.5645V78.9678C47.5476 79.6279 48.0776 80.1631 48.7312 80.1631C49.3849 80.1631 49.9148 79.6279 49.9148 78.9678V75.5645C49.9148 74.9044 49.3849 74.3692 48.7312 74.3692ZM53.7419 73.5183C53.0882 73.5183 52.5583 74.0535 52.5583 74.7136V79.8182C52.5583 80.4783 53.0882 81.0135 53.7419 81.0135C54.3955 81.0135 54.9255 80.4783 54.9255 79.8182V74.7136C54.9255 74.0535 54.3955 73.5183 53.7419 73.5183ZM58.7525 70.966C58.0988 70.966 57.5689 71.5012 57.5689 72.1613V82.3705C57.5689 83.0306 58.0988 83.5658 58.7525 83.5658C59.4061 83.5658 59.9361 83.0306 59.9361 82.3705V72.1613C59.9361 71.5012 59.4061 70.966 58.7525 70.966ZM63.7625 66.7123C63.1089 66.7123 62.5789 67.2475 62.5789 67.9076V86.6247C62.5789 87.2848 63.1089 87.82 63.7625 87.82C64.4162 87.82 64.9461 87.2848 64.9461 86.6247V67.9076C64.9461 67.2475 64.4162 66.7123 63.7625 66.7123ZM68.7732 63.3091C68.1195 63.3091 67.5896 63.8443 67.5896 64.5044V90.0274C67.5896 90.6875 68.1195 91.2227 68.7732 91.2227C69.4268 91.2227 69.9567 90.6875 69.9567 90.0274V64.5044C69.9567 63.8443 69.4268 63.3091 68.7732 63.3091ZM73.7838 67.718C73.1301 67.718 72.6002 68.2532 72.6002 68.9133V85.6191C72.6002 86.2792 73.1301 86.8144 73.7838 86.8144C74.4374 86.8144 74.9674 86.2792 74.9674 85.6191V68.9133C74.9674 68.2532 74.4374 67.718 73.7838 67.718ZM78.7938 73.0082C78.1402 73.0082 77.6102 73.5434 77.6102 74.2035V80.3289C77.6102 80.989 78.1402 81.5242 78.7938 81.5242C79.4475 81.5242 79.9774 80.989 79.9774 80.3289V74.2035C79.9774 73.5434 79.4475 73.0082 78.7938 73.0082ZM83.8044 74.3692C83.1508 74.3692 82.6209 74.9044 82.6209 75.5645V78.9678C82.6209 79.6279 83.1508 80.1631 83.8044 80.1631C84.4581 80.1631 84.988 79.6279 84.988 78.9678V75.5645C84.988 74.9044 84.4581 74.3692 83.8044 74.3692ZM88.8151 72.6679C88.1614 72.6679 87.6315 73.2031 87.6315 73.8632V80.6691C87.6315 81.3292 88.1614 81.8644 88.8151 81.8644C89.4687 81.8644 89.9987 81.3292 89.9987 80.6691V73.8632C89.9987 73.2031 89.4687 72.6679 88.8151 72.6679Z" />
</svg>
