<svg id="Group_617" data-name="Group 617" xmlns="http://www.w3.org/2000/svg" width="67" height="36" viewBox="0 0 67 36">
  <rect id="Rectangle_118" data-name="Rectangle 118" width="67" height="36" rx="18" fill="#00adef"/>
  <g id="Group_211" data-name="Group 211" transform="translate(26 9)">
    <path id="Path_42" data-name="Path 42" d="M7-2a8.744,8.744,0,0,1,3.916.913,9.837,9.837,0,0,1,3.165,2.533A8.793,8.793,0,0,1,16.005,7,9,9,0,1,1,7-2ZM7,12.005a5.008,5.008,0,0,0,5-5,4.793,4.793,0,0,0-.972-2.97l-.011-.013A5.181,5.181,0,0,0,7,2,5,5,0,0,0,7,12.005Z" fill="#fff"/>
    <path id="Path_41" data-name="Path 41" d="M89.655,86.426a2.047,2.047,0,0,1,1.457.6l5,5A2.061,2.061,0,1,1,93.2,94.946l-5-5a2.061,2.061,0,0,1,1.457-3.518Z" transform="translate(-75.65 -74.981)" fill="#fff"/>
    <path id="Line_6" data-name="Line 6" d="M.35,1.764-.707.707.707-.707,1.764.35Z" transform="translate(12.198 11.698)" fill="#fff"/>
  </g>
</svg>
